<?xml version="1.0" encoding="UTF-8" standalone="no"?>
<!-- Generated by SVGo -->

<svg
   width="228.19098mm"
   height="76.190979mm"
   viewBox="0 0 228.19098 76.19098"
   version="1.1"
   id="svg98"
   sodipodi:docname="BB40V1_switch_plate.svg"
   inkscape:version="1.1.2 (b8e25be833, 2022-02-05)"
   xmlns:inkscape="http://www.inkscape.org/namespaces/inkscape"
   xmlns:sodipodi="http://sodipodi.sourceforge.net/DTD/sodipodi-0.dtd"
   xmlns="http://www.w3.org/2000/svg"
   xmlns:svg="http://www.w3.org/2000/svg">
  <defs
     id="defs102" />
  <sodipodi:namedview
     id="namedview100"
     pagecolor="#ffffff"
     bordercolor="#666666"
     borderopacity="1.0"
     inkscape:pageshadow="2"
     inkscape:pageopacity="0.0"
     inkscape:pagecheckerboard="0"
     inkscape:document-units="mm"
     showgrid="false"
     showborder="false"
     inkscape:zoom="2.8284271"
     inkscape:cx="448.48248"
     inkscape:cy="120.91526"
     inkscape:window-width="3440"
     inkscape:window-height="1387"
     inkscape:window-x="-8"
     inkscape:window-y="-8"
     inkscape:window-maximized="1"
     inkscape:current-layer="svg98"
     inkscape:snap-object-midpoints="true"
     inkscape:snap-bbox="true"
     inkscape:object-nodes="false"
     inkscape:snap-grids="false"
     fit-margin-top="0"
     fit-margin-left="0"
     fit-margin-right="0"
     fit-margin-bottom="0">
    <inkscape:grid
       type="xygrid"
       id="grid1984"
       units="mm"
       spacingx="19"
       spacingy="19"
       empspacing="1"
       visible="false"
       originx="212.09549"
       originy="165.08049" />
    <inkscape:grid
       type="xygrid"
       id="grid2472"
       units="mm"
       spacingx="0.1"
       spacingy="0.1"
       empspacing="10"
       originx="212.09549"
       originy="165.08049" />
  </sodipodi:namedview>
  <g
     id="g3706"
     transform="translate(211.3816,168.68338)"
     style="fill:none;stroke:#0000ff;stroke-width:0.01;stroke-miterlimit:4;stroke-dasharray:none">
    <polygon
       points="232.416,5.586 232.522,5.702 232.62,5.825 232.707,5.956 232.784,6.093 232.849,6.235 232.904,6.382 232.946,6.534 232.977,6.688 232.995,6.844 233.002,7.001 233.002,79.002 232.995,79.158 232.977,79.314 232.946,79.468 232.904,79.62 232.849,79.767 232.784,79.909 232.707,80.046 232.62,80.177 232.522,80.3 232.416,80.416 232.3,80.522 232.177,80.62 232.046,80.707 231.909,80.784 231.767,80.849 231.62,80.904 231.468,80.946 231.314,80.977 231.158,80.995 231.001,81.001 7.001,81.002 6.844,80.995 6.688,80.977 6.534,80.946 6.382,80.904 6.235,80.849 6.093,80.784 5.956,80.707 5.825,80.62 5.702,80.522 5.586,80.416 5.48,80.3 5.382,80.177 5.295,80.046 5.218,79.909 5.153,79.767 5.098,79.62 5.056,79.468 5.025,79.314 5.007,79.158 5,79.002 5.001,7.001 5.007,6.844 5.025,6.688 5.056,6.534 5.098,6.382 5.153,6.235 5.218,6.093 5.295,5.956 5.382,5.825 5.48,5.702 5.586,5.586 5.702,5.48 5.825,5.382 5.956,5.295 6.093,5.218 6.235,5.153 6.382,5.098 6.534,5.056 6.688,5.025 6.844,5.007 7.001,5 231.002,5.001 231.158,5.007 231.314,5.025 231.468,5.056 231.62,5.098 231.767,5.153 231.909,5.218 232.046,5.295 232.177,5.382 232.3,5.48 "
       style="fill:none;stroke:#0000ff;stroke-width:0.01;stroke-miterlimit:4;stroke-dasharray:none"
       id="polygon2-0"
       transform="translate(-216.28711,-173.58889)" />
    <polygon
       points="105.451,78.271 105.451,79.471 108.751,79.471 108.751,78.271 110.476,78.271 110.476,73.801 112.001,73.801 112.001,78.501 126.001,78.501 126.001,73.801 127.526,73.801 127.526,78.271 129.251,78.271 129.251,79.471 132.551,79.471 132.551,78.271 134.276,78.271 134.276,72.001 135.101,72.001 135.101,69.201 134.276,69.201 134.276,65.971 127.526,65.971 127.526,69.201 126.001,69.201 126.001,64.501 112.001,64.501 112.001,69.201 110.476,69.201 110.476,65.971 103.726,65.971 103.726,69.201 102.901,69.201 102.901,72.001 103.726,72.001 103.726,78.271 "
       style="fill:none;stroke:#0000ff;stroke-width:0.01;stroke-miterlimit:4;stroke-dasharray:none"
       id="polygon4-4"
       transform="translate(-216.28711,-173.58889)" />
    <polygon
       points="21.501,78.501 21.501,64.501 7.501,64.501 7.501,78.501 "
       style="fill:none;stroke:#0000ff;stroke-width:0.01;stroke-miterlimit:4;stroke-dasharray:none"
       id="polygon6-9"
       transform="translate(-216.28711,-173.58889)" />
    <polygon
       points="40.501,78.501 40.501,64.501 26.501,64.501 26.501,78.501 "
       style="fill:none;stroke:#0000ff;stroke-width:0.01;stroke-miterlimit:4;stroke-dasharray:none"
       id="polygon8-0"
       transform="translate(-216.28711,-173.58889)" />
    <polygon
       points="59.501,78.501 59.501,64.501 45.501,64.501 45.501,78.501 "
       style="fill:none;stroke:#0000ff;stroke-width:0.01;stroke-miterlimit:4;stroke-dasharray:none"
       id="polygon10-2"
       transform="translate(-216.28711,-173.58889)" />
    <polygon
       points="78.501,78.501 78.501,64.501 64.501,64.501 64.501,78.501 "
       style="fill:none;stroke:#0000ff;stroke-width:0.01;stroke-miterlimit:4;stroke-dasharray:none"
       id="polygon12-5"
       transform="translate(-216.28711,-173.58889)" />
    <polygon
       points="97.501,78.501 97.501,64.501 83.501,64.501 83.501,78.501 "
       style="fill:none;stroke:#0000ff;stroke-width:0.01;stroke-miterlimit:4;stroke-dasharray:none"
       id="polygon14-0"
       transform="translate(-216.28711,-173.58889)" />
    <polygon
       points="154.501,78.501 154.501,64.501 140.501,64.501 140.501,78.501 "
       style="fill:none;stroke:#0000ff;stroke-width:0.01;stroke-miterlimit:4;stroke-dasharray:none"
       id="polygon16-2"
       transform="translate(-216.28711,-173.58889)" />
    <polygon
       points="173.501,78.501 173.501,64.501 159.501,64.501 159.501,78.501 "
       style="fill:none;stroke:#0000ff;stroke-width:0.01;stroke-miterlimit:4;stroke-dasharray:none"
       id="polygon18-0"
       transform="translate(-216.28711,-173.58889)" />
    <polygon
       points="192.501,78.501 192.501,64.501 178.501,64.501 178.501,78.501 "
       style="fill:none;stroke:#0000ff;stroke-width:0.01;stroke-miterlimit:4;stroke-dasharray:none"
       id="polygon20-5"
       transform="translate(-216.28711,-173.58889)" />
    <polygon
       points="211.501,78.501 211.501,64.501 197.501,64.501 197.501,78.501 "
       style="fill:none;stroke:#0000ff;stroke-width:0.01;stroke-miterlimit:4;stroke-dasharray:none"
       id="polygon22-6"
       transform="translate(-216.28711,-173.58889)" />
    <polygon
       points="230.501,78.501 230.501,64.501 216.501,64.501 216.501,78.501 "
       style="fill:none;stroke:#0000ff;stroke-width:0.01;stroke-miterlimit:4;stroke-dasharray:none"
       id="polygon24-9"
       transform="translate(-216.28711,-173.58889)" />
    <polygon
       points="21.501,59.501 21.501,45.501 7.501,45.501 7.501,59.501 "
       style="fill:none;stroke:#0000ff;stroke-width:0.01;stroke-miterlimit:4;stroke-dasharray:none"
       id="polygon26-7"
       transform="translate(-216.28711,-173.58889)" />
    <polygon
       points="40.501,59.501 40.501,45.501 26.501,45.501 26.501,59.501 "
       style="fill:none;stroke:#0000ff;stroke-width:0.01;stroke-miterlimit:4;stroke-dasharray:none"
       id="polygon28-6"
       transform="translate(-216.28711,-173.58889)" />
    <polygon
       points="59.501,59.501 59.501,45.501 45.501,45.501 45.501,59.501 "
       style="fill:none;stroke:#0000ff;stroke-width:0.01;stroke-miterlimit:4;stroke-dasharray:none"
       id="polygon30-2"
       transform="translate(-216.28711,-173.58889)" />
    <polygon
       points="78.501,59.501 78.501,45.501 64.501,45.501 64.501,59.501 "
       style="fill:none;stroke:#0000ff;stroke-width:0.01;stroke-miterlimit:4;stroke-dasharray:none"
       id="polygon32-2"
       transform="translate(-216.28711,-173.58889)" />
    <polygon
       points="97.501,59.501 97.501,45.501 83.501,45.501 83.501,59.501 "
       style="fill:none;stroke:#0000ff;stroke-width:0.01;stroke-miterlimit:4;stroke-dasharray:none"
       id="polygon34-5"
       transform="translate(-216.28711,-173.58889)" />
    <polygon
       points="116.501,59.501 116.501,45.501 102.501,45.501 102.501,59.501 "
       style="fill:none;stroke:#0000ff;stroke-width:0.01;stroke-miterlimit:4;stroke-dasharray:none"
       id="polygon36-2"
       transform="translate(-216.28711,-173.58889)" />
    <polygon
       points="135.501,59.501 135.501,45.501 121.501,45.501 121.501,59.501 "
       style="fill:none;stroke:#0000ff;stroke-width:0.01;stroke-miterlimit:4;stroke-dasharray:none"
       id="polygon38-8"
       transform="translate(-216.28711,-173.58889)" />
    <polygon
       points="154.501,59.501 154.501,45.501 140.501,45.501 140.501,59.501 "
       style="fill:none;stroke:#0000ff;stroke-width:0.01;stroke-miterlimit:4;stroke-dasharray:none"
       id="polygon40-4"
       transform="translate(-216.28711,-173.58889)" />
    <polygon
       points="173.501,59.501 173.501,45.501 159.501,45.501 159.501,59.501 "
       style="fill:none;stroke:#0000ff;stroke-width:0.01;stroke-miterlimit:4;stroke-dasharray:none"
       id="polygon42-4"
       transform="translate(-216.28711,-173.58889)" />
    <polygon
       points="192.501,59.501 192.501,45.501 178.501,45.501 178.501,59.501 "
       style="fill:none;stroke:#0000ff;stroke-width:0.01;stroke-miterlimit:4;stroke-dasharray:none"
       id="polygon44-1"
       transform="translate(-216.28711,-173.58889)" />
    <polygon
       points="211.501,59.501 211.501,45.501 197.501,45.501 197.501,59.501 "
       style="fill:none;stroke:#0000ff;stroke-width:0.01;stroke-miterlimit:4;stroke-dasharray:none"
       id="polygon46-8"
       transform="translate(-216.28711,-173.58889)" />
    <polygon
       points="230.501,59.501 230.501,45.501 216.501,45.501 216.501,59.501 "
       style="fill:none;stroke:#0000ff;stroke-width:0.01;stroke-miterlimit:4;stroke-dasharray:none"
       id="polygon48-4"
       transform="translate(-216.28711,-173.58889)" />
    <polygon
       points="21.501,40.501 21.501,26.501 7.501,26.501 7.501,40.501 "
       style="fill:none;stroke:#0000ff;stroke-width:0.01;stroke-miterlimit:4;stroke-dasharray:none"
       id="polygon50-5"
       transform="translate(-216.28711,-173.58889)" />
    <polygon
       points="40.501,40.501 40.501,26.501 26.501,26.501 26.501,40.501 "
       style="fill:none;stroke:#0000ff;stroke-width:0.01;stroke-miterlimit:4;stroke-dasharray:none"
       id="polygon52-6"
       transform="translate(-216.28711,-173.58889)" />
    <polygon
       points="59.501,40.501 59.501,26.501 45.501,26.501 45.501,40.501 "
       style="fill:none;stroke:#0000ff;stroke-width:0.01;stroke-miterlimit:4;stroke-dasharray:none"
       id="polygon54-0"
       transform="translate(-216.28711,-173.58889)" />
    <polygon
       points="78.501,40.501 78.501,26.501 64.501,26.501 64.501,40.501 "
       style="fill:none;stroke:#0000ff;stroke-width:0.01;stroke-miterlimit:4;stroke-dasharray:none"
       id="polygon56-4"
       transform="translate(-216.28711,-173.58889)" />
    <polygon
       points="97.501,40.501 97.501,26.501 83.501,26.501 83.501,40.501 "
       style="fill:none;stroke:#0000ff;stroke-width:0.01;stroke-miterlimit:4;stroke-dasharray:none"
       id="polygon58-3"
       transform="translate(-216.28711,-173.58889)" />
    <polygon
       points="116.501,40.501 116.501,26.501 102.501,26.501 102.501,40.501 "
       style="fill:none;stroke:#0000ff;stroke-width:0.01;stroke-miterlimit:4;stroke-dasharray:none"
       id="polygon60-8"
       transform="translate(-216.28711,-173.58889)" />
    <polygon
       points="135.501,40.501 135.501,26.501 121.501,26.501 121.501,40.501 "
       style="fill:none;stroke:#0000ff;stroke-width:0.01;stroke-miterlimit:4;stroke-dasharray:none"
       id="polygon62-8"
       transform="translate(-216.28711,-173.58889)" />
    <polygon
       points="154.501,40.501 154.501,26.501 140.501,26.501 140.501,40.501 "
       style="fill:none;stroke:#0000ff;stroke-width:0.01;stroke-miterlimit:4;stroke-dasharray:none"
       id="polygon64-7"
       transform="translate(-216.28711,-173.58889)" />
    <polygon
       points="173.501,40.501 173.501,26.501 159.501,26.501 159.501,40.501 "
       style="fill:none;stroke:#0000ff;stroke-width:0.01;stroke-miterlimit:4;stroke-dasharray:none"
       id="polygon66-0"
       transform="translate(-216.28711,-173.58889)" />
    <polygon
       points="192.501,40.501 192.501,26.501 178.501,26.501 178.501,40.501 "
       style="fill:none;stroke:#0000ff;stroke-width:0.01;stroke-miterlimit:4;stroke-dasharray:none"
       id="polygon68-9"
       transform="translate(-216.28711,-173.58889)" />
    <polygon
       points="211.501,40.501 211.501,26.501 197.501,26.501 197.501,40.501 "
       style="fill:none;stroke:#0000ff;stroke-width:0.01;stroke-miterlimit:4;stroke-dasharray:none"
       id="polygon70-7"
       transform="translate(-216.28711,-173.58889)" />
    <polygon
       points="230.501,40.501 230.501,26.501 216.501,26.501 216.501,40.501 "
       style="fill:none;stroke:#0000ff;stroke-width:0.01;stroke-miterlimit:4;stroke-dasharray:none"
       id="polygon72-3"
       transform="translate(-216.28711,-173.58889)" />
    <polygon
       points="21.501,21.501 21.501,7.501 7.501,7.501 7.501,21.501 "
       style="fill:none;stroke:#0000ff;stroke-width:0.01;stroke-miterlimit:4;stroke-dasharray:none"
       id="polygon74-9"
       transform="translate(-216.28711,-173.58889)" />
    <polygon
       points="40.501,21.501 40.501,7.501 26.501,7.501 26.501,21.501 "
       style="fill:none;stroke:#0000ff;stroke-width:0.01;stroke-miterlimit:4;stroke-dasharray:none"
       id="polygon76-0"
       transform="translate(-216.28711,-173.58889)" />
    <polygon
       points="59.501,21.501 59.501,7.501 45.501,7.501 45.501,21.501 "
       style="fill:none;stroke:#0000ff;stroke-width:0.01;stroke-miterlimit:4;stroke-dasharray:none"
       id="polygon78-7"
       transform="translate(-216.28711,-173.58889)" />
    <polygon
       points="78.501,21.501 78.501,7.501 64.501,7.501 64.501,21.501 "
       style="fill:none;stroke:#0000ff;stroke-width:0.01;stroke-miterlimit:4;stroke-dasharray:none"
       id="polygon80-6"
       transform="translate(-216.28711,-173.58889)" />
    <polygon
       points="97.501,21.501 97.501,7.501 83.501,7.501 83.501,21.501 "
       style="fill:none;stroke:#0000ff;stroke-width:0.01;stroke-miterlimit:4;stroke-dasharray:none"
       id="polygon82-1"
       transform="translate(-216.28711,-173.58889)" />
    <polygon
       points="116.501,21.501 116.501,7.501 102.501,7.501 102.501,21.501 "
       style="fill:none;stroke:#0000ff;stroke-width:0.01;stroke-miterlimit:4;stroke-dasharray:none"
       id="polygon84-1"
       transform="translate(-216.28711,-173.58889)" />
    <polygon
       points="135.501,21.501 135.501,7.501 121.501,7.501 121.501,21.501 "
       style="fill:none;stroke:#0000ff;stroke-width:0.01;stroke-miterlimit:4;stroke-dasharray:none"
       id="polygon86-9"
       transform="translate(-216.28711,-173.58889)" />
    <polygon
       points="154.501,21.501 154.501,7.501 140.501,7.501 140.501,21.501 "
       style="fill:none;stroke:#0000ff;stroke-width:0.01;stroke-miterlimit:4;stroke-dasharray:none"
       id="polygon88-3"
       transform="translate(-216.28711,-173.58889)" />
    <polygon
       points="173.501,21.501 173.501,7.501 159.501,7.501 159.501,21.501 "
       style="fill:none;stroke:#0000ff;stroke-width:0.01;stroke-miterlimit:4;stroke-dasharray:none"
       id="polygon90-2"
       transform="translate(-216.28711,-173.58889)" />
    <polygon
       points="192.501,21.501 192.501,7.501 178.501,7.501 178.501,21.501 "
       style="fill:none;stroke:#0000ff;stroke-width:0.01;stroke-miterlimit:4;stroke-dasharray:none"
       id="polygon92-7"
       transform="translate(-216.28711,-173.58889)" />
    <polygon
       points="211.501,21.501 211.501,7.501 197.501,7.501 197.501,21.501 "
       style="fill:none;stroke:#0000ff;stroke-width:0.01;stroke-miterlimit:4;stroke-dasharray:none"
       id="polygon94-5"
       transform="translate(-216.28711,-173.58889)" />
    <polygon
       points="230.501,21.501 230.501,7.501 216.501,7.501 216.501,21.501 "
       style="fill:none;stroke:#0000ff;stroke-width:0.01;stroke-miterlimit:4;stroke-dasharray:none"
       id="polygon96-0"
       transform="translate(-216.28711,-173.58889)" />
  </g>
</svg>
