<?xml version="1.0" encoding="UTF-8" standalone="no"?>
<!-- Created with Inkscape (http://www.inkscape.org/) -->

<svg
   width="228.19098mm"
   height="76.190979mm"
   viewBox="0 0 228.19098 76.190979"
   version="1.1"
   id="svg5"
   inkscape:version="1.1.2 (b8e25be833, 2022-02-05)"
   sodipodi:docname="BB40V1_bottom_plate.svg"
   xmlns:inkscape="http://www.inkscape.org/namespaces/inkscape"
   xmlns:sodipodi="http://sodipodi.sourceforge.net/DTD/sodipodi-0.dtd"
   xmlns="http://www.w3.org/2000/svg"
   xmlns:svg="http://www.w3.org/2000/svg">
  <sodipodi:namedview
     id="namedview7"
     pagecolor="#ffffff"
     bordercolor="#666666"
     borderopacity="1.0"
     inkscape:pageshadow="2"
     inkscape:pageopacity="0.0"
     inkscape:pagecheckerboard="0"
     inkscape:document-units="mm"
     showgrid="false"
     fit-margin-top="0"
     fit-margin-left="0"
     fit-margin-right="0"
     fit-margin-bottom="0"
     showborder="false"
     inkscape:zoom="2"
     inkscape:cx="426.75"
     inkscape:cy="132.5"
     inkscape:window-width="3440"
     inkscape:window-height="1387"
     inkscape:window-x="-8"
     inkscape:window-y="-8"
     inkscape:window-maximized="1"
     inkscape:current-layer="layer1" />
  <defs
     id="defs2" />
  <g
     inkscape:label="Layer 1"
     inkscape:groupmode="layer"
     id="layer1"
     transform="translate(29.043942,-153.44059)">
    <g
       id="g3656"
       transform="translate(-46.01959,86.04972)"
       style="stroke:#0000ff;stroke-width:0.01;stroke-miterlimit:4;stroke-dasharray:none">
      <polygon
         points="7.096,7.726 7.25,7.751 7.405,7.726 7.544,7.655 7.655,7.544 7.726,7.405 7.751,7.251 7.726,7.096 7.655,6.957 7.544,6.846 7.405,6.775 7.251,6.751 7.096,6.775 6.957,6.846 6.846,6.957 6.775,7.096 6.75,7.251 6.775,7.405 6.846,7.544 6.957,7.655 "
         style="fill:none;stroke:#0000ff;stroke-width:0.01;stroke-miterlimit:4;stroke-dasharray:none"
         id="polygon1399-3"
         transform="translate(154.32064,97.235311)" />
      <polygon
         points="7.096,7.726 7.25,7.751 7.405,7.726 7.544,7.655 7.655,7.544 7.726,7.405 7.751,7.251 7.726,7.096 7.655,6.957 7.544,6.846 7.405,6.775 7.251,6.751 7.096,6.775 6.957,6.846 6.846,6.957 6.775,7.096 6.75,7.251 6.775,7.405 6.846,7.544 6.957,7.655 "
         style="fill:none;stroke:#0000ff;stroke-width:0.01;stroke-miterlimit:4;stroke-dasharray:none"
         id="polygon1399-8"
         transform="translate(161.82064,97.235311)" />
      <polygon
         points="232.946,79.468 232.904,79.62 232.849,79.767 232.784,79.909 232.707,80.046 232.62,80.177 232.522,80.3 232.416,80.416 232.3,80.522 232.177,80.62 232.046,80.707 231.909,80.784 231.767,80.849 231.62,80.904 231.468,80.946 231.314,80.977 231.158,80.995 231.001,81.001 7.001,81.002 6.844,80.995 6.688,80.977 6.534,80.946 6.382,80.904 6.235,80.849 6.093,80.784 5.956,80.707 5.825,80.62 5.702,80.522 5.586,80.416 5.48,80.3 5.382,80.177 5.295,80.046 5.218,79.909 5.153,79.767 5.098,79.62 5.056,79.468 5.025,79.314 5.007,79.158 5,79.002 5.001,7.001 5.007,6.844 5.025,6.688 5.056,6.534 5.098,6.382 5.153,6.235 5.218,6.093 5.295,5.956 5.382,5.825 5.48,5.702 5.586,5.586 5.702,5.48 5.825,5.382 5.956,5.295 6.093,5.218 6.235,5.153 6.382,5.098 6.534,5.056 6.688,5.025 6.844,5.007 7.001,5 231.002,5.001 231.158,5.007 231.314,5.025 231.468,5.056 231.62,5.098 231.767,5.153 231.909,5.218 232.046,5.295 232.177,5.382 232.3,5.48 232.416,5.586 232.522,5.702 232.62,5.825 232.707,5.956 232.784,6.093 232.849,6.235 232.904,6.382 232.946,6.534 232.977,6.688 232.995,6.844 233.002,7.001 233.002,79.002 232.995,79.158 232.977,79.314 "
         style="fill:none;stroke:#0000ff;stroke-width:0.01;stroke-miterlimit:4;stroke-dasharray:none"
         id="polygon2"
         transform="translate(12.070136,62.485358)" />
      <polygon
         points="8.297,6.911 8.139,6.604 7.897,6.361 7.59,6.204 7.251,6.151 6.911,6.204 6.604,6.361 6.361,6.604 6.204,6.911 6.151,7.251 6.204,7.59 6.361,7.897 6.604,8.139 6.911,8.297 7.251,8.351 7.59,8.297 7.897,8.139 8.139,7.897 8.297,7.59 8.351,7.251 "
         style="fill:none;stroke:#0000ff;stroke-width:0.01;stroke-miterlimit:4;stroke-dasharray:none"
         id="polygon1372-8"
         transform="translate(28.820114,79.235337)" />
      <polygon
         points="6.361,6.604 6.204,6.911 6.151,7.251 6.204,7.59 6.361,7.897 6.604,8.139 6.911,8.297 7.251,8.351 7.59,8.297 7.897,8.139 8.139,7.897 8.297,7.59 8.351,7.251 8.297,6.911 8.139,6.604 7.897,6.361 7.59,6.204 7.251,6.151 6.911,6.204 6.604,6.361 "
         style="fill:none;stroke:#0000ff;stroke-width:0.01;stroke-miterlimit:4;stroke-dasharray:none"
         id="polygon1372-8-0"
         transform="translate(28.820114,117.23534)" />
      <polygon
         points="6.361,6.604 6.204,6.911 6.151,7.251 6.204,7.59 6.361,7.897 6.604,8.139 6.911,8.297 7.251,8.351 7.59,8.297 7.897,8.139 8.139,7.897 8.297,7.59 8.351,7.251 8.297,6.911 8.139,6.604 7.897,6.361 7.59,6.204 7.251,6.151 6.911,6.204 6.604,6.361 "
         style="fill:none;stroke:#0000ff;stroke-width:0.01;stroke-miterlimit:4;stroke-dasharray:none"
         id="polygon1372-8-7"
         transform="translate(85.820114,79.235337)" />
      <polygon
         points="6.361,6.604 6.204,6.911 6.151,7.251 6.204,7.59 6.361,7.897 6.604,8.139 6.911,8.297 7.251,8.351 7.59,8.297 7.897,8.139 8.139,7.897 8.297,7.59 8.351,7.251 8.297,6.911 8.139,6.604 7.897,6.361 7.59,6.204 7.251,6.151 6.911,6.204 6.604,6.361 "
         style="fill:none;stroke:#0000ff;stroke-width:0.01;stroke-miterlimit:4;stroke-dasharray:none"
         id="polygon1372-8-4"
         transform="translate(85.820114,117.23534)" />
      <polygon
         points="6.361,6.604 6.204,6.911 6.151,7.251 6.204,7.59 6.361,7.897 6.604,8.139 6.911,8.297 7.251,8.351 7.59,8.297 7.897,8.139 8.139,7.897 8.297,7.59 8.351,7.251 8.297,6.911 8.139,6.604 7.897,6.361 7.59,6.204 7.251,6.151 6.911,6.204 6.604,6.361 "
         style="fill:none;stroke:#0000ff;stroke-width:0.01;stroke-miterlimit:4;stroke-dasharray:none"
         id="polygon1372-8-3"
         transform="translate(161.82012,79.235337)" />
      <polygon
         points="6.361,6.604 6.204,6.911 6.151,7.251 6.204,7.59 6.361,7.897 6.604,8.139 6.911,8.297 7.251,8.351 7.59,8.297 7.897,8.139 8.139,7.897 8.297,7.59 8.351,7.251 8.297,6.911 8.139,6.604 7.897,6.361 7.59,6.204 7.251,6.151 6.911,6.204 6.604,6.361 "
         style="fill:none;stroke:#0000ff;stroke-width:0.01;stroke-miterlimit:4;stroke-dasharray:none"
         id="polygon1372-8-5"
         transform="translate(161.82012,117.23534)" />
      <polygon
         points="6.361,6.604 6.204,6.911 6.151,7.251 6.204,7.59 6.361,7.897 6.604,8.139 6.911,8.297 7.251,8.351 7.59,8.297 7.897,8.139 8.139,7.897 8.297,7.59 8.351,7.251 8.297,6.911 8.139,6.604 7.897,6.361 7.59,6.204 7.251,6.151 6.911,6.204 6.604,6.361 "
         style="fill:none;stroke:#0000ff;stroke-width:0.01;stroke-miterlimit:4;stroke-dasharray:none"
         id="polygon1372-8-1"
         transform="translate(218.82012,79.235337)" />
      <polygon
         points="6.361,6.604 6.204,6.911 6.151,7.251 6.204,7.59 6.361,7.897 6.604,8.139 6.911,8.297 7.251,8.351 7.59,8.297 7.897,8.139 8.139,7.897 8.297,7.59 8.351,7.251 8.297,6.911 8.139,6.604 7.897,6.361 7.59,6.204 7.251,6.151 6.911,6.204 6.604,6.361 "
         style="fill:none;stroke:#0000ff;stroke-width:0.01;stroke-miterlimit:4;stroke-dasharray:none"
         id="polygon1372-8-9"
         transform="translate(218.82012,117.23534)" />
    </g>
  </g>
</svg>
