%TF.GenerationSoftware,KiCad,Pcbnew,(6.0.6)*%
%TF.CreationDate,2022-08-30T20:37:50+01:00*%
%TF.ProjectId,RP2040_keyboard,52503230-3430-45f6-9b65-79626f617264,REV1*%
%TF.SameCoordinates,Original*%
%TF.FileFunction,Legend,Bot*%
%TF.FilePolarity,Positive*%
%FSLAX46Y46*%
G04 Gerber Fmt 4.6, Leading zero omitted, Abs format (unit mm)*
G04 Created by KiCad (PCBNEW (6.0.6)) date 2022-08-30 20:37:50*
%MOMM*%
%LPD*%
G01*
G04 APERTURE LIST*
%ADD10C,0.150000*%
%ADD11C,3.048000*%
%ADD12C,3.987800*%
%ADD13C,0.650000*%
%ADD14O,1.300000X1.900000*%
%ADD15O,1.100000X2.200000*%
%ADD16C,4.250000*%
%ADD17R,1.700000X1.700000*%
%ADD18O,1.700000X1.700000*%
%ADD19C,0.600000*%
G04 APERTURE END LIST*
D10*
X112166666Y-61357142D02*
X112214285Y-61404761D01*
X112357142Y-61452380D01*
X112452380Y-61452380D01*
X112595238Y-61404761D01*
X112690476Y-61309523D01*
X112738095Y-61214285D01*
X112785714Y-61023809D01*
X112785714Y-60880952D01*
X112738095Y-60690476D01*
X112690476Y-60595238D01*
X112595238Y-60500000D01*
X112452380Y-60452380D01*
X112357142Y-60452380D01*
X112214285Y-60500000D01*
X112166666Y-60547619D01*
X111833333Y-60452380D02*
X111214285Y-60452380D01*
X111547619Y-60833333D01*
X111404761Y-60833333D01*
X111309523Y-60880952D01*
X111261904Y-60928571D01*
X111214285Y-61023809D01*
X111214285Y-61261904D01*
X111261904Y-61357142D01*
X111309523Y-61404761D01*
X111404761Y-61452380D01*
X111690476Y-61452380D01*
X111785714Y-61404761D01*
X111833333Y-61357142D01*
X207166666Y-61357142D02*
X207214285Y-61404761D01*
X207357142Y-61452380D01*
X207452380Y-61452380D01*
X207595238Y-61404761D01*
X207690476Y-61309523D01*
X207738095Y-61214285D01*
X207785714Y-61023809D01*
X207785714Y-60880952D01*
X207738095Y-60690476D01*
X207690476Y-60595238D01*
X207595238Y-60500000D01*
X207452380Y-60452380D01*
X207357142Y-60452380D01*
X207214285Y-60500000D01*
X207166666Y-60547619D01*
X206595238Y-60880952D02*
X206690476Y-60833333D01*
X206738095Y-60785714D01*
X206785714Y-60690476D01*
X206785714Y-60642857D01*
X206738095Y-60547619D01*
X206690476Y-60500000D01*
X206595238Y-60452380D01*
X206404761Y-60452380D01*
X206309523Y-60500000D01*
X206261904Y-60547619D01*
X206214285Y-60642857D01*
X206214285Y-60690476D01*
X206261904Y-60785714D01*
X206309523Y-60833333D01*
X206404761Y-60880952D01*
X206595238Y-60880952D01*
X206690476Y-60928571D01*
X206738095Y-60976190D01*
X206785714Y-61071428D01*
X206785714Y-61261904D01*
X206738095Y-61357142D01*
X206690476Y-61404761D01*
X206595238Y-61452380D01*
X206404761Y-61452380D01*
X206309523Y-61404761D01*
X206261904Y-61357142D01*
X206214285Y-61261904D01*
X206214285Y-61071428D01*
X206261904Y-60976190D01*
X206309523Y-60928571D01*
X206404761Y-60880952D01*
X47666666Y-90952380D02*
X48000000Y-90476190D01*
X48238095Y-90952380D02*
X48238095Y-89952380D01*
X47857142Y-89952380D01*
X47761904Y-90000000D01*
X47714285Y-90047619D01*
X47666666Y-90142857D01*
X47666666Y-90285714D01*
X47714285Y-90380952D01*
X47761904Y-90428571D01*
X47857142Y-90476190D01*
X48238095Y-90476190D01*
X46714285Y-90952380D02*
X47285714Y-90952380D01*
X47000000Y-90952380D02*
X47000000Y-89952380D01*
X47095238Y-90095238D01*
X47190476Y-90190476D01*
X47285714Y-90238095D01*
X226166666Y-61357142D02*
X226214285Y-61404761D01*
X226357142Y-61452380D01*
X226452380Y-61452380D01*
X226595238Y-61404761D01*
X226690476Y-61309523D01*
X226738095Y-61214285D01*
X226785714Y-61023809D01*
X226785714Y-60880952D01*
X226738095Y-60690476D01*
X226690476Y-60595238D01*
X226595238Y-60500000D01*
X226452380Y-60452380D01*
X226357142Y-60452380D01*
X226214285Y-60500000D01*
X226166666Y-60547619D01*
X225690476Y-61452380D02*
X225500000Y-61452380D01*
X225404761Y-61404761D01*
X225357142Y-61357142D01*
X225261904Y-61214285D01*
X225214285Y-61023809D01*
X225214285Y-60642857D01*
X225261904Y-60547619D01*
X225309523Y-60500000D01*
X225404761Y-60452380D01*
X225595238Y-60452380D01*
X225690476Y-60500000D01*
X225738095Y-60547619D01*
X225785714Y-60642857D01*
X225785714Y-60880952D01*
X225738095Y-60976190D01*
X225690476Y-61023809D01*
X225595238Y-61071428D01*
X225404761Y-61071428D01*
X225309523Y-61023809D01*
X225261904Y-60976190D01*
X225214285Y-60880952D01*
X93166666Y-61357142D02*
X93214285Y-61404761D01*
X93357142Y-61452380D01*
X93452380Y-61452380D01*
X93595238Y-61404761D01*
X93690476Y-61309523D01*
X93738095Y-61214285D01*
X93785714Y-61023809D01*
X93785714Y-60880952D01*
X93738095Y-60690476D01*
X93690476Y-60595238D01*
X93595238Y-60500000D01*
X93452380Y-60452380D01*
X93357142Y-60452380D01*
X93214285Y-60500000D01*
X93166666Y-60547619D01*
X92785714Y-60547619D02*
X92738095Y-60500000D01*
X92642857Y-60452380D01*
X92404761Y-60452380D01*
X92309523Y-60500000D01*
X92261904Y-60547619D01*
X92214285Y-60642857D01*
X92214285Y-60738095D01*
X92261904Y-60880952D01*
X92833333Y-61452380D01*
X92214285Y-61452380D01*
X47666666Y-109952380D02*
X48000000Y-109476190D01*
X48238095Y-109952380D02*
X48238095Y-108952380D01*
X47857142Y-108952380D01*
X47761904Y-109000000D01*
X47714285Y-109047619D01*
X47666666Y-109142857D01*
X47666666Y-109285714D01*
X47714285Y-109380952D01*
X47761904Y-109428571D01*
X47857142Y-109476190D01*
X48238095Y-109476190D01*
X47285714Y-109047619D02*
X47238095Y-109000000D01*
X47142857Y-108952380D01*
X46904761Y-108952380D01*
X46809523Y-109000000D01*
X46761904Y-109047619D01*
X46714285Y-109142857D01*
X46714285Y-109238095D01*
X46761904Y-109380952D01*
X47333333Y-109952380D01*
X46714285Y-109952380D01*
X245642857Y-61357142D02*
X245690476Y-61404761D01*
X245833333Y-61452380D01*
X245928571Y-61452380D01*
X246071428Y-61404761D01*
X246166666Y-61309523D01*
X246214285Y-61214285D01*
X246261904Y-61023809D01*
X246261904Y-60880952D01*
X246214285Y-60690476D01*
X246166666Y-60595238D01*
X246071428Y-60500000D01*
X245928571Y-60452380D01*
X245833333Y-60452380D01*
X245690476Y-60500000D01*
X245642857Y-60547619D01*
X244690476Y-61452380D02*
X245261904Y-61452380D01*
X244976190Y-61452380D02*
X244976190Y-60452380D01*
X245071428Y-60595238D01*
X245166666Y-60690476D01*
X245261904Y-60738095D01*
X244071428Y-60452380D02*
X243976190Y-60452380D01*
X243880952Y-60500000D01*
X243833333Y-60547619D01*
X243785714Y-60642857D01*
X243738095Y-60833333D01*
X243738095Y-61071428D01*
X243785714Y-61261904D01*
X243833333Y-61357142D01*
X243880952Y-61404761D01*
X243976190Y-61452380D01*
X244071428Y-61452380D01*
X244166666Y-61404761D01*
X244214285Y-61357142D01*
X244261904Y-61261904D01*
X244309523Y-61071428D01*
X244309523Y-60833333D01*
X244261904Y-60642857D01*
X244214285Y-60547619D01*
X244166666Y-60500000D01*
X244071428Y-60452380D01*
X47666666Y-128952380D02*
X48000000Y-128476190D01*
X48238095Y-128952380D02*
X48238095Y-127952380D01*
X47857142Y-127952380D01*
X47761904Y-128000000D01*
X47714285Y-128047619D01*
X47666666Y-128142857D01*
X47666666Y-128285714D01*
X47714285Y-128380952D01*
X47761904Y-128428571D01*
X47857142Y-128476190D01*
X48238095Y-128476190D01*
X47333333Y-127952380D02*
X46714285Y-127952380D01*
X47047619Y-128333333D01*
X46904761Y-128333333D01*
X46809523Y-128380952D01*
X46761904Y-128428571D01*
X46714285Y-128523809D01*
X46714285Y-128761904D01*
X46761904Y-128857142D01*
X46809523Y-128904761D01*
X46904761Y-128952380D01*
X47190476Y-128952380D01*
X47285714Y-128904761D01*
X47333333Y-128857142D01*
X148166666Y-68357142D02*
X148214285Y-68404761D01*
X148357142Y-68452380D01*
X148452380Y-68452380D01*
X148595238Y-68404761D01*
X148690476Y-68309523D01*
X148738095Y-68214285D01*
X148785714Y-68023809D01*
X148785714Y-67880952D01*
X148738095Y-67690476D01*
X148690476Y-67595238D01*
X148595238Y-67500000D01*
X148452380Y-67452380D01*
X148357142Y-67452380D01*
X148214285Y-67500000D01*
X148166666Y-67547619D01*
X147261904Y-67452380D02*
X147738095Y-67452380D01*
X147785714Y-67928571D01*
X147738095Y-67880952D01*
X147642857Y-67833333D01*
X147404761Y-67833333D01*
X147309523Y-67880952D01*
X147261904Y-67928571D01*
X147214285Y-68023809D01*
X147214285Y-68261904D01*
X147261904Y-68357142D01*
X147309523Y-68404761D01*
X147404761Y-68452380D01*
X147642857Y-68452380D01*
X147738095Y-68404761D01*
X147785714Y-68357142D01*
X188166666Y-61357142D02*
X188214285Y-61404761D01*
X188357142Y-61452380D01*
X188452380Y-61452380D01*
X188595238Y-61404761D01*
X188690476Y-61309523D01*
X188738095Y-61214285D01*
X188785714Y-61023809D01*
X188785714Y-60880952D01*
X188738095Y-60690476D01*
X188690476Y-60595238D01*
X188595238Y-60500000D01*
X188452380Y-60452380D01*
X188357142Y-60452380D01*
X188214285Y-60500000D01*
X188166666Y-60547619D01*
X187833333Y-60452380D02*
X187166666Y-60452380D01*
X187595238Y-61452380D01*
X74166666Y-61357142D02*
X74214285Y-61404761D01*
X74357142Y-61452380D01*
X74452380Y-61452380D01*
X74595238Y-61404761D01*
X74690476Y-61309523D01*
X74738095Y-61214285D01*
X74785714Y-61023809D01*
X74785714Y-60880952D01*
X74738095Y-60690476D01*
X74690476Y-60595238D01*
X74595238Y-60500000D01*
X74452380Y-60452380D01*
X74357142Y-60452380D01*
X74214285Y-60500000D01*
X74166666Y-60547619D01*
X73214285Y-61452380D02*
X73785714Y-61452380D01*
X73500000Y-61452380D02*
X73500000Y-60452380D01*
X73595238Y-60595238D01*
X73690476Y-60690476D01*
X73785714Y-60738095D01*
X168166666Y-68357142D02*
X168214285Y-68404761D01*
X168357142Y-68452380D01*
X168452380Y-68452380D01*
X168595238Y-68404761D01*
X168690476Y-68309523D01*
X168738095Y-68214285D01*
X168785714Y-68023809D01*
X168785714Y-67880952D01*
X168738095Y-67690476D01*
X168690476Y-67595238D01*
X168595238Y-67500000D01*
X168452380Y-67452380D01*
X168357142Y-67452380D01*
X168214285Y-67500000D01*
X168166666Y-67547619D01*
X167309523Y-67452380D02*
X167500000Y-67452380D01*
X167595238Y-67500000D01*
X167642857Y-67547619D01*
X167738095Y-67690476D01*
X167785714Y-67880952D01*
X167785714Y-68261904D01*
X167738095Y-68357142D01*
X167690476Y-68404761D01*
X167595238Y-68452380D01*
X167404761Y-68452380D01*
X167309523Y-68404761D01*
X167261904Y-68357142D01*
X167214285Y-68261904D01*
X167214285Y-68023809D01*
X167261904Y-67928571D01*
X167309523Y-67880952D01*
X167404761Y-67833333D01*
X167595238Y-67833333D01*
X167690476Y-67880952D01*
X167738095Y-67928571D01*
X167785714Y-68023809D01*
X131166666Y-61357142D02*
X131214285Y-61404761D01*
X131357142Y-61452380D01*
X131452380Y-61452380D01*
X131595238Y-61404761D01*
X131690476Y-61309523D01*
X131738095Y-61214285D01*
X131785714Y-61023809D01*
X131785714Y-60880952D01*
X131738095Y-60690476D01*
X131690476Y-60595238D01*
X131595238Y-60500000D01*
X131452380Y-60452380D01*
X131357142Y-60452380D01*
X131214285Y-60500000D01*
X131166666Y-60547619D01*
X130309523Y-60785714D02*
X130309523Y-61452380D01*
X130547619Y-60404761D02*
X130785714Y-61119047D01*
X130166666Y-61119047D01*
X264642857Y-61357142D02*
X264690476Y-61404761D01*
X264833333Y-61452380D01*
X264928571Y-61452380D01*
X265071428Y-61404761D01*
X265166666Y-61309523D01*
X265214285Y-61214285D01*
X265261904Y-61023809D01*
X265261904Y-60880952D01*
X265214285Y-60690476D01*
X265166666Y-60595238D01*
X265071428Y-60500000D01*
X264928571Y-60452380D01*
X264833333Y-60452380D01*
X264690476Y-60500000D01*
X264642857Y-60547619D01*
X263690476Y-61452380D02*
X264261904Y-61452380D01*
X263976190Y-61452380D02*
X263976190Y-60452380D01*
X264071428Y-60595238D01*
X264166666Y-60690476D01*
X264261904Y-60738095D01*
X262738095Y-61452380D02*
X263309523Y-61452380D01*
X263023809Y-61452380D02*
X263023809Y-60452380D01*
X263119047Y-60595238D01*
X263214285Y-60690476D01*
X263309523Y-60738095D01*
X55166666Y-61357142D02*
X55214285Y-61404761D01*
X55357142Y-61452380D01*
X55452380Y-61452380D01*
X55595238Y-61404761D01*
X55690476Y-61309523D01*
X55738095Y-61214285D01*
X55785714Y-61023809D01*
X55785714Y-60880952D01*
X55738095Y-60690476D01*
X55690476Y-60595238D01*
X55595238Y-60500000D01*
X55452380Y-60452380D01*
X55357142Y-60452380D01*
X55214285Y-60500000D01*
X55166666Y-60547619D01*
X54547619Y-60452380D02*
X54452380Y-60452380D01*
X54357142Y-60500000D01*
X54309523Y-60547619D01*
X54261904Y-60642857D01*
X54214285Y-60833333D01*
X54214285Y-61071428D01*
X54261904Y-61261904D01*
X54309523Y-61357142D01*
X54357142Y-61404761D01*
X54452380Y-61452380D01*
X54547619Y-61452380D01*
X54642857Y-61404761D01*
X54690476Y-61357142D01*
X54738095Y-61261904D01*
X54785714Y-61071428D01*
X54785714Y-60833333D01*
X54738095Y-60642857D01*
X54690476Y-60547619D01*
X54642857Y-60500000D01*
X54547619Y-60452380D01*
X47666666Y-71952380D02*
X48000000Y-71476190D01*
X48238095Y-71952380D02*
X48238095Y-70952380D01*
X47857142Y-70952380D01*
X47761904Y-71000000D01*
X47714285Y-71047619D01*
X47666666Y-71142857D01*
X47666666Y-71285714D01*
X47714285Y-71380952D01*
X47761904Y-71428571D01*
X47857142Y-71476190D01*
X48238095Y-71476190D01*
X47047619Y-70952380D02*
X46952380Y-70952380D01*
X46857142Y-71000000D01*
X46809523Y-71047619D01*
X46761904Y-71142857D01*
X46714285Y-71333333D01*
X46714285Y-71571428D01*
X46761904Y-71761904D01*
X46809523Y-71857142D01*
X46857142Y-71904761D01*
X46952380Y-71952380D01*
X47047619Y-71952380D01*
X47142857Y-71904761D01*
X47190476Y-71857142D01*
X47238095Y-71761904D01*
X47285714Y-71571428D01*
X47285714Y-71333333D01*
X47238095Y-71142857D01*
X47190476Y-71047619D01*
X47142857Y-71000000D01*
X47047619Y-70952380D01*
%TO.C,G\u002A\u002A\u002A*%
G36*
X155904041Y-119480922D02*
G01*
X155974214Y-119491772D01*
X156039443Y-119508272D01*
X156081142Y-119523321D01*
X156140551Y-119552444D01*
X156195725Y-119588993D01*
X156245538Y-119632289D01*
X156266624Y-119654458D01*
X156303155Y-119700912D01*
X156331215Y-119749469D01*
X156351007Y-119800599D01*
X156362733Y-119854770D01*
X156366597Y-119912452D01*
X156365911Y-119937680D01*
X156358943Y-119993121D01*
X156344364Y-120044060D01*
X156322053Y-120090722D01*
X156291890Y-120133333D01*
X156253751Y-120172116D01*
X156207517Y-120207297D01*
X156195139Y-120215235D01*
X156149169Y-120240863D01*
X156096542Y-120265163D01*
X156038959Y-120287459D01*
X155978119Y-120307074D01*
X155915723Y-120323334D01*
X155879970Y-120331618D01*
X155831765Y-120343182D01*
X155790805Y-120353640D01*
X155756187Y-120363305D01*
X155727010Y-120372489D01*
X155702372Y-120381506D01*
X155681370Y-120390670D01*
X155663103Y-120400294D01*
X155646668Y-120410691D01*
X155631165Y-120422174D01*
X155625362Y-120427026D01*
X155603682Y-120451535D01*
X155589248Y-120479392D01*
X155581954Y-120509283D01*
X155581696Y-120539893D01*
X155588368Y-120569909D01*
X155601864Y-120598015D01*
X155622079Y-120622899D01*
X155648907Y-120643245D01*
X155665562Y-120651592D01*
X155700983Y-120662924D01*
X155743622Y-120669739D01*
X155793165Y-120671976D01*
X155805763Y-120671866D01*
X155844712Y-120669935D01*
X155878023Y-120665284D01*
X155908002Y-120657499D01*
X155936956Y-120646167D01*
X155970728Y-120626872D01*
X155999765Y-120600910D01*
X156022003Y-120569256D01*
X156037394Y-120531981D01*
X156045886Y-120489157D01*
X156048986Y-120461053D01*
X156399913Y-120461053D01*
X156401275Y-120489927D01*
X156401468Y-120507857D01*
X156396121Y-120555083D01*
X156382721Y-120602930D01*
X156361738Y-120650575D01*
X156333644Y-120697190D01*
X156298910Y-120741951D01*
X156258007Y-120784033D01*
X156211405Y-120822609D01*
X156164100Y-120853418D01*
X156105960Y-120882237D01*
X156042307Y-120905454D01*
X155974124Y-120922716D01*
X155902396Y-120933668D01*
X155896138Y-120934295D01*
X155841095Y-120937644D01*
X155782242Y-120937825D01*
X155722655Y-120934976D01*
X155665408Y-120929234D01*
X155613575Y-120920737D01*
X155581760Y-120913516D01*
X155515158Y-120893292D01*
X155453944Y-120867445D01*
X155398523Y-120836293D01*
X155349296Y-120800154D01*
X155306666Y-120759346D01*
X155271037Y-120714186D01*
X155242810Y-120664993D01*
X155222390Y-120612085D01*
X155221050Y-120607563D01*
X155216398Y-120590276D01*
X155213282Y-120574453D01*
X155211387Y-120557510D01*
X155210401Y-120536860D01*
X155210011Y-120509916D01*
X155209994Y-120504690D01*
X155211757Y-120457242D01*
X155217383Y-120415836D01*
X155227396Y-120378465D01*
X155242318Y-120343122D01*
X155262674Y-120307800D01*
X155279218Y-120284765D01*
X155314783Y-120246590D01*
X155358622Y-120211251D01*
X155410625Y-120178807D01*
X155470682Y-120149315D01*
X155538680Y-120122835D01*
X155614510Y-120099425D01*
X155698059Y-120079142D01*
X155721246Y-120074139D01*
X155762728Y-120064912D01*
X155797256Y-120056780D01*
X155826034Y-120049442D01*
X155850269Y-120042596D01*
X155871166Y-120035943D01*
X155876420Y-120034124D01*
X155916273Y-120017228D01*
X155947882Y-119997497D01*
X155971499Y-119974625D01*
X155987376Y-119948307D01*
X155995766Y-119918239D01*
X155996922Y-119884116D01*
X155994377Y-119864314D01*
X155983781Y-119831597D01*
X155965832Y-119803285D01*
X155940951Y-119779735D01*
X155909560Y-119761307D01*
X155872081Y-119748359D01*
X155828935Y-119741250D01*
X155802281Y-119739990D01*
X155758117Y-119743114D01*
X155717673Y-119752739D01*
X155682001Y-119768573D01*
X155652153Y-119790325D01*
X155644382Y-119797903D01*
X155621892Y-119826396D01*
X155606348Y-119858907D01*
X155596957Y-119896970D01*
X155591651Y-119930316D01*
X155407202Y-119929158D01*
X155222753Y-119927999D01*
X155221324Y-119905789D01*
X155221281Y-119905085D01*
X155221827Y-119876556D01*
X155226083Y-119843453D01*
X155233511Y-119808912D01*
X155243573Y-119776065D01*
X155251546Y-119756156D01*
X155276946Y-119708837D01*
X155309989Y-119664377D01*
X155349958Y-119623380D01*
X155396135Y-119586449D01*
X155447803Y-119554188D01*
X155504242Y-119527201D01*
X155564736Y-119506091D01*
X155612316Y-119494208D01*
X155683064Y-119482366D01*
X155756547Y-119476211D01*
X155830846Y-119475732D01*
X155904041Y-119480922D01*
G37*
G36*
X159498274Y-120046591D02*
G01*
X159498235Y-120135400D01*
X159498171Y-120221464D01*
X159498083Y-120304375D01*
X159497972Y-120383722D01*
X159497839Y-120459096D01*
X159497686Y-120530089D01*
X159497514Y-120596290D01*
X159497325Y-120657291D01*
X159497119Y-120712683D01*
X159496898Y-120762055D01*
X159496663Y-120804999D01*
X159496415Y-120841105D01*
X159496156Y-120869964D01*
X159495888Y-120891167D01*
X159495610Y-120904304D01*
X159495325Y-120908966D01*
X159493670Y-120909315D01*
X159484275Y-120909921D01*
X159467439Y-120910474D01*
X159444095Y-120910958D01*
X159415178Y-120911361D01*
X159381620Y-120911666D01*
X159344354Y-120911860D01*
X159304314Y-120911927D01*
X159116265Y-120911927D01*
X159116265Y-120156768D01*
X158909997Y-120156768D01*
X158899785Y-120156769D01*
X158848139Y-120156831D01*
X158804333Y-120157054D01*
X158767480Y-120157527D01*
X158736697Y-120158340D01*
X158711099Y-120159581D01*
X158689799Y-120161340D01*
X158671913Y-120163707D01*
X158656557Y-120166771D01*
X158642844Y-120170621D01*
X158629891Y-120175346D01*
X158616811Y-120181036D01*
X158602719Y-120187780D01*
X158578768Y-120201375D01*
X158543995Y-120229174D01*
X158514690Y-120263579D01*
X158491292Y-120304039D01*
X158474240Y-120350000D01*
X158472901Y-120355259D01*
X158470913Y-120365920D01*
X158469228Y-120379612D01*
X158467788Y-120397311D01*
X158466530Y-120419993D01*
X158465396Y-120448632D01*
X158464324Y-120484204D01*
X158463255Y-120527685D01*
X158462613Y-120553475D01*
X158460555Y-120613942D01*
X158457797Y-120666570D01*
X158454201Y-120712099D01*
X158449624Y-120751272D01*
X158443927Y-120784831D01*
X158436969Y-120813516D01*
X158428608Y-120838071D01*
X158418705Y-120859236D01*
X158407118Y-120877753D01*
X158393708Y-120894364D01*
X158377758Y-120912019D01*
X158181752Y-120910863D01*
X157985747Y-120909706D01*
X157984287Y-120896925D01*
X157984252Y-120890809D01*
X157988137Y-120880396D01*
X157998207Y-120868051D01*
X158006751Y-120858518D01*
X158024829Y-120833113D01*
X158040024Y-120802996D01*
X158052962Y-120766794D01*
X158064267Y-120723138D01*
X158064437Y-120722374D01*
X158066951Y-120709805D01*
X158069044Y-120696193D01*
X158070790Y-120680419D01*
X158072260Y-120661362D01*
X158073529Y-120637903D01*
X158074670Y-120608921D01*
X158075754Y-120573295D01*
X158076856Y-120529906D01*
X158077349Y-120509933D01*
X158078693Y-120463938D01*
X158080243Y-120425183D01*
X158082134Y-120392481D01*
X158084505Y-120364646D01*
X158087492Y-120340491D01*
X158091231Y-120318832D01*
X158095859Y-120298480D01*
X158101514Y-120278251D01*
X158108331Y-120256958D01*
X158117135Y-120232800D01*
X158141934Y-120180732D01*
X158172774Y-120135020D01*
X158210038Y-120095225D01*
X158254111Y-120060907D01*
X158305378Y-120031627D01*
X158319595Y-120024822D01*
X158338965Y-120016002D01*
X158355421Y-120009009D01*
X158366457Y-120004939D01*
X158370011Y-120003815D01*
X158379499Y-120000060D01*
X158383296Y-119997259D01*
X158381919Y-119995862D01*
X158374265Y-119990962D01*
X158361405Y-119983713D01*
X158345058Y-119975111D01*
X158338122Y-119971505D01*
X158283371Y-119938124D01*
X158234436Y-119899242D01*
X158191870Y-119855497D01*
X158156225Y-119807524D01*
X158128052Y-119755963D01*
X158107905Y-119701449D01*
X158102027Y-119677701D01*
X158094275Y-119625445D01*
X158093063Y-119595840D01*
X158475906Y-119595840D01*
X158476806Y-119626218D01*
X158479191Y-119653478D01*
X158483061Y-119674799D01*
X158483502Y-119676448D01*
X158498751Y-119719080D01*
X158519923Y-119755676D01*
X158547261Y-119786419D01*
X158581009Y-119811490D01*
X158621408Y-119831073D01*
X158668704Y-119845348D01*
X158723138Y-119854498D01*
X158724506Y-119854644D01*
X158739115Y-119855662D01*
X158761184Y-119856598D01*
X158789464Y-119857424D01*
X158822705Y-119858116D01*
X158859656Y-119858645D01*
X158899068Y-119858985D01*
X158939691Y-119859110D01*
X159116265Y-119859147D01*
X159116265Y-119312216D01*
X158906375Y-119313931D01*
X158875286Y-119314186D01*
X158828948Y-119314615D01*
X158790052Y-119315124D01*
X158757688Y-119315814D01*
X158730948Y-119316785D01*
X158708924Y-119318139D01*
X158690708Y-119319977D01*
X158675391Y-119322399D01*
X158662064Y-119325507D01*
X158649820Y-119329402D01*
X158637749Y-119334184D01*
X158624943Y-119339954D01*
X158610494Y-119346814D01*
X158581142Y-119363965D01*
X158548479Y-119391878D01*
X158520755Y-119426218D01*
X158498697Y-119466050D01*
X158483031Y-119510441D01*
X158482118Y-119514204D01*
X158478561Y-119537012D01*
X158476491Y-119565164D01*
X158475906Y-119595840D01*
X158093063Y-119595840D01*
X158091980Y-119569402D01*
X158094991Y-119511608D01*
X158103155Y-119454099D01*
X158116319Y-119398910D01*
X158134333Y-119348079D01*
X158157516Y-119301486D01*
X158192154Y-119249652D01*
X158233985Y-119202027D01*
X158282470Y-119159028D01*
X158337067Y-119121072D01*
X158397236Y-119088575D01*
X158462437Y-119061953D01*
X158532127Y-119041625D01*
X158541624Y-119039369D01*
X158556900Y-119035790D01*
X158571090Y-119032633D01*
X158584818Y-119029870D01*
X158598707Y-119027472D01*
X158613380Y-119025409D01*
X158629459Y-119023654D01*
X158647569Y-119022176D01*
X158668331Y-119020948D01*
X158692370Y-119019940D01*
X158720308Y-119019123D01*
X158752769Y-119018469D01*
X158790375Y-119017948D01*
X158833749Y-119017532D01*
X158883516Y-119017192D01*
X158940297Y-119016898D01*
X159004716Y-119016623D01*
X159077396Y-119016337D01*
X159498286Y-119014689D01*
X159498286Y-119960347D01*
X159498274Y-120046591D01*
G37*
G36*
X153300745Y-120910871D02*
G01*
X153266875Y-120911100D01*
X153230791Y-120911283D01*
X153202070Y-120911308D01*
X153179861Y-120911142D01*
X153163310Y-120910751D01*
X153151564Y-120910100D01*
X153143770Y-120909155D01*
X153139075Y-120907880D01*
X153136627Y-120906243D01*
X153135571Y-120904208D01*
X153134606Y-120899705D01*
X153132356Y-120887263D01*
X153129240Y-120868896D01*
X153125531Y-120846223D01*
X153121503Y-120820864D01*
X153118298Y-120800581D01*
X153114714Y-120778396D01*
X153111760Y-120760663D01*
X153109678Y-120748825D01*
X153108709Y-120744323D01*
X153106670Y-120746138D01*
X153100111Y-120753614D01*
X153090177Y-120765582D01*
X153078031Y-120780664D01*
X153074484Y-120785045D01*
X153046213Y-120815791D01*
X153013679Y-120845262D01*
X152979562Y-120871202D01*
X152946541Y-120891355D01*
X152943211Y-120893060D01*
X152913835Y-120905967D01*
X152880060Y-120917891D01*
X152845840Y-120927557D01*
X152815128Y-120933692D01*
X152789014Y-120936539D01*
X152739857Y-120938209D01*
X152688103Y-120935974D01*
X152637054Y-120930029D01*
X152590014Y-120920565D01*
X152569906Y-120914966D01*
X152511631Y-120892771D01*
X152457389Y-120862925D01*
X152407456Y-120825760D01*
X152362107Y-120781610D01*
X152321619Y-120730807D01*
X152286269Y-120673684D01*
X152256332Y-120610573D01*
X152232085Y-120541806D01*
X152213804Y-120467716D01*
X152203849Y-120408208D01*
X152195827Y-120332070D01*
X152192289Y-120253673D01*
X152192426Y-120240797D01*
X152577842Y-120240797D01*
X152578216Y-120280652D01*
X152579325Y-120317302D01*
X152581192Y-120348940D01*
X152583844Y-120373761D01*
X152590515Y-120412691D01*
X152603645Y-120465972D01*
X152620446Y-120511527D01*
X152641141Y-120549671D01*
X152665951Y-120580719D01*
X152695098Y-120604984D01*
X152728802Y-120622784D01*
X152767287Y-120634432D01*
X152768570Y-120634697D01*
X152794544Y-120638322D01*
X152825337Y-120640101D01*
X152857572Y-120640038D01*
X152887870Y-120638132D01*
X152912855Y-120634385D01*
X152925706Y-120631289D01*
X152971177Y-120615392D01*
X153010766Y-120593175D01*
X153044167Y-120564840D01*
X153071074Y-120530585D01*
X153083876Y-120510398D01*
X153083876Y-120213425D01*
X153083884Y-120178221D01*
X153083914Y-120123554D01*
X153083907Y-120076688D01*
X153083801Y-120036935D01*
X153083530Y-120003607D01*
X153083031Y-119976017D01*
X153082240Y-119953476D01*
X153081093Y-119935296D01*
X153079527Y-119920791D01*
X153077477Y-119909272D01*
X153074879Y-119900050D01*
X153071670Y-119892439D01*
X153067786Y-119885751D01*
X153063162Y-119879297D01*
X153057735Y-119872389D01*
X153051441Y-119864341D01*
X153034412Y-119845374D01*
X153007952Y-119822997D01*
X152978293Y-119803747D01*
X152948543Y-119789871D01*
X152922948Y-119781953D01*
X152878713Y-119773890D01*
X152833832Y-119772061D01*
X152790146Y-119776362D01*
X152749493Y-119786691D01*
X152713710Y-119802946D01*
X152687620Y-119822299D01*
X152661423Y-119851427D01*
X152638194Y-119888292D01*
X152618146Y-119932490D01*
X152601490Y-119983619D01*
X152588440Y-120041273D01*
X152586106Y-120056663D01*
X152583185Y-120085450D01*
X152580873Y-120120063D01*
X152579195Y-120158696D01*
X152578176Y-120199543D01*
X152577842Y-120240797D01*
X152192426Y-120240797D01*
X152193132Y-120174488D01*
X152198252Y-120095989D01*
X152207546Y-120019648D01*
X152220910Y-119946939D01*
X152238240Y-119879333D01*
X152259434Y-119818304D01*
X152285226Y-119760784D01*
X152320156Y-119698901D01*
X152359518Y-119644689D01*
X152403380Y-119598096D01*
X152451812Y-119559066D01*
X152504881Y-119527546D01*
X152562656Y-119503483D01*
X152625206Y-119486823D01*
X152692599Y-119477511D01*
X152741433Y-119475511D01*
X152804664Y-119479452D01*
X152863604Y-119491150D01*
X152918326Y-119510632D01*
X152968900Y-119537926D01*
X153015399Y-119573057D01*
X153057895Y-119616055D01*
X153083876Y-119646153D01*
X153083876Y-118877344D01*
X153273776Y-118878503D01*
X153463676Y-118879661D01*
X153463676Y-120909706D01*
X153300745Y-120910871D01*
G37*
G36*
X154585310Y-121453865D02*
G01*
X154585310Y-120784109D01*
X154553105Y-120816135D01*
X154547122Y-120821983D01*
X154501310Y-120860528D01*
X154452181Y-120891168D01*
X154399375Y-120914032D01*
X154342527Y-120929252D01*
X154281278Y-120936955D01*
X154215264Y-120937273D01*
X154206153Y-120936780D01*
X154148726Y-120930960D01*
X154096566Y-120920374D01*
X154047399Y-120904447D01*
X153998951Y-120882604D01*
X153964660Y-120862924D01*
X153915569Y-120826570D01*
X153870453Y-120782950D01*
X153829720Y-120732655D01*
X153793780Y-120676280D01*
X153763042Y-120614417D01*
X153737916Y-120547660D01*
X153718809Y-120476600D01*
X153714018Y-120453369D01*
X153707397Y-120414345D01*
X153702544Y-120374225D01*
X153699288Y-120331078D01*
X153697459Y-120282974D01*
X153697163Y-120254495D01*
X154080201Y-120254495D01*
X154081254Y-120285037D01*
X154083819Y-120327547D01*
X154087734Y-120364430D01*
X154093288Y-120397658D01*
X154100769Y-120429202D01*
X154110466Y-120461033D01*
X154116887Y-120479120D01*
X154136600Y-120523114D01*
X154159824Y-120559465D01*
X154187051Y-120588742D01*
X154218776Y-120611513D01*
X154255489Y-120628345D01*
X154258305Y-120629289D01*
X154279820Y-120634179D01*
X154307111Y-120637574D01*
X154337604Y-120639381D01*
X154368724Y-120639507D01*
X154397898Y-120637860D01*
X154422551Y-120634347D01*
X154457367Y-120624662D01*
X154499448Y-120605425D01*
X154536576Y-120579260D01*
X154567916Y-120546671D01*
X154585310Y-120524666D01*
X154585310Y-119902475D01*
X154564975Y-119873978D01*
X154556974Y-119863350D01*
X154525797Y-119830888D01*
X154489561Y-119805666D01*
X154448204Y-119787657D01*
X154401664Y-119776830D01*
X154349878Y-119773156D01*
X154341430Y-119773191D01*
X154311754Y-119774549D01*
X154287109Y-119778316D01*
X154264529Y-119785101D01*
X154241048Y-119795513D01*
X154236871Y-119797664D01*
X154203318Y-119820459D01*
X154173538Y-119850996D01*
X154147645Y-119888953D01*
X154125750Y-119934008D01*
X154107966Y-119985839D01*
X154094407Y-120044125D01*
X154085184Y-120108544D01*
X154080412Y-120178775D01*
X154080201Y-120254495D01*
X153697163Y-120254495D01*
X153696887Y-120227984D01*
X153697178Y-120193511D01*
X153700510Y-120112524D01*
X153707734Y-120038106D01*
X153719054Y-119969149D01*
X153734678Y-119904545D01*
X153754812Y-119843185D01*
X153779664Y-119783961D01*
X153783590Y-119775739D01*
X153807240Y-119732385D01*
X153835180Y-119689580D01*
X153866109Y-119648936D01*
X153898726Y-119612063D01*
X153931728Y-119580572D01*
X153963815Y-119556073D01*
X154010978Y-119528460D01*
X154064894Y-119504898D01*
X154121500Y-119488555D01*
X154182029Y-119479084D01*
X154247709Y-119476138D01*
X154279257Y-119477028D01*
X154333887Y-119483146D01*
X154383675Y-119495392D01*
X154429994Y-119514152D01*
X154474219Y-119539813D01*
X154494958Y-119555143D01*
X154520569Y-119576814D01*
X154546478Y-119601080D01*
X154570112Y-119625521D01*
X154588896Y-119647714D01*
X154590563Y-119649842D01*
X154596879Y-119656886D01*
X154600135Y-119658819D01*
X154600832Y-119655756D01*
X154602560Y-119645111D01*
X154605026Y-119628283D01*
X154608016Y-119606746D01*
X154611317Y-119581977D01*
X154613910Y-119562606D01*
X154617130Y-119539862D01*
X154619953Y-119521349D01*
X154622145Y-119508595D01*
X154623469Y-119503129D01*
X154623736Y-119502962D01*
X154630155Y-119502128D01*
X154644292Y-119501364D01*
X154665171Y-119500691D01*
X154691816Y-119500130D01*
X154723249Y-119499703D01*
X154758493Y-119499431D01*
X154796572Y-119499335D01*
X154967332Y-119499335D01*
X154967332Y-121453865D01*
X154585310Y-121453865D01*
G37*
G36*
X146602821Y-120046585D02*
G01*
X146602782Y-120135395D01*
X146602716Y-120221460D01*
X146602627Y-120304373D01*
X146602514Y-120383722D01*
X146602379Y-120459099D01*
X146602224Y-120530095D01*
X146602049Y-120596300D01*
X146601857Y-120657304D01*
X146601647Y-120712699D01*
X146601423Y-120762075D01*
X146601184Y-120805023D01*
X146600933Y-120841134D01*
X146600670Y-120869997D01*
X146600397Y-120891204D01*
X146600115Y-120904346D01*
X146599825Y-120909013D01*
X146598049Y-120909371D01*
X146588475Y-120909930D01*
X146571478Y-120910388D01*
X146547987Y-120910737D01*
X146518933Y-120910969D01*
X146485247Y-120911073D01*
X146447861Y-120911041D01*
X146407704Y-120910864D01*
X146218591Y-120909706D01*
X146216315Y-120223400D01*
X145987801Y-120223400D01*
X145952248Y-120223377D01*
X145898577Y-120223210D01*
X145852302Y-120222832D01*
X145812490Y-120222185D01*
X145778205Y-120221212D01*
X145748513Y-120219855D01*
X145722479Y-120218058D01*
X145699168Y-120215762D01*
X145677645Y-120212910D01*
X145656977Y-120209445D01*
X145636228Y-120205309D01*
X145614463Y-120200444D01*
X145552888Y-120183323D01*
X145483657Y-120156577D01*
X145419826Y-120123376D01*
X145361721Y-120084045D01*
X145309668Y-120038910D01*
X145263993Y-119988298D01*
X145225022Y-119932534D01*
X145193081Y-119871944D01*
X145168496Y-119806855D01*
X145151592Y-119737591D01*
X145148845Y-119718959D01*
X145145889Y-119685432D01*
X145144318Y-119647496D01*
X145144133Y-119608426D01*
X145526569Y-119608426D01*
X145526997Y-119646728D01*
X145530172Y-119682944D01*
X145536092Y-119713892D01*
X145540461Y-119728801D01*
X145559816Y-119775731D01*
X145585965Y-119817151D01*
X145618481Y-119852650D01*
X145656936Y-119881816D01*
X145700901Y-119904237D01*
X145749948Y-119919503D01*
X145756839Y-119920899D01*
X145767109Y-119922474D01*
X145779625Y-119923806D01*
X145795216Y-119924928D01*
X145814712Y-119925870D01*
X145838944Y-119926665D01*
X145868740Y-119927343D01*
X145904931Y-119927937D01*
X145948347Y-119928478D01*
X145999817Y-119928996D01*
X146216370Y-119931010D01*
X146216370Y-119312767D01*
X146004259Y-119312825D01*
X145977949Y-119312839D01*
X145932173Y-119312915D01*
X145893932Y-119313081D01*
X145862332Y-119313367D01*
X145836475Y-119313801D01*
X145815468Y-119314415D01*
X145798415Y-119315237D01*
X145784419Y-119316297D01*
X145772586Y-119317626D01*
X145762019Y-119319252D01*
X145751824Y-119321206D01*
X145730551Y-119326344D01*
X145683866Y-119343634D01*
X145642516Y-119367927D01*
X145606779Y-119398955D01*
X145576930Y-119436453D01*
X145553243Y-119480154D01*
X145535995Y-119529793D01*
X145533956Y-119538293D01*
X145528888Y-119571220D01*
X145526569Y-119608426D01*
X145144133Y-119608426D01*
X145144130Y-119607765D01*
X145145323Y-119568858D01*
X145147892Y-119533391D01*
X145151836Y-119503982D01*
X145152441Y-119500699D01*
X145169763Y-119431057D01*
X145194804Y-119365581D01*
X145227355Y-119304611D01*
X145267208Y-119248485D01*
X145314156Y-119197540D01*
X145367990Y-119152115D01*
X145381583Y-119142254D01*
X145431193Y-119110455D01*
X145483354Y-119083718D01*
X145539551Y-119061433D01*
X145601268Y-119042987D01*
X145669990Y-119027770D01*
X145677242Y-119026416D01*
X145685576Y-119024977D01*
X145694148Y-119023708D01*
X145703535Y-119022596D01*
X145714313Y-119021628D01*
X145727058Y-119020791D01*
X145742347Y-119020071D01*
X145760756Y-119019455D01*
X145782862Y-119018930D01*
X145809241Y-119018482D01*
X145840469Y-119018098D01*
X145877123Y-119017764D01*
X145919779Y-119017468D01*
X145969014Y-119017196D01*
X146025404Y-119016934D01*
X146089525Y-119016670D01*
X146161954Y-119016389D01*
X146602834Y-119014707D01*
X146602834Y-119960356D01*
X146602821Y-120046585D01*
G37*
G36*
X147857351Y-119513772D02*
G01*
X147858522Y-119517194D01*
X147862250Y-119528939D01*
X147868224Y-119548198D01*
X147876265Y-119574381D01*
X147886194Y-119606898D01*
X147897832Y-119645161D01*
X147911001Y-119688579D01*
X147925520Y-119736565D01*
X147941212Y-119788527D01*
X147957898Y-119843878D01*
X147975398Y-119902028D01*
X147993535Y-119962388D01*
X148007011Y-120007206D01*
X148024549Y-120065320D01*
X148041275Y-120120506D01*
X148057016Y-120172207D01*
X148071599Y-120219862D01*
X148084852Y-120262914D01*
X148096603Y-120300804D01*
X148106678Y-120332973D01*
X148114904Y-120358863D01*
X148121109Y-120377916D01*
X148125121Y-120389572D01*
X148126766Y-120393273D01*
X148127374Y-120392139D01*
X148129919Y-120383924D01*
X148133283Y-120370023D01*
X148136907Y-120352683D01*
X148137037Y-120352051D01*
X148139387Y-120342553D01*
X148143963Y-120325447D01*
X148150552Y-120301469D01*
X148158944Y-120271351D01*
X148168928Y-120235829D01*
X148180292Y-120195637D01*
X148192824Y-120151509D01*
X148206313Y-120104179D01*
X148220548Y-120054382D01*
X148235317Y-120002851D01*
X148250409Y-119950322D01*
X148265613Y-119897528D01*
X148280716Y-119845203D01*
X148295508Y-119794083D01*
X148309777Y-119744900D01*
X148323312Y-119698391D01*
X148335901Y-119655288D01*
X148347333Y-119616326D01*
X148357397Y-119582239D01*
X148365880Y-119553762D01*
X148372572Y-119531628D01*
X148377261Y-119516573D01*
X148379736Y-119509330D01*
X148383930Y-119499335D01*
X148588363Y-119499335D01*
X148625248Y-119499380D01*
X148664439Y-119499531D01*
X148700006Y-119499779D01*
X148731072Y-119500111D01*
X148756761Y-119500515D01*
X148776196Y-119500981D01*
X148788499Y-119501496D01*
X148792795Y-119502049D01*
X148792793Y-119502065D01*
X148791225Y-119506774D01*
X148786840Y-119519402D01*
X148779792Y-119539515D01*
X148770236Y-119566679D01*
X148758325Y-119600457D01*
X148744214Y-119640414D01*
X148728055Y-119686117D01*
X148710004Y-119737129D01*
X148690213Y-119793016D01*
X148668838Y-119853343D01*
X148646031Y-119917674D01*
X148621948Y-119985575D01*
X148596741Y-120056610D01*
X148570565Y-120130345D01*
X148543573Y-120206344D01*
X148294351Y-120907926D01*
X148322495Y-120977669D01*
X148328475Y-120992186D01*
X148349127Y-121037383D01*
X148369930Y-121074729D01*
X148391501Y-121105007D01*
X148414457Y-121129001D01*
X148439416Y-121147496D01*
X148466994Y-121161276D01*
X148467115Y-121161325D01*
X148477931Y-121165338D01*
X148488326Y-121168170D01*
X148500161Y-121170024D01*
X148515298Y-121171102D01*
X148535596Y-121171608D01*
X148562916Y-121171746D01*
X148577783Y-121171806D01*
X148599649Y-121172102D01*
X148617132Y-121172601D01*
X148628732Y-121173254D01*
X148632948Y-121174012D01*
X148633094Y-121175117D01*
X148634368Y-121183445D01*
X148636813Y-121198983D01*
X148640257Y-121220651D01*
X148644528Y-121247371D01*
X148649453Y-121278061D01*
X148654862Y-121311643D01*
X148657338Y-121327050D01*
X148662468Y-121359380D01*
X148666967Y-121388290D01*
X148670672Y-121412710D01*
X148673424Y-121431571D01*
X148675062Y-121443803D01*
X148675425Y-121448337D01*
X148674893Y-121448657D01*
X148667869Y-121450849D01*
X148654438Y-121454174D01*
X148636472Y-121458240D01*
X148615839Y-121462653D01*
X148594409Y-121467021D01*
X148574053Y-121470951D01*
X148556639Y-121474051D01*
X148544037Y-121475928D01*
X148485189Y-121479548D01*
X148424990Y-121476832D01*
X148366025Y-121468006D01*
X148310280Y-121453369D01*
X148259742Y-121433220D01*
X148248458Y-121427658D01*
X148232906Y-121419204D01*
X148219357Y-121410294D01*
X148205807Y-121399408D01*
X148190253Y-121385024D01*
X148170690Y-121365621D01*
X148155566Y-121349909D01*
X148114507Y-121301436D01*
X148078291Y-121248815D01*
X148045278Y-121189747D01*
X148043563Y-121186156D01*
X148038596Y-121174574D01*
X148031682Y-121157280D01*
X148022750Y-121134083D01*
X148011732Y-121104791D01*
X147998559Y-121069212D01*
X147983162Y-121027156D01*
X147965471Y-120978431D01*
X147945417Y-120922845D01*
X147922931Y-120860208D01*
X147897944Y-120790326D01*
X147870387Y-120713010D01*
X147840191Y-120628068D01*
X147807286Y-120535308D01*
X147771603Y-120434538D01*
X147733073Y-120325568D01*
X147725800Y-120304982D01*
X147696943Y-120223251D01*
X147668941Y-120143852D01*
X147641933Y-120067187D01*
X147616060Y-119993659D01*
X147591464Y-119923672D01*
X147568285Y-119857627D01*
X147546664Y-119795928D01*
X147526741Y-119738977D01*
X147508659Y-119687178D01*
X147492556Y-119640933D01*
X147478575Y-119600646D01*
X147466856Y-119566719D01*
X147457540Y-119539554D01*
X147450768Y-119519555D01*
X147446680Y-119507125D01*
X147445417Y-119502667D01*
X147448720Y-119502098D01*
X147460106Y-119501453D01*
X147478743Y-119500866D01*
X147503738Y-119500354D01*
X147534198Y-119499930D01*
X147569231Y-119499610D01*
X147607942Y-119499406D01*
X147649440Y-119499335D01*
X147851521Y-119499335D01*
X147857351Y-119513772D01*
G37*
G36*
X155688387Y-111584971D02*
G01*
X155728639Y-111655395D01*
X155768892Y-111725818D01*
X155804312Y-111749049D01*
X155840159Y-111773460D01*
X155923361Y-111837287D01*
X156003260Y-111908687D01*
X156079433Y-111987032D01*
X156151460Y-112071696D01*
X156218917Y-112162051D01*
X156281383Y-112257471D01*
X156338436Y-112357329D01*
X156389654Y-112460997D01*
X156434615Y-112567850D01*
X156472896Y-112677259D01*
X156504076Y-112788599D01*
X156523339Y-112875720D01*
X156539573Y-112973841D01*
X156549673Y-113071896D01*
X156553178Y-113155676D01*
X156553871Y-113172250D01*
X156552402Y-113277267D01*
X156547986Y-113348217D01*
X156533685Y-113464114D01*
X156510748Y-113579001D01*
X156479326Y-113692520D01*
X156439565Y-113804310D01*
X156391614Y-113914010D01*
X156335622Y-114021260D01*
X156271738Y-114125701D01*
X156200108Y-114226971D01*
X156120883Y-114324710D01*
X156087821Y-114362904D01*
X156075890Y-114420216D01*
X156068257Y-114455938D01*
X156058227Y-114499966D01*
X156047552Y-114543350D01*
X156035930Y-114587075D01*
X156023060Y-114632127D01*
X156008640Y-114679490D01*
X155992367Y-114730150D01*
X155973940Y-114785093D01*
X155953056Y-114845303D01*
X155940879Y-114879538D01*
X155929415Y-114911766D01*
X155902714Y-114985468D01*
X155896687Y-115001996D01*
X155882416Y-115041273D01*
X155870743Y-115073789D01*
X155861322Y-115100694D01*
X155853804Y-115123136D01*
X155847842Y-115142263D01*
X155843088Y-115159224D01*
X155839194Y-115175167D01*
X155835814Y-115191241D01*
X155832599Y-115208595D01*
X155829203Y-115228377D01*
X155805104Y-115347720D01*
X155771399Y-115471389D01*
X155729355Y-115592113D01*
X155679059Y-115709685D01*
X155620602Y-115823900D01*
X155554071Y-115934550D01*
X155479555Y-116041430D01*
X155409424Y-116129463D01*
X155328563Y-116219562D01*
X155241499Y-116306121D01*
X155149582Y-116387805D01*
X155054158Y-116463277D01*
X155007021Y-116497200D01*
X154945363Y-116538467D01*
X154883224Y-116576790D01*
X154821896Y-116611445D01*
X154762674Y-116641709D01*
X154706851Y-116666858D01*
X154655723Y-116686168D01*
X154643055Y-116690722D01*
X154630549Y-116696135D01*
X154617345Y-116703040D01*
X154602167Y-116712211D01*
X154583736Y-116724420D01*
X154560774Y-116740441D01*
X154532005Y-116761048D01*
X154480483Y-116798007D01*
X154401631Y-116853616D01*
X154337041Y-116898009D01*
X154327847Y-116904328D01*
X154258148Y-116950755D01*
X154191555Y-116993510D01*
X154127085Y-117033205D01*
X154063757Y-117070453D01*
X154000588Y-117105866D01*
X153936599Y-117140056D01*
X153870807Y-117173636D01*
X153822112Y-117197412D01*
X153770075Y-117221813D01*
X153716609Y-117245993D01*
X153663258Y-117269289D01*
X153611566Y-117291040D01*
X153563075Y-117310585D01*
X153519331Y-117327260D01*
X153481876Y-117340405D01*
X153473462Y-117343321D01*
X153463179Y-117347633D01*
X153453311Y-117353149D01*
X153442498Y-117360866D01*
X153429383Y-117371780D01*
X153412607Y-117386886D01*
X153390812Y-117407181D01*
X153352961Y-117442312D01*
X153311060Y-117480086D01*
X153271747Y-117514126D01*
X153233189Y-117546011D01*
X153193558Y-117577321D01*
X153112427Y-117637153D01*
X153001085Y-117710147D01*
X152887002Y-117774732D01*
X152770242Y-117830882D01*
X152650867Y-117878573D01*
X152528940Y-117917781D01*
X152404524Y-117948481D01*
X152277682Y-117970649D01*
X152148477Y-117984260D01*
X152143227Y-117984625D01*
X152079049Y-117987658D01*
X152009657Y-117988607D01*
X151937840Y-117987549D01*
X151866383Y-117984559D01*
X151798073Y-117979712D01*
X151735695Y-117973085D01*
X151635175Y-117957409D01*
X151510284Y-117929936D01*
X151387666Y-117893954D01*
X151267494Y-117849546D01*
X151149940Y-117796800D01*
X151035176Y-117735800D01*
X150923374Y-117666634D01*
X150814708Y-117589386D01*
X150709347Y-117504142D01*
X150607466Y-117410989D01*
X150549651Y-117354908D01*
X150469693Y-117324986D01*
X150455685Y-117319713D01*
X150344462Y-117275559D01*
X150235498Y-117228067D01*
X150127891Y-117176735D01*
X150020739Y-117121057D01*
X149913142Y-117060527D01*
X149804196Y-116994642D01*
X149693002Y-116922897D01*
X149578656Y-116844786D01*
X149576101Y-116842952D01*
X150687422Y-116842952D01*
X150687653Y-116863654D01*
X150688678Y-116880167D01*
X150691040Y-116893598D01*
X150695283Y-116906955D01*
X150701950Y-116923244D01*
X150703233Y-116926197D01*
X150729293Y-116976894D01*
X150763469Y-117029151D01*
X150805272Y-117082463D01*
X150854212Y-117136324D01*
X150909802Y-117190228D01*
X150971552Y-117243670D01*
X151038973Y-117296143D01*
X151111578Y-117347141D01*
X151147489Y-117370553D01*
X151249924Y-117431318D01*
X151353721Y-117484185D01*
X151458459Y-117529003D01*
X151563721Y-117565621D01*
X151669085Y-117593885D01*
X151774133Y-117613644D01*
X151878445Y-117624746D01*
X151934912Y-117627559D01*
X152031178Y-117627973D01*
X152123773Y-117622317D01*
X152214697Y-117610369D01*
X152305950Y-117591907D01*
X152399533Y-117566706D01*
X152449919Y-117550570D01*
X152549005Y-117513145D01*
X152647558Y-117468644D01*
X152744243Y-117417846D01*
X152837722Y-117361529D01*
X152926659Y-117300473D01*
X153009717Y-117235454D01*
X153085559Y-117167253D01*
X153114038Y-117138783D01*
X153152802Y-117096604D01*
X153185857Y-117056160D01*
X153212702Y-117018121D01*
X153232839Y-116983159D01*
X153245768Y-116951944D01*
X153250154Y-116934092D01*
X153252639Y-116898009D01*
X153247506Y-116861404D01*
X153234954Y-116826582D01*
X153232727Y-116822236D01*
X153216040Y-116796658D01*
X153192868Y-116769242D01*
X153164625Y-116741403D01*
X153132729Y-116714560D01*
X153098594Y-116690130D01*
X153092418Y-116686133D01*
X153031153Y-116650344D01*
X152961922Y-116616190D01*
X152885455Y-116583886D01*
X152802480Y-116553646D01*
X152713726Y-116525686D01*
X152619921Y-116500220D01*
X152521796Y-116477464D01*
X152420078Y-116457633D01*
X152315496Y-116440942D01*
X152208780Y-116427605D01*
X152181477Y-116424981D01*
X152130776Y-116421336D01*
X152074017Y-116418499D01*
X152012855Y-116416474D01*
X151948948Y-116415269D01*
X151883949Y-116414887D01*
X151819515Y-116415336D01*
X151757301Y-116416619D01*
X151698962Y-116418744D01*
X151646156Y-116421716D01*
X151600536Y-116425540D01*
X151591201Y-116426512D01*
X151496393Y-116438077D01*
X151404567Y-116452334D01*
X151316174Y-116469109D01*
X151231670Y-116488229D01*
X151151506Y-116509521D01*
X151076137Y-116532810D01*
X151006015Y-116557923D01*
X150941594Y-116584687D01*
X150883327Y-116612929D01*
X150831667Y-116642474D01*
X150787068Y-116673149D01*
X150749983Y-116704781D01*
X150720864Y-116737196D01*
X150700166Y-116770221D01*
X150694614Y-116782207D01*
X150690740Y-116793399D01*
X150688561Y-116805478D01*
X150687611Y-116821107D01*
X150687422Y-116842952D01*
X149576101Y-116842952D01*
X149460259Y-116759806D01*
X149442454Y-116746829D01*
X149415945Y-116728006D01*
X149394660Y-116713714D01*
X149377527Y-116703278D01*
X149363473Y-116696024D01*
X149351427Y-116691277D01*
X149297098Y-116671386D01*
X149230353Y-116641820D01*
X149160639Y-116605888D01*
X149088933Y-116564192D01*
X149016208Y-116517335D01*
X148943440Y-116465918D01*
X148871606Y-116410545D01*
X148801679Y-116351816D01*
X148778084Y-116330417D01*
X148750068Y-116303807D01*
X148719605Y-116273930D01*
X148688202Y-116242324D01*
X148657368Y-116210524D01*
X148628608Y-116180065D01*
X148603431Y-116152485D01*
X148583344Y-116129319D01*
X148506843Y-116032032D01*
X148433835Y-115926451D01*
X148369095Y-115818093D01*
X148312422Y-115706522D01*
X148263614Y-115591300D01*
X148222467Y-115471990D01*
X148188781Y-115348156D01*
X148162353Y-115219360D01*
X148161734Y-115215812D01*
X148157984Y-115195012D01*
X148154331Y-115176664D01*
X148150370Y-115159424D01*
X148145694Y-115141946D01*
X148139898Y-115122886D01*
X148132577Y-115100898D01*
X148123326Y-115074638D01*
X148111738Y-115042759D01*
X148097409Y-115003918D01*
X148069573Y-114927956D01*
X148067336Y-114921691D01*
X148544670Y-114921691D01*
X148545463Y-114981707D01*
X148545809Y-114994648D01*
X148551998Y-115102486D01*
X148564117Y-115204674D01*
X148582399Y-115302279D01*
X148607079Y-115396369D01*
X148638393Y-115488012D01*
X148676574Y-115578276D01*
X148694372Y-115614320D01*
X148730350Y-115677666D01*
X148773012Y-115743247D01*
X148821504Y-115810096D01*
X148874974Y-115877244D01*
X148932568Y-115943723D01*
X148993434Y-116008564D01*
X149056718Y-116070799D01*
X149121569Y-116129459D01*
X149187131Y-116183577D01*
X149252554Y-116232183D01*
X149287062Y-116255661D01*
X149381177Y-116313230D01*
X149477556Y-116363054D01*
X149575636Y-116404910D01*
X149674853Y-116438573D01*
X149774645Y-116463818D01*
X149874449Y-116480420D01*
X149897860Y-116483050D01*
X149979674Y-116488429D01*
X150058847Y-116487717D01*
X150134640Y-116481033D01*
X150206313Y-116468498D01*
X150273128Y-116450231D01*
X150334345Y-116426352D01*
X150389225Y-116396981D01*
X150415558Y-116378221D01*
X150447969Y-116346918D01*
X150476152Y-116308868D01*
X150500479Y-116263546D01*
X150521319Y-116210428D01*
X150522517Y-116206837D01*
X150533796Y-116169249D01*
X150542310Y-116132199D01*
X150548436Y-116093354D01*
X150552549Y-116050382D01*
X150555024Y-116000948D01*
X150555571Y-115939744D01*
X150552756Y-115876788D01*
X150546284Y-115811669D01*
X150535946Y-115741520D01*
X150526940Y-115692449D01*
X150501914Y-115584441D01*
X150469825Y-115475261D01*
X150431226Y-115366116D01*
X150386672Y-115258212D01*
X150336719Y-115152758D01*
X150281921Y-115050962D01*
X150222832Y-114954030D01*
X150160008Y-114863171D01*
X150119413Y-114811767D01*
X150649215Y-114811767D01*
X150649310Y-114857175D01*
X150650509Y-114901131D01*
X150652810Y-114941180D01*
X150656216Y-114974868D01*
X150664996Y-115030559D01*
X150687293Y-115128553D01*
X150717797Y-115223431D01*
X150756341Y-115314919D01*
X150802759Y-115402745D01*
X150856884Y-115486636D01*
X150918548Y-115566320D01*
X150987586Y-115641524D01*
X151063831Y-115711976D01*
X151147115Y-115777403D01*
X151188751Y-115806345D01*
X151280812Y-115862438D01*
X151377415Y-115911041D01*
X151448012Y-115939744D01*
X151478183Y-115952011D01*
X151582740Y-115985203D01*
X151690709Y-116010474D01*
X151801714Y-116027679D01*
X151822757Y-116029776D01*
X151853073Y-116032045D01*
X151887123Y-116033994D01*
X151922810Y-116035546D01*
X151958037Y-116036627D01*
X151990706Y-116037161D01*
X152018719Y-116037072D01*
X152039979Y-116036284D01*
X152061071Y-116034742D01*
X152173466Y-116022374D01*
X152280588Y-116003245D01*
X152383096Y-115977137D01*
X152481649Y-115943834D01*
X152540522Y-115918669D01*
X153498581Y-115918669D01*
X153499072Y-116000042D01*
X153506085Y-116076489D01*
X153512719Y-116114550D01*
X153526597Y-116168387D01*
X153544952Y-116219199D01*
X153567218Y-116265845D01*
X153592824Y-116307183D01*
X153621205Y-116342073D01*
X153651792Y-116369372D01*
X153658530Y-116374077D01*
X153688403Y-116391143D01*
X153725107Y-116407419D01*
X153767031Y-116422317D01*
X153812561Y-116435246D01*
X153860083Y-116445615D01*
X153867665Y-116446870D01*
X153893589Y-116449854D01*
X153925605Y-116452169D01*
X153961689Y-116453783D01*
X153999815Y-116454660D01*
X154037956Y-116454769D01*
X154074087Y-116454074D01*
X154106182Y-116452543D01*
X154132214Y-116450141D01*
X154179156Y-116443266D01*
X154283542Y-116421504D01*
X154386362Y-116391032D01*
X154487531Y-116351888D01*
X154586967Y-116304112D01*
X154684583Y-116247742D01*
X154780297Y-116182816D01*
X154874023Y-116109374D01*
X154882208Y-116102408D01*
X154910605Y-116077002D01*
X154942436Y-116047012D01*
X154976011Y-116014141D01*
X155009638Y-115980092D01*
X155041628Y-115946567D01*
X155070290Y-115915268D01*
X155093933Y-115887898D01*
X155095584Y-115885904D01*
X155126681Y-115847710D01*
X155152837Y-115814060D01*
X155175227Y-115783188D01*
X155195021Y-115753332D01*
X155213393Y-115722725D01*
X155231514Y-115689605D01*
X155250558Y-115652207D01*
X155288686Y-115571417D01*
X155337196Y-115453782D01*
X155376901Y-115337130D01*
X155407813Y-115221420D01*
X155429940Y-115106612D01*
X155443295Y-114992665D01*
X155447886Y-114879538D01*
X155447566Y-114840684D01*
X155444914Y-114776933D01*
X155439371Y-114718781D01*
X155430672Y-114664347D01*
X155418552Y-114611752D01*
X155402745Y-114559116D01*
X155398843Y-114547676D01*
X155376165Y-114490952D01*
X155350233Y-114441625D01*
X155320502Y-114398771D01*
X155286429Y-114361466D01*
X155271595Y-114348552D01*
X155235478Y-114324328D01*
X155192281Y-114303286D01*
X155142964Y-114285858D01*
X155088490Y-114272476D01*
X155077213Y-114270539D01*
X155045847Y-114267107D01*
X155009432Y-114265184D01*
X154970564Y-114264767D01*
X154931834Y-114265858D01*
X154895836Y-114268453D01*
X154865163Y-114272553D01*
X154782636Y-114290958D01*
X154692313Y-114319240D01*
X154601092Y-114356120D01*
X154509152Y-114401493D01*
X154416669Y-114455256D01*
X154323823Y-114517303D01*
X154230791Y-114587532D01*
X154137751Y-114665839D01*
X154044880Y-114752118D01*
X154000092Y-114796654D01*
X153958434Y-114840690D01*
X153940656Y-114859483D01*
X153887301Y-114921003D01*
X153838874Y-114982705D01*
X153794225Y-115046082D01*
X153752202Y-115112624D01*
X153711654Y-115183823D01*
X153705153Y-115195907D01*
X153660757Y-115285021D01*
X153621262Y-115376246D01*
X153586872Y-115468703D01*
X153557790Y-115561511D01*
X153534216Y-115653791D01*
X153516356Y-115744664D01*
X153504409Y-115833250D01*
X153498581Y-115918669D01*
X152540522Y-115918669D01*
X152576906Y-115903117D01*
X152669527Y-115854768D01*
X152760171Y-115798572D01*
X152799648Y-115770614D01*
X152850511Y-115730652D01*
X152901214Y-115686808D01*
X152949749Y-115640913D01*
X152994110Y-115594799D01*
X153032288Y-115550297D01*
X153071449Y-115498487D01*
X153126388Y-115414469D01*
X153173891Y-115326766D01*
X153213669Y-115236064D01*
X153245435Y-115143050D01*
X153268897Y-115048411D01*
X153283768Y-114952833D01*
X153284249Y-114948158D01*
X153286401Y-114917507D01*
X153287662Y-114880877D01*
X153288056Y-114840690D01*
X153287603Y-114799369D01*
X153286327Y-114759338D01*
X153284249Y-114723020D01*
X153281392Y-114692837D01*
X153281221Y-114691454D01*
X153264745Y-114594417D01*
X153239937Y-114499858D01*
X153207091Y-114408142D01*
X153166500Y-114319632D01*
X153118458Y-114234692D01*
X153063260Y-114153684D01*
X153001199Y-114076974D01*
X152932568Y-114004923D01*
X152857662Y-113937897D01*
X152776774Y-113876258D01*
X152690199Y-113820369D01*
X152598229Y-113770596D01*
X152501159Y-113727301D01*
X152464777Y-113713215D01*
X152376480Y-113683529D01*
X152288272Y-113660543D01*
X152198337Y-113643893D01*
X152104861Y-113633217D01*
X152006030Y-113628150D01*
X151988833Y-113627817D01*
X151902947Y-113628466D01*
X151822411Y-113633320D01*
X151745018Y-113642631D01*
X151668557Y-113656651D01*
X151590822Y-113675633D01*
X151536087Y-113691704D01*
X151435737Y-113727505D01*
X151339921Y-113770064D01*
X151248947Y-113819048D01*
X151163124Y-113874121D01*
X151082762Y-113934950D01*
X151008170Y-114001201D01*
X150939655Y-114072540D01*
X150877528Y-114148632D01*
X150822097Y-114229144D01*
X150773671Y-114313742D01*
X150732559Y-114402091D01*
X150699069Y-114493857D01*
X150673512Y-114588707D01*
X150656195Y-114686306D01*
X150655555Y-114691374D01*
X150652337Y-114726412D01*
X150650224Y-114767361D01*
X150649215Y-114811767D01*
X150119413Y-114811767D01*
X150094003Y-114779591D01*
X150088515Y-114773156D01*
X150053015Y-114733007D01*
X150012206Y-114688974D01*
X149967492Y-114642458D01*
X149920277Y-114594856D01*
X149871968Y-114547569D01*
X149823969Y-114501996D01*
X149777686Y-114459536D01*
X149734523Y-114421588D01*
X149683763Y-114379181D01*
X149599621Y-114313731D01*
X149517693Y-114256188D01*
X149438130Y-114206644D01*
X149361086Y-114165192D01*
X149286714Y-114131924D01*
X149215168Y-114106935D01*
X149154485Y-114091806D01*
X149086717Y-114082074D01*
X149021297Y-114080473D01*
X148958548Y-114086966D01*
X148898795Y-114101516D01*
X148842362Y-114124088D01*
X148789573Y-114154645D01*
X148786945Y-114156467D01*
X148757839Y-114181491D01*
X148729397Y-114214620D01*
X148701921Y-114255144D01*
X148675715Y-114302355D01*
X148651082Y-114355543D01*
X148628327Y-114413999D01*
X148607752Y-114477012D01*
X148589660Y-114543874D01*
X148574356Y-114613875D01*
X148562143Y-114686306D01*
X148558543Y-114712271D01*
X148552195Y-114765742D01*
X148547874Y-114816565D01*
X148545420Y-114867596D01*
X148544670Y-114921691D01*
X148067336Y-114921691D01*
X148042948Y-114853386D01*
X148019328Y-114784883D01*
X147998385Y-114721394D01*
X147979791Y-114661867D01*
X147963217Y-114605246D01*
X147948334Y-114550480D01*
X147934815Y-114496514D01*
X147922331Y-114442294D01*
X147917260Y-114419546D01*
X147911961Y-114396930D01*
X147907534Y-114380313D01*
X147903453Y-114368180D01*
X147899191Y-114359013D01*
X147894221Y-114351295D01*
X147888016Y-114343511D01*
X147885349Y-114340320D01*
X147874764Y-114327495D01*
X147860675Y-114310277D01*
X147844602Y-114290526D01*
X147828061Y-114270100D01*
X147759273Y-114179644D01*
X147689740Y-114075015D01*
X147628518Y-113967381D01*
X147575642Y-113856824D01*
X147531146Y-113743425D01*
X147495065Y-113627266D01*
X147467434Y-113508426D01*
X147448289Y-113386989D01*
X147446754Y-113372952D01*
X147443709Y-113333784D01*
X147441593Y-113288793D01*
X147440404Y-113240075D01*
X147440144Y-113189722D01*
X147440749Y-113144504D01*
X147870634Y-113144504D01*
X147870950Y-113190110D01*
X147871953Y-113234056D01*
X147873643Y-113274561D01*
X147876019Y-113309844D01*
X147879082Y-113338125D01*
X147891891Y-113416654D01*
X147914034Y-113517102D01*
X147942193Y-113612826D01*
X147976791Y-113705217D01*
X148018251Y-113795663D01*
X148049569Y-113854868D01*
X148091020Y-113923390D01*
X148135386Y-113985878D01*
X148183800Y-114043900D01*
X148237397Y-114099028D01*
X148244388Y-114105700D01*
X148263107Y-114123085D01*
X148277562Y-114135453D01*
X148289180Y-114143872D01*
X148299388Y-114149412D01*
X148309612Y-114153141D01*
X148321456Y-114156186D01*
X148353251Y-114159347D01*
X148384390Y-114154685D01*
X148415483Y-114141981D01*
X148447139Y-114121013D01*
X148479969Y-114091562D01*
X148491538Y-114079458D01*
X148526358Y-114036947D01*
X148560281Y-113986163D01*
X148593369Y-113926989D01*
X148625687Y-113859306D01*
X148657295Y-113782994D01*
X148688258Y-113697936D01*
X148707561Y-113639238D01*
X148742552Y-113518997D01*
X148773933Y-113391700D01*
X148801553Y-113258114D01*
X148825261Y-113119004D01*
X148844904Y-112975138D01*
X148860332Y-112827282D01*
X148861384Y-112813424D01*
X148862913Y-112784360D01*
X148864144Y-112749228D01*
X148865078Y-112709385D01*
X148865371Y-112689577D01*
X149204001Y-112689577D01*
X149204006Y-112691273D01*
X149204635Y-112744040D01*
X149206338Y-112790183D01*
X149209366Y-112831860D01*
X149213971Y-112871229D01*
X149220402Y-112910449D01*
X149228911Y-112951678D01*
X149239749Y-112997073D01*
X149263917Y-113080027D01*
X149298684Y-113171268D01*
X149340853Y-113258546D01*
X149390043Y-113341079D01*
X149445869Y-113418083D01*
X149469142Y-113445417D01*
X149498387Y-113476692D01*
X149530827Y-113509031D01*
X149564365Y-113540412D01*
X149596907Y-113568812D01*
X149626357Y-113592212D01*
X149665333Y-113619871D01*
X149746244Y-113669413D01*
X149830909Y-113711036D01*
X149919573Y-113744843D01*
X150012482Y-113770933D01*
X150109881Y-113789406D01*
X150133207Y-113792095D01*
X150164322Y-113794449D01*
X150200002Y-113796265D01*
X150238041Y-113797492D01*
X150276228Y-113798077D01*
X150312356Y-113797970D01*
X150344216Y-113797119D01*
X150369600Y-113795472D01*
X150476030Y-113780795D01*
X150581239Y-113757471D01*
X150684681Y-113725715D01*
X150785943Y-113685726D01*
X150884613Y-113637706D01*
X150980279Y-113581855D01*
X151072529Y-113518374D01*
X151160950Y-113447463D01*
X151245129Y-113369323D01*
X151287378Y-113325617D01*
X151364558Y-113236579D01*
X151434600Y-113142955D01*
X151497293Y-113045187D01*
X151552426Y-112943720D01*
X151599790Y-112838995D01*
X151639172Y-112731457D01*
X151670364Y-112621550D01*
X151693153Y-112509715D01*
X151707331Y-112396397D01*
X151709365Y-112364311D01*
X151709703Y-112351651D01*
X152227224Y-112351651D01*
X152228256Y-112421128D01*
X152232423Y-112486410D01*
X152240018Y-112550301D01*
X152251334Y-112615607D01*
X152266662Y-112685135D01*
X152267625Y-112689117D01*
X152298440Y-112797306D01*
X152337549Y-112903403D01*
X152384519Y-113006821D01*
X152438920Y-113106977D01*
X152500318Y-113203285D01*
X152568283Y-113295159D01*
X152642382Y-113382014D01*
X152722185Y-113463266D01*
X152807257Y-113538328D01*
X152897169Y-113606615D01*
X152991488Y-113667543D01*
X153076323Y-113714200D01*
X153177389Y-113760775D01*
X153281171Y-113799036D01*
X153388252Y-113829192D01*
X153499213Y-113851456D01*
X153514645Y-113853443D01*
X153540761Y-113855667D01*
X153572525Y-113857526D01*
X153608131Y-113858987D01*
X153645771Y-113860012D01*
X153683641Y-113860568D01*
X153719932Y-113860618D01*
X153752840Y-113860127D01*
X153780557Y-113859059D01*
X153801277Y-113857380D01*
X153838071Y-113852335D01*
X153932551Y-113833511D01*
X154024082Y-113806744D01*
X154112130Y-113772288D01*
X154196165Y-113730397D01*
X154275654Y-113681325D01*
X154350065Y-113625326D01*
X154418867Y-113562653D01*
X154462294Y-113516267D01*
X154520761Y-113443106D01*
X154572619Y-113364525D01*
X154617683Y-113281029D01*
X154655766Y-113193123D01*
X154686682Y-113101313D01*
X154710245Y-113006102D01*
X154726269Y-112907997D01*
X154734567Y-112807503D01*
X154734954Y-112705124D01*
X154729755Y-112621708D01*
X154729629Y-112620724D01*
X155120997Y-112620724D01*
X155121350Y-112672523D01*
X155122072Y-112705124D01*
X155122940Y-112744285D01*
X155125961Y-112812071D01*
X155130590Y-112878775D01*
X155137003Y-112947291D01*
X155145376Y-113020514D01*
X155149667Y-113054321D01*
X155164783Y-113159672D01*
X155182115Y-113262183D01*
X155201512Y-113361451D01*
X155222825Y-113457073D01*
X155245904Y-113548647D01*
X155270600Y-113635770D01*
X155296762Y-113718037D01*
X155324241Y-113795048D01*
X155352888Y-113866398D01*
X155382553Y-113931684D01*
X155413087Y-113990504D01*
X155444338Y-114042455D01*
X155476159Y-114087133D01*
X155508400Y-114124136D01*
X155540909Y-114153061D01*
X155573539Y-114173505D01*
X155579996Y-114176612D01*
X155598560Y-114184179D01*
X155615638Y-114188169D01*
X155635697Y-114189749D01*
X155652516Y-114189572D01*
X155669445Y-114187996D01*
X155681347Y-114185342D01*
X155692043Y-114180203D01*
X155712488Y-114166440D01*
X155736228Y-114146691D01*
X155762376Y-114121900D01*
X155790044Y-114093007D01*
X155818344Y-114060956D01*
X155846388Y-114026688D01*
X155873288Y-113991146D01*
X155898157Y-113955272D01*
X155950245Y-113868510D01*
X155996026Y-113775942D01*
X156034955Y-113678948D01*
X156066870Y-113578331D01*
X156091611Y-113474893D01*
X156109015Y-113369436D01*
X156118920Y-113262763D01*
X156121166Y-113155676D01*
X156115590Y-113048976D01*
X156102031Y-112943468D01*
X156100616Y-112935195D01*
X156077446Y-112826450D01*
X156046532Y-112722057D01*
X156007896Y-112622053D01*
X155961559Y-112526475D01*
X155907543Y-112435360D01*
X155845871Y-112348746D01*
X155776563Y-112266668D01*
X155699642Y-112189165D01*
X155615130Y-112116273D01*
X155593336Y-112099404D01*
X155562020Y-112076458D01*
X155528295Y-112052881D01*
X155494474Y-112030249D01*
X155462869Y-112010137D01*
X155435791Y-111994119D01*
X155425559Y-111988504D01*
X155412293Y-111982183D01*
X155400428Y-111978703D01*
X155386536Y-111977202D01*
X155367190Y-111976814D01*
X155360382Y-111976804D01*
X155342375Y-111977377D01*
X155328616Y-111979459D01*
X155315553Y-111983802D01*
X155299637Y-111991162D01*
X155286323Y-111998397D01*
X155262156Y-112016036D01*
X155240508Y-112038858D01*
X155220310Y-112068087D01*
X155200496Y-112104950D01*
X155197516Y-112111179D01*
X155178622Y-112156211D01*
X155162597Y-112205260D01*
X155149338Y-112258984D01*
X155138744Y-112318039D01*
X155130714Y-112383084D01*
X155125148Y-112454775D01*
X155121942Y-112533769D01*
X155120997Y-112620724D01*
X154729629Y-112620724D01*
X154716013Y-112514293D01*
X154694248Y-112408839D01*
X154664262Y-112304579D01*
X154625857Y-112200741D01*
X154578836Y-112096555D01*
X154546376Y-112033680D01*
X154486955Y-111932761D01*
X154421318Y-111837813D01*
X154349012Y-111748203D01*
X154269586Y-111663297D01*
X154222019Y-111617825D01*
X154134258Y-111542997D01*
X154042456Y-111475786D01*
X153946915Y-111416342D01*
X153847937Y-111364816D01*
X153745823Y-111321360D01*
X153640878Y-111286124D01*
X153533402Y-111259259D01*
X153423697Y-111240916D01*
X153386603Y-111237299D01*
X153332953Y-111234897D01*
X153275296Y-111234966D01*
X153216153Y-111237390D01*
X153158043Y-111242056D01*
X153103486Y-111248848D01*
X153055002Y-111257654D01*
X153012685Y-111267806D01*
X152920745Y-111296235D01*
X152833049Y-111332279D01*
X152749926Y-111375638D01*
X152671708Y-111426014D01*
X152598725Y-111483106D01*
X152531310Y-111546617D01*
X152469791Y-111616246D01*
X152414501Y-111691694D01*
X152365770Y-111772663D01*
X152323929Y-111858853D01*
X152289309Y-111949965D01*
X152273978Y-111998830D01*
X152257671Y-112059638D01*
X152245332Y-112118899D01*
X152236533Y-112179149D01*
X152230843Y-112242922D01*
X152227833Y-112312754D01*
X152227712Y-112320453D01*
X152227224Y-112351651D01*
X151709703Y-112351651D01*
X151710537Y-112320453D01*
X151710412Y-112272897D01*
X151709065Y-112224149D01*
X151706570Y-112176716D01*
X151703002Y-112133106D01*
X151698434Y-112095825D01*
X151681318Y-112004225D01*
X151658224Y-111917489D01*
X151628484Y-111833502D01*
X151591419Y-111750070D01*
X151576956Y-111721467D01*
X151528290Y-111637641D01*
X151473428Y-111560110D01*
X151412575Y-111489026D01*
X151345939Y-111424545D01*
X151273723Y-111366819D01*
X151196135Y-111316003D01*
X151113379Y-111272251D01*
X151025662Y-111235716D01*
X150933190Y-111206553D01*
X150836167Y-111184915D01*
X150820320Y-111182138D01*
X150801486Y-111179161D01*
X150783798Y-111176923D01*
X150765584Y-111175314D01*
X150745173Y-111174224D01*
X150720893Y-111173545D01*
X150691073Y-111173166D01*
X150654040Y-111172979D01*
X150648376Y-111172963D01*
X150608336Y-111173033D01*
X150575394Y-111173492D01*
X150547971Y-111174411D01*
X150524488Y-111175861D01*
X150503363Y-111177913D01*
X150483019Y-111180638D01*
X150471358Y-111182443D01*
X150361953Y-111204305D01*
X150255075Y-111234625D01*
X150150959Y-111273284D01*
X150049840Y-111320164D01*
X149951953Y-111375146D01*
X149857532Y-111438109D01*
X149766813Y-111508937D01*
X149680031Y-111587508D01*
X149663290Y-111604030D01*
X149583394Y-111690144D01*
X149510276Y-111781496D01*
X149444189Y-111877580D01*
X149385385Y-111977893D01*
X149334118Y-112081929D01*
X149290642Y-112189184D01*
X149255208Y-112299153D01*
X149228071Y-112411333D01*
X149209483Y-112525219D01*
X149207691Y-112544195D01*
X149206060Y-112572615D01*
X149205972Y-112575188D01*
X149204870Y-112607254D01*
X149204168Y-112646710D01*
X149204001Y-112689577D01*
X148865371Y-112689577D01*
X148865716Y-112666192D01*
X148866058Y-112621007D01*
X148866104Y-112575188D01*
X148865854Y-112530095D01*
X148865310Y-112487087D01*
X148864471Y-112447523D01*
X148863337Y-112412761D01*
X148861910Y-112384161D01*
X148860190Y-112363082D01*
X148855931Y-112327895D01*
X148844053Y-112252943D01*
X148829259Y-112185984D01*
X148811582Y-112127074D01*
X148791055Y-112076267D01*
X148767709Y-112033619D01*
X148741580Y-111999185D01*
X148712699Y-111973019D01*
X148681099Y-111955178D01*
X148646814Y-111945715D01*
X148609876Y-111944687D01*
X148609748Y-111944697D01*
X148595555Y-111946544D01*
X148581588Y-111950004D01*
X148566614Y-111955683D01*
X148549405Y-111964191D01*
X148528728Y-111976136D01*
X148503354Y-111992124D01*
X148472050Y-112012765D01*
X148431162Y-112040926D01*
X148386167Y-112074440D01*
X148343393Y-112109483D01*
X148300466Y-112148016D01*
X148255014Y-112191999D01*
X148250219Y-112196801D01*
X148176924Y-112276528D01*
X148111426Y-112360365D01*
X148053669Y-112448427D01*
X148003597Y-112540828D01*
X147961155Y-112637682D01*
X147926285Y-112739103D01*
X147898933Y-112845206D01*
X147879040Y-112956104D01*
X147876242Y-112981098D01*
X147873809Y-113015535D01*
X147872063Y-113055436D01*
X147871005Y-113099019D01*
X147870634Y-113144504D01*
X147440749Y-113144504D01*
X147440811Y-113139829D01*
X147442405Y-113092491D01*
X147444925Y-113049800D01*
X147448371Y-113013851D01*
X147467163Y-112892177D01*
X147495193Y-112765999D01*
X147531507Y-112642957D01*
X147576062Y-112523171D01*
X147628813Y-112406760D01*
X147689713Y-112293845D01*
X147758719Y-112184547D01*
X147794017Y-112134591D01*
X147851681Y-112060208D01*
X147912796Y-111989335D01*
X147976342Y-111923016D01*
X148041300Y-111862294D01*
X148106651Y-111808214D01*
X148171375Y-111761821D01*
X148222936Y-111727859D01*
X148263057Y-111658244D01*
X148303179Y-111588628D01*
X148305948Y-111513070D01*
X148724471Y-111513070D01*
X148724917Y-111537888D01*
X148726059Y-111556577D01*
X148728129Y-111570313D01*
X148731359Y-111580273D01*
X148735979Y-111587633D01*
X148742220Y-111593571D01*
X148750313Y-111599262D01*
X148751947Y-111600237D01*
X148766421Y-111605155D01*
X148785986Y-111607849D01*
X148807555Y-111608067D01*
X148828042Y-111605559D01*
X148866455Y-111595237D01*
X148912927Y-111578128D01*
X148964961Y-111554854D01*
X149022294Y-111525580D01*
X149084663Y-111490472D01*
X149151806Y-111449694D01*
X149223459Y-111403412D01*
X149299361Y-111351792D01*
X149379247Y-111294997D01*
X149462856Y-111233194D01*
X149549924Y-111166547D01*
X149640188Y-111095222D01*
X149662002Y-111077662D01*
X149750756Y-111004888D01*
X149837895Y-110931344D01*
X149922888Y-110857538D01*
X150005205Y-110783982D01*
X150084315Y-110711184D01*
X150159688Y-110639654D01*
X150230792Y-110569903D01*
X150291603Y-110508030D01*
X150770546Y-110508030D01*
X150772111Y-110562960D01*
X150781252Y-110614340D01*
X150798378Y-110663767D01*
X150823894Y-110712837D01*
X150835174Y-110730600D01*
X150874791Y-110782374D01*
X150922381Y-110831022D01*
X150977640Y-110876413D01*
X151040264Y-110918417D01*
X151109949Y-110956904D01*
X151186389Y-110991743D01*
X151269280Y-111022806D01*
X151358317Y-111049961D01*
X151453197Y-111073079D01*
X151553614Y-111092030D01*
X151659264Y-111106683D01*
X151769843Y-111116908D01*
X151789539Y-111117965D01*
X151815621Y-111118869D01*
X151846518Y-111119609D01*
X151880707Y-111120176D01*
X151916667Y-111120562D01*
X151952877Y-111120759D01*
X151987813Y-111120757D01*
X152019956Y-111120551D01*
X152047782Y-111120130D01*
X152069771Y-111119486D01*
X152084401Y-111118613D01*
X152084858Y-111118569D01*
X152095736Y-111117587D01*
X152113024Y-111116072D01*
X152134439Y-111114223D01*
X152157695Y-111112239D01*
X152194956Y-111108650D01*
X152288590Y-111096002D01*
X152382294Y-111078383D01*
X152474638Y-111056197D01*
X152564192Y-111029850D01*
X152649524Y-110999747D01*
X152729204Y-110966292D01*
X152801802Y-110929891D01*
X152804622Y-110928335D01*
X152879832Y-110883152D01*
X152946601Y-110835533D01*
X153004905Y-110785506D01*
X153054720Y-110733093D01*
X153096022Y-110678322D01*
X153128787Y-110621218D01*
X153152989Y-110561805D01*
X153158293Y-110544642D01*
X153161991Y-110529063D01*
X153164198Y-110513062D01*
X153165297Y-110493821D01*
X153165672Y-110468521D01*
X153165690Y-110463601D01*
X153165508Y-110440301D01*
X153164595Y-110422887D01*
X153162618Y-110408817D01*
X153159244Y-110395549D01*
X153154139Y-110380539D01*
X153152231Y-110375413D01*
X153129298Y-110325712D01*
X153098264Y-110275059D01*
X153059712Y-110223989D01*
X153014229Y-110173038D01*
X152962401Y-110122742D01*
X152904811Y-110073636D01*
X152862889Y-110041989D01*
X153342130Y-110041989D01*
X153342755Y-110055992D01*
X153344056Y-110065451D01*
X153352661Y-110095177D01*
X153368580Y-110129878D01*
X153391795Y-110169528D01*
X153422289Y-110214105D01*
X153460044Y-110263584D01*
X153505040Y-110317942D01*
X153557261Y-110377153D01*
X153616688Y-110441194D01*
X153638369Y-110463601D01*
X153683304Y-110510042D01*
X153725628Y-110552530D01*
X153797659Y-110622892D01*
X153871944Y-110693185D01*
X153948041Y-110763078D01*
X154025507Y-110832237D01*
X154103899Y-110900329D01*
X154182772Y-110967021D01*
X154261685Y-111031980D01*
X154340194Y-111094872D01*
X154417856Y-111155364D01*
X154494228Y-111213124D01*
X154568866Y-111267818D01*
X154641328Y-111319114D01*
X154711170Y-111366677D01*
X154777950Y-111410174D01*
X154841223Y-111449274D01*
X154900547Y-111483642D01*
X154955479Y-111512945D01*
X155005576Y-111536851D01*
X155050394Y-111555025D01*
X155089490Y-111567136D01*
X155094584Y-111568372D01*
X155129921Y-111574933D01*
X155158631Y-111576168D01*
X155181200Y-111571996D01*
X155198115Y-111562337D01*
X155209864Y-111547108D01*
X155210608Y-111545581D01*
X155212931Y-111538889D01*
X155214625Y-111529637D01*
X155215773Y-111516560D01*
X155216458Y-111498394D01*
X155216763Y-111473876D01*
X155216771Y-111441740D01*
X155214858Y-111362367D01*
X155205539Y-111243790D01*
X155188612Y-111129067D01*
X155164213Y-111018411D01*
X155132482Y-110912033D01*
X155093554Y-110810147D01*
X155047568Y-110712964D01*
X154994660Y-110620698D01*
X154934970Y-110533561D01*
X154868633Y-110451765D01*
X154795787Y-110375522D01*
X154716571Y-110305046D01*
X154631121Y-110240548D01*
X154539575Y-110182241D01*
X154442070Y-110130337D01*
X154338745Y-110085050D01*
X154289221Y-110066590D01*
X154184563Y-110034104D01*
X154075328Y-110008485D01*
X153962340Y-109989828D01*
X153846424Y-109978229D01*
X153728403Y-109973784D01*
X153609101Y-109976586D01*
X153489343Y-109986733D01*
X153482095Y-109987577D01*
X153442772Y-109992431D01*
X153411342Y-109997059D01*
X153386977Y-110001851D01*
X153368849Y-110007200D01*
X153356129Y-110013497D01*
X153347988Y-110021133D01*
X153343598Y-110030500D01*
X153342130Y-110041989D01*
X152862889Y-110041989D01*
X152842047Y-110026255D01*
X152774693Y-109981135D01*
X152703336Y-109938812D01*
X152628559Y-109899821D01*
X152559366Y-109867946D01*
X152457113Y-109827661D01*
X152354854Y-109795663D01*
X152251664Y-109771674D01*
X152146617Y-109755417D01*
X152142564Y-109754960D01*
X152110031Y-109752260D01*
X152071123Y-109750358D01*
X152028001Y-109749252D01*
X151982825Y-109748941D01*
X151937756Y-109749423D01*
X151894954Y-109750698D01*
X151856580Y-109752763D01*
X151824794Y-109755617D01*
X151737659Y-109768665D01*
X151639101Y-109790046D01*
X151541061Y-109818068D01*
X151444518Y-109852275D01*
X151350454Y-109892210D01*
X151259850Y-109937416D01*
X151173688Y-109987439D01*
X151092948Y-110041819D01*
X151058544Y-110068794D01*
X151018612Y-110100103D01*
X150951662Y-110161832D01*
X150947441Y-110166092D01*
X150912917Y-110202358D01*
X150884182Y-110235639D01*
X150859838Y-110267760D01*
X150838493Y-110300547D01*
X150818752Y-110335826D01*
X150813365Y-110346336D01*
X150794997Y-110386875D01*
X150782283Y-110424863D01*
X150774445Y-110463017D01*
X150770708Y-110504057D01*
X150770546Y-110508030D01*
X150291603Y-110508030D01*
X150297097Y-110502440D01*
X150358073Y-110437774D01*
X150413188Y-110376416D01*
X150461912Y-110318875D01*
X150503715Y-110265661D01*
X150529569Y-110229934D01*
X150557161Y-110187797D01*
X150578011Y-110150503D01*
X150592082Y-110118164D01*
X150599337Y-110090890D01*
X150599738Y-110068794D01*
X150593247Y-110051987D01*
X150579826Y-110040581D01*
X150571224Y-110037754D01*
X150554805Y-110034164D01*
X150532253Y-110030164D01*
X150504965Y-110025958D01*
X150474339Y-110021748D01*
X150441772Y-110017736D01*
X150408663Y-110014125D01*
X150376408Y-110011117D01*
X150369290Y-110010564D01*
X150338201Y-110008855D01*
X150301031Y-110007657D01*
X150259914Y-110006972D01*
X150216988Y-110006797D01*
X150174388Y-110007133D01*
X150134250Y-110007980D01*
X150098709Y-110009335D01*
X150069902Y-110011200D01*
X149965912Y-110023032D01*
X149848084Y-110043950D01*
X149734582Y-110072446D01*
X149625529Y-110108475D01*
X149521049Y-110151989D01*
X149421265Y-110202941D01*
X149326300Y-110261286D01*
X149236277Y-110326975D01*
X149219050Y-110341132D01*
X149187727Y-110368784D01*
X149154075Y-110400427D01*
X149119973Y-110434186D01*
X149087299Y-110468183D01*
X149057930Y-110500543D01*
X149033745Y-110529387D01*
X148978569Y-110604054D01*
X148920002Y-110696990D01*
X148869025Y-110794449D01*
X148825675Y-110896324D01*
X148789986Y-111002506D01*
X148761995Y-111112887D01*
X148741737Y-111227359D01*
X148729248Y-111345815D01*
X148724563Y-111468146D01*
X148724491Y-111480945D01*
X148724471Y-111513070D01*
X148305948Y-111513070D01*
X148306081Y-111509433D01*
X148307715Y-111468850D01*
X148312288Y-111383408D01*
X148318261Y-111304692D01*
X148325818Y-111231260D01*
X148335139Y-111161669D01*
X148346410Y-111094477D01*
X148359811Y-111028240D01*
X148375527Y-110961517D01*
X148395700Y-110887382D01*
X148431125Y-110779529D01*
X148472725Y-110676355D01*
X148520735Y-110577568D01*
X148575392Y-110482876D01*
X148636930Y-110391987D01*
X148705584Y-110304608D01*
X148781590Y-110220448D01*
X148865182Y-110139215D01*
X148956596Y-110060615D01*
X149056067Y-109984357D01*
X149163830Y-109910149D01*
X149280121Y-109837699D01*
X149343225Y-109800208D01*
X149287048Y-109785447D01*
X149246756Y-109774142D01*
X149188026Y-109754434D01*
X149137333Y-109732920D01*
X149094226Y-109709400D01*
X149058259Y-109683675D01*
X149027932Y-109654072D01*
X148999490Y-109616529D01*
X148976252Y-109574827D01*
X148959685Y-109531235D01*
X148952574Y-109506803D01*
X148893785Y-109487893D01*
X148889724Y-109486577D01*
X148825527Y-109462750D01*
X148769311Y-109435629D01*
X148720682Y-109404831D01*
X148679244Y-109369974D01*
X148644600Y-109330676D01*
X148616356Y-109286553D01*
X148594114Y-109237225D01*
X148577480Y-109182308D01*
X148575937Y-109176010D01*
X148571797Y-109161665D01*
X148567127Y-109152401D01*
X148560179Y-109145493D01*
X148549205Y-109138217D01*
X148547840Y-109137372D01*
X148518605Y-109118110D01*
X148486517Y-109095121D01*
X148454222Y-109070428D01*
X148424371Y-109046052D01*
X148399610Y-109024016D01*
X148373915Y-108998218D01*
X148334488Y-108950840D01*
X148303773Y-108902217D01*
X148281798Y-108852408D01*
X148268592Y-108801471D01*
X148264184Y-108749465D01*
X148264184Y-108710950D01*
X148243084Y-108695800D01*
X148242473Y-108695360D01*
X148220925Y-108678258D01*
X148197292Y-108657020D01*
X148173916Y-108633953D01*
X148153138Y-108611364D01*
X148137298Y-108591560D01*
X148119153Y-108564126D01*
X148096926Y-108521010D01*
X148082439Y-108477018D01*
X148075146Y-108430305D01*
X148074504Y-108379028D01*
X148075663Y-108357908D01*
X148077081Y-108338555D01*
X148078543Y-108323831D01*
X148079870Y-108315861D01*
X148080241Y-108311261D01*
X148077316Y-108303279D01*
X148069689Y-108291962D01*
X148056525Y-108275882D01*
X148052966Y-108271700D01*
X148010495Y-108217213D01*
X147976279Y-108163975D01*
X147950416Y-108112183D01*
X147933006Y-108062030D01*
X147924147Y-108013713D01*
X147923660Y-107986977D01*
X147927096Y-107953474D01*
X147934119Y-107919993D01*
X147944087Y-107890491D01*
X147952477Y-107870917D01*
X147933471Y-107845507D01*
X147919626Y-107826348D01*
X147887872Y-107775562D01*
X147864624Y-107726448D01*
X147849775Y-107678755D01*
X147843242Y-107632397D01*
X148136735Y-107632397D01*
X148139056Y-107639490D01*
X148144821Y-107651505D01*
X148153136Y-107666511D01*
X148178876Y-107707078D01*
X148210338Y-107748917D01*
X148246420Y-107789367D01*
X148288388Y-107829837D01*
X148337507Y-107871736D01*
X148369470Y-107898307D01*
X148398667Y-107924009D01*
X148422562Y-107946691D01*
X148440470Y-107965700D01*
X148451705Y-107980385D01*
X148461051Y-107995380D01*
X148450349Y-108003699D01*
X148442879Y-108008472D01*
X148424243Y-108016562D01*
X148401420Y-108023365D01*
X148377424Y-108028054D01*
X148355270Y-108029801D01*
X148344512Y-108029471D01*
X148317735Y-108026887D01*
X148288332Y-108022281D01*
X148260141Y-108016308D01*
X148236997Y-108009623D01*
X148231659Y-108007850D01*
X148221374Y-108005187D01*
X148216372Y-108005058D01*
X148216248Y-108005218D01*
X148217365Y-108010822D01*
X148222949Y-108022013D01*
X148232144Y-108037422D01*
X148244094Y-108055680D01*
X148257940Y-108075418D01*
X148272827Y-108095266D01*
X148272898Y-108095357D01*
X148288379Y-108114680D01*
X148304781Y-108133862D01*
X148322937Y-108153746D01*
X148343685Y-108175173D01*
X148367859Y-108198985D01*
X148396296Y-108226025D01*
X148429832Y-108257133D01*
X148469302Y-108293152D01*
X148475878Y-108299122D01*
X148499983Y-108321081D01*
X148521723Y-108340997D01*
X148540250Y-108358088D01*
X148554720Y-108371571D01*
X148564288Y-108380665D01*
X148568108Y-108384586D01*
X148568374Y-108385897D01*
X148564032Y-108390793D01*
X148553389Y-108396610D01*
X148538223Y-108402611D01*
X148520312Y-108408060D01*
X148501435Y-108412218D01*
X148481514Y-108414549D01*
X148450442Y-108415605D01*
X148413187Y-108414667D01*
X148355247Y-108411838D01*
X148399829Y-108455303D01*
X148406433Y-108461705D01*
X148478258Y-108527340D01*
X148555894Y-108591657D01*
X148636600Y-108652481D01*
X148717636Y-108707635D01*
X148723855Y-108711635D01*
X148742856Y-108724002D01*
X148755584Y-108732775D01*
X148763015Y-108738862D01*
X148766127Y-108743173D01*
X148765899Y-108746616D01*
X148763307Y-108750101D01*
X148759007Y-108753948D01*
X148746772Y-108760408D01*
X148728663Y-108765793D01*
X148703932Y-108770256D01*
X148671827Y-108773949D01*
X148631599Y-108777027D01*
X148552583Y-108782031D01*
X148575566Y-108802375D01*
X148586121Y-108811576D01*
X148616132Y-108836237D01*
X148648294Y-108860392D01*
X148683479Y-108884581D01*
X148722560Y-108909344D01*
X148766409Y-108935222D01*
X148815899Y-108962753D01*
X148871903Y-108992478D01*
X148935293Y-109024937D01*
X148958210Y-109036564D01*
X148987983Y-109051859D01*
X149014408Y-109065656D01*
X149036564Y-109077460D01*
X149053529Y-109086780D01*
X149064383Y-109093124D01*
X149068206Y-109095999D01*
X149068203Y-109096090D01*
X149064224Y-109100898D01*
X149054011Y-109108047D01*
X149039455Y-109116442D01*
X149022448Y-109124991D01*
X149004883Y-109132599D01*
X148998324Y-109134954D01*
X148984836Y-109138447D01*
X148968058Y-109141015D01*
X148946125Y-109142910D01*
X148917174Y-109144380D01*
X148852764Y-109146992D01*
X148884110Y-109167620D01*
X148898185Y-109176644D01*
X148924423Y-109192219D01*
X148952706Y-109207352D01*
X148983765Y-109222330D01*
X149018331Y-109237440D01*
X149057134Y-109252971D01*
X149100905Y-109269208D01*
X149150375Y-109286440D01*
X149206275Y-109304954D01*
X149269335Y-109325037D01*
X149340285Y-109346977D01*
X149341677Y-109347403D01*
X149361457Y-109353693D01*
X149377605Y-109359243D01*
X149388490Y-109363466D01*
X149392480Y-109365774D01*
X149390327Y-109371743D01*
X149383072Y-109382513D01*
X149372430Y-109395205D01*
X149360214Y-109407688D01*
X149348234Y-109417833D01*
X149338098Y-109424173D01*
X149321032Y-109432777D01*
X149301380Y-109441265D01*
X149281738Y-109448607D01*
X149264706Y-109453769D01*
X149252881Y-109455719D01*
X149250477Y-109455801D01*
X149245793Y-109457767D01*
X149249084Y-109462119D01*
X149259976Y-109468546D01*
X149278096Y-109476734D01*
X149279800Y-109477439D01*
X149313059Y-109490290D01*
X149346534Y-109501310D01*
X149381462Y-109510738D01*
X149419083Y-109518808D01*
X149460634Y-109525758D01*
X149507354Y-109531824D01*
X149560479Y-109537243D01*
X149621249Y-109542250D01*
X149667292Y-109545896D01*
X149709216Y-109549719D01*
X149743798Y-109553549D01*
X149771837Y-109557519D01*
X149794133Y-109561760D01*
X149811483Y-109566404D01*
X149824689Y-109571583D01*
X149834548Y-109577428D01*
X149837822Y-109579916D01*
X149840998Y-109584029D01*
X149839935Y-109589760D01*
X149834647Y-109600210D01*
X149820120Y-109622767D01*
X149795667Y-109649296D01*
X149763653Y-109674426D01*
X149723418Y-109698743D01*
X149696765Y-109713160D01*
X149827807Y-109712514D01*
X149835264Y-109712475D01*
X149869100Y-109712244D01*
X149900561Y-109711944D01*
X149928345Y-109711595D01*
X149951151Y-109711213D01*
X149967676Y-109710817D01*
X149976618Y-109710426D01*
X149976991Y-109710396D01*
X149988640Y-109709455D01*
X150006638Y-109708006D01*
X150028599Y-109706242D01*
X150052134Y-109704353D01*
X150054097Y-109704194D01*
X150108049Y-109698856D01*
X150166631Y-109691434D01*
X150226466Y-109682435D01*
X150284174Y-109672364D01*
X150336377Y-109661729D01*
X150404206Y-109645332D01*
X150506699Y-109615043D01*
X150602176Y-109579700D01*
X150690579Y-109539348D01*
X150771849Y-109494034D01*
X150845929Y-109443801D01*
X150912759Y-109388697D01*
X150972281Y-109328765D01*
X151024436Y-109264052D01*
X151069167Y-109194603D01*
X151106414Y-109120462D01*
X151136119Y-109041677D01*
X151152740Y-108989667D01*
X151114194Y-108948392D01*
X151093070Y-108926386D01*
X151063714Y-108897053D01*
X151030270Y-108864656D01*
X150994208Y-108830582D01*
X150957000Y-108796220D01*
X150920117Y-108762958D01*
X150885030Y-108732184D01*
X150815076Y-108673253D01*
X150706531Y-108586649D01*
X150589379Y-108498499D01*
X150463695Y-108408852D01*
X150329556Y-108317754D01*
X150187036Y-108225254D01*
X150036210Y-108131399D01*
X149877154Y-108036237D01*
X149709944Y-107939814D01*
X149534655Y-107842180D01*
X149351361Y-107743380D01*
X149160139Y-107643463D01*
X149159661Y-107643217D01*
X149131814Y-107628779D01*
X149106878Y-107615655D01*
X149085853Y-107604389D01*
X149069742Y-107595523D01*
X149059546Y-107589600D01*
X149056267Y-107587164D01*
X149060753Y-107588046D01*
X149072643Y-107591639D01*
X149090975Y-107597613D01*
X149114793Y-107605634D01*
X149143140Y-107615366D01*
X149175060Y-107626474D01*
X149209596Y-107638625D01*
X149245792Y-107651483D01*
X149282690Y-107664713D01*
X149319335Y-107677981D01*
X149354770Y-107690952D01*
X149388038Y-107703290D01*
X149437782Y-107722055D01*
X149651282Y-107806604D01*
X149859449Y-107895617D01*
X150061936Y-107988904D01*
X150258397Y-108086276D01*
X150448487Y-108187544D01*
X150631861Y-108292519D01*
X150808172Y-108401010D01*
X150977076Y-108512830D01*
X151138226Y-108627788D01*
X151291278Y-108745696D01*
X151339935Y-108784691D01*
X151381759Y-108762673D01*
X151436604Y-108731246D01*
X151500149Y-108687036D01*
X151555968Y-108638497D01*
X151604042Y-108585654D01*
X151644354Y-108528529D01*
X151676886Y-108467145D01*
X151701620Y-108401524D01*
X151718538Y-108331691D01*
X151719676Y-108324911D01*
X151723530Y-108291438D01*
X151725772Y-108252471D01*
X151726399Y-108210638D01*
X151726254Y-108204447D01*
X152235701Y-108204447D01*
X152235898Y-108210638D01*
X152237978Y-108276172D01*
X152247019Y-108344020D01*
X152262830Y-108407055D01*
X152269280Y-108425725D01*
X152284430Y-108462643D01*
X152302468Y-108500081D01*
X152321862Y-108534959D01*
X152341078Y-108564199D01*
X152357198Y-108585067D01*
X152403141Y-108635286D01*
X152456625Y-108682321D01*
X152516912Y-108725563D01*
X152583266Y-108764402D01*
X152622373Y-108785010D01*
X152665445Y-108750326D01*
X152755280Y-108679987D01*
X152854561Y-108606140D01*
X152959284Y-108531817D01*
X153067893Y-108458074D01*
X153178834Y-108385964D01*
X153290550Y-108316545D01*
X153401487Y-108250869D01*
X153557846Y-108163487D01*
X153748218Y-108064007D01*
X153945443Y-107968082D01*
X154148674Y-107876108D01*
X154357063Y-107788479D01*
X154569763Y-107705593D01*
X154593619Y-107696701D01*
X154630047Y-107683268D01*
X154668178Y-107669351D01*
X154706896Y-107655347D01*
X154745086Y-107641652D01*
X154781634Y-107628661D01*
X154815423Y-107616770D01*
X154845340Y-107606375D01*
X154870268Y-107597872D01*
X154889093Y-107591656D01*
X154900700Y-107588124D01*
X154902710Y-107587867D01*
X154901636Y-107589146D01*
X154896864Y-107592253D01*
X154887927Y-107597439D01*
X154874362Y-107604957D01*
X154855702Y-107615058D01*
X154831483Y-107627995D01*
X154801239Y-107644017D01*
X154764506Y-107663379D01*
X154720818Y-107686330D01*
X154669710Y-107713123D01*
X154653230Y-107721767D01*
X154465649Y-107821862D01*
X154286724Y-107920556D01*
X154116356Y-108017912D01*
X153954448Y-108113993D01*
X153800902Y-108208863D01*
X153655619Y-108302583D01*
X153518502Y-108395218D01*
X153389453Y-108486830D01*
X153268374Y-108577482D01*
X153155167Y-108667238D01*
X153049734Y-108756161D01*
X153037320Y-108767083D01*
X153011269Y-108790571D01*
X152984027Y-108815783D01*
X152956367Y-108841948D01*
X152929063Y-108868291D01*
X152902889Y-108894041D01*
X152878619Y-108918423D01*
X152857026Y-108940665D01*
X152838885Y-108959994D01*
X152824969Y-108975636D01*
X152816051Y-108986819D01*
X152812907Y-108992768D01*
X152812958Y-108994118D01*
X152815224Y-109006408D01*
X152820398Y-109024775D01*
X152827860Y-109047480D01*
X152836985Y-109072787D01*
X152847153Y-109098957D01*
X152857740Y-109124254D01*
X152868125Y-109146940D01*
X152885873Y-109181373D01*
X152929412Y-109251723D01*
X152980382Y-109317325D01*
X153038704Y-109378135D01*
X153104298Y-109434108D01*
X153177084Y-109485201D01*
X153256981Y-109531371D01*
X153343911Y-109572573D01*
X153437792Y-109608763D01*
X153538545Y-109639898D01*
X153646090Y-109665933D01*
X153760346Y-109686825D01*
X153881235Y-109702530D01*
X153890112Y-109703351D01*
X153910477Y-109704785D01*
X153936150Y-109706201D01*
X153966038Y-109707572D01*
X153999052Y-109708872D01*
X154034100Y-109710073D01*
X154070090Y-109711149D01*
X154105933Y-109712071D01*
X154140536Y-109712813D01*
X154172809Y-109713348D01*
X154201661Y-109713649D01*
X154226001Y-109713689D01*
X154244737Y-109713440D01*
X154256779Y-109712875D01*
X154261036Y-109711968D01*
X154260660Y-109711380D01*
X154254921Y-109707257D01*
X154243699Y-109700590D01*
X154228856Y-109692504D01*
X154222345Y-109688905D01*
X154199620Y-109673991D01*
X154176875Y-109655982D01*
X154156089Y-109636670D01*
X154139239Y-109617851D01*
X154128303Y-109601317D01*
X154125288Y-109595109D01*
X154121916Y-109586433D01*
X154122484Y-109581548D01*
X154126821Y-109577713D01*
X154131900Y-109574578D01*
X154145034Y-109568646D01*
X154162330Y-109563374D01*
X154184574Y-109558632D01*
X154212553Y-109554288D01*
X154247055Y-109550210D01*
X154288866Y-109546268D01*
X154338773Y-109542330D01*
X154341800Y-109542106D01*
X154372450Y-109539745D01*
X154402394Y-109537272D01*
X154429592Y-109534867D01*
X154452005Y-109532709D01*
X154467594Y-109530980D01*
X154484902Y-109528629D01*
X154534552Y-109520198D01*
X154582530Y-109509666D01*
X154627034Y-109497507D01*
X154666261Y-109484197D01*
X154698409Y-109470210D01*
X154720446Y-109459062D01*
X154688744Y-109451012D01*
X154681481Y-109449109D01*
X154654977Y-109440650D01*
X154633355Y-109430575D01*
X154613372Y-109417439D01*
X154606057Y-109411244D01*
X154595472Y-109400762D01*
X154584787Y-109388988D01*
X154575611Y-109377802D01*
X154569554Y-109369084D01*
X154568224Y-109364713D01*
X154568656Y-109364487D01*
X154575313Y-109362106D01*
X154589106Y-109357564D01*
X154608960Y-109351204D01*
X154633802Y-109343368D01*
X154662555Y-109334398D01*
X154694144Y-109324636D01*
X154756270Y-109305125D01*
X154820671Y-109283809D01*
X154877685Y-109263579D01*
X154928033Y-109244141D01*
X154972437Y-109225200D01*
X155011619Y-109206462D01*
X155046299Y-109187633D01*
X155077201Y-109168418D01*
X155109334Y-109146992D01*
X155046107Y-109144390D01*
X155037816Y-109144020D01*
X155004519Y-109141752D01*
X154979854Y-109138575D01*
X154963648Y-109134468D01*
X154950613Y-109129009D01*
X154934856Y-109121595D01*
X154919070Y-109113551D01*
X154905283Y-109105953D01*
X154895526Y-109099877D01*
X154891828Y-109096399D01*
X154891837Y-109096360D01*
X154895993Y-109093560D01*
X154907032Y-109087367D01*
X154923930Y-109078322D01*
X154945665Y-109066966D01*
X154971212Y-109053839D01*
X154999550Y-109039483D01*
X155042242Y-109017888D01*
X155089521Y-108993613D01*
X155130573Y-108972040D01*
X155166421Y-108952602D01*
X155198092Y-108934730D01*
X155226608Y-108917854D01*
X155252996Y-108901407D01*
X155278280Y-108884820D01*
X155303019Y-108867749D01*
X155327872Y-108849689D01*
X155350494Y-108832360D01*
X155370038Y-108816477D01*
X155385652Y-108802758D01*
X155396490Y-108791918D01*
X155401701Y-108784673D01*
X155400438Y-108781741D01*
X155397647Y-108781485D01*
X155386404Y-108780634D01*
X155368981Y-108779421D01*
X155347155Y-108777968D01*
X155322701Y-108776397D01*
X155290449Y-108773911D01*
X155257055Y-108769891D01*
X155231098Y-108764734D01*
X155211795Y-108758274D01*
X155198361Y-108750348D01*
X155194766Y-108747216D01*
X155193159Y-108744047D01*
X155195120Y-108740290D01*
X155201642Y-108734918D01*
X155213720Y-108726905D01*
X155232346Y-108715223D01*
X155236158Y-108712840D01*
X155317760Y-108658434D01*
X155398071Y-108598639D01*
X155474566Y-108535432D01*
X155544719Y-108470789D01*
X155604775Y-108412039D01*
X155547027Y-108414606D01*
X155536479Y-108415014D01*
X155497262Y-108415141D01*
X155464660Y-108412580D01*
X155437123Y-108407148D01*
X155413103Y-108398661D01*
X155392175Y-108389404D01*
X155409632Y-108371239D01*
X155415812Y-108365104D01*
X155428456Y-108353035D01*
X155445677Y-108336891D01*
X155466365Y-108317704D01*
X155489413Y-108296505D01*
X155513711Y-108274329D01*
X155514380Y-108273721D01*
X155558436Y-108233153D01*
X155596068Y-108197375D01*
X155627882Y-108165767D01*
X155654486Y-108137710D01*
X155676485Y-108112582D01*
X155694489Y-108089766D01*
X155699828Y-108082419D01*
X155710972Y-108066380D01*
X155722259Y-108049395D01*
X155732647Y-108033115D01*
X155741096Y-108019189D01*
X155746563Y-108009265D01*
X155748008Y-108004993D01*
X155746511Y-108005079D01*
X155738218Y-108006896D01*
X155724384Y-108010449D01*
X155706943Y-108015255D01*
X155705852Y-108015564D01*
X155684150Y-108021029D01*
X155663807Y-108024483D01*
X155641416Y-108026357D01*
X155613575Y-108027083D01*
X155594879Y-108027199D01*
X155577379Y-108026895D01*
X155564531Y-108025712D01*
X155553974Y-108023248D01*
X155543344Y-108019099D01*
X155530280Y-108012862D01*
X155523070Y-108009283D01*
X155510875Y-108002738D01*
X155504789Y-107997987D01*
X155503428Y-107993670D01*
X155505409Y-107988430D01*
X155510863Y-107979219D01*
X155524019Y-107962204D01*
X155542769Y-107942655D01*
X155567788Y-107919892D01*
X155599749Y-107893235D01*
X155607602Y-107886848D01*
X155663372Y-107838892D01*
X155711387Y-107792505D01*
X155752345Y-107746920D01*
X155786943Y-107701367D01*
X155815879Y-107655078D01*
X155830485Y-107629061D01*
X155782041Y-107632868D01*
X155760360Y-107634245D01*
X155731378Y-107635505D01*
X155700862Y-107636359D01*
X155672668Y-107636674D01*
X155646631Y-107636692D01*
X155625977Y-107636050D01*
X155612148Y-107633623D01*
X155604414Y-107628285D01*
X155602041Y-107618908D01*
X155604299Y-107604366D01*
X155610454Y-107583533D01*
X155619774Y-107555283D01*
X155622972Y-107545751D01*
X155645235Y-107487154D01*
X155671958Y-107429245D01*
X155703885Y-107370636D01*
X155741763Y-107309943D01*
X155786336Y-107245782D01*
X155793716Y-107235242D01*
X155800023Y-107225341D01*
X155802449Y-107220240D01*
X155799866Y-107219699D01*
X155789317Y-107219033D01*
X155771460Y-107218417D01*
X155747183Y-107217870D01*
X155717377Y-107217406D01*
X155682928Y-107217042D01*
X155644728Y-107216793D01*
X155603664Y-107216676D01*
X155580373Y-107216633D01*
X155511656Y-107216269D01*
X155451783Y-107215558D01*
X155400731Y-107214500D01*
X155358474Y-107213093D01*
X155324987Y-107211337D01*
X155300244Y-107209230D01*
X155284223Y-107206772D01*
X155276896Y-107203961D01*
X155276381Y-107202468D01*
X155278607Y-107197145D01*
X155285413Y-107188060D01*
X155297285Y-107174647D01*
X155314710Y-107156338D01*
X155338174Y-107132568D01*
X155345045Y-107125665D01*
X155363842Y-107106550D01*
X155379868Y-107089918D01*
X155392234Y-107076709D01*
X155400055Y-107067865D01*
X155402446Y-107064327D01*
X155399884Y-107063415D01*
X155390073Y-107061044D01*
X155374801Y-107057822D01*
X155356016Y-107054175D01*
X155331425Y-107050588D01*
X155295579Y-107047564D01*
X155255341Y-107045985D01*
X155213106Y-107045852D01*
X155171269Y-107047165D01*
X155132227Y-107049924D01*
X155098374Y-107054130D01*
X155092879Y-107055039D01*
X155052756Y-107062564D01*
X155007608Y-107072318D01*
X154960325Y-107083615D01*
X154913796Y-107095769D01*
X154870911Y-107108095D01*
X154818521Y-107124012D01*
X154804084Y-107108329D01*
X154796175Y-107098696D01*
X154790962Y-107087200D01*
X154789647Y-107072414D01*
X154789882Y-107065810D01*
X154792828Y-107049752D01*
X154799779Y-107033564D01*
X154811529Y-107015969D01*
X154828872Y-106995695D01*
X154852603Y-106971467D01*
X154858459Y-106965701D01*
X154873144Y-106950925D01*
X154884518Y-106939012D01*
X154891550Y-106931059D01*
X154893211Y-106928166D01*
X154891459Y-106928354D01*
X154882215Y-106929721D01*
X154866642Y-106932197D01*
X154846353Y-106935522D01*
X154822963Y-106939437D01*
X154783917Y-106946333D01*
X154675131Y-106968998D01*
X154571824Y-106995948D01*
X154472036Y-107027675D01*
X154414289Y-107047735D01*
X154402166Y-107034622D01*
X154390792Y-107018671D01*
X154386433Y-107000873D01*
X154389585Y-106979949D01*
X154392102Y-106973327D01*
X154397204Y-106964623D01*
X154405437Y-106953988D01*
X154417662Y-106940411D01*
X154434741Y-106922882D01*
X154457538Y-106900394D01*
X154460914Y-106897096D01*
X154479509Y-106878770D01*
X154495332Y-106862900D01*
X154507479Y-106850416D01*
X154515043Y-106842244D01*
X154517120Y-106839314D01*
X154511828Y-106840200D01*
X154499665Y-106842610D01*
X154482441Y-106846176D01*
X154461966Y-106850531D01*
X154373037Y-106872221D01*
X154290158Y-106897968D01*
X154211623Y-106928481D01*
X154135463Y-106964525D01*
X154059712Y-107006863D01*
X154011641Y-107035718D01*
X154000422Y-107025248D01*
X153987426Y-107010240D01*
X153976031Y-106986374D01*
X153972627Y-106960077D01*
X153977300Y-106932368D01*
X153990136Y-106904264D01*
X153990174Y-106904203D01*
X154001044Y-106887912D01*
X154014979Y-106869205D01*
X154028973Y-106852119D01*
X154032540Y-106847983D01*
X154042472Y-106835885D01*
X154048989Y-106827023D01*
X154050827Y-106823078D01*
X154050559Y-106822956D01*
X154044623Y-106824254D01*
X154032461Y-106828646D01*
X154015606Y-106835464D01*
X153995590Y-106844038D01*
X153973944Y-106853701D01*
X153952202Y-106863785D01*
X153931893Y-106873620D01*
X153914551Y-106882539D01*
X153909496Y-106885269D01*
X153865860Y-106910313D01*
X153822670Y-106937950D01*
X153778407Y-106969250D01*
X153731551Y-107005281D01*
X153680582Y-107047114D01*
X153672822Y-107053597D01*
X153655864Y-107067371D01*
X153641759Y-107078289D01*
X153631800Y-107085370D01*
X153627277Y-107087630D01*
X153625175Y-107086346D01*
X153617731Y-107079088D01*
X153607845Y-107067500D01*
X153597198Y-107053717D01*
X153587475Y-107039873D01*
X153580356Y-107028104D01*
X153570323Y-107002720D01*
X153566626Y-106973152D01*
X153570978Y-106941663D01*
X153583402Y-106907382D01*
X153588001Y-106896818D01*
X153591515Y-106887374D01*
X153591995Y-106883736D01*
X153591775Y-106883758D01*
X153585753Y-106886584D01*
X153574035Y-106893488D01*
X153558060Y-106903523D01*
X153539263Y-106915743D01*
X153519083Y-106929204D01*
X153498958Y-106942957D01*
X153480323Y-106956059D01*
X153464617Y-106967563D01*
X153439506Y-106987185D01*
X153399795Y-107020754D01*
X153361307Y-107056196D01*
X153325660Y-107091934D01*
X153294473Y-107126390D01*
X153269363Y-107157985D01*
X153267925Y-107159968D01*
X153261076Y-107168835D01*
X153255518Y-107172789D01*
X153249266Y-107171584D01*
X153240337Y-107164974D01*
X153226745Y-107152715D01*
X153220029Y-107146362D01*
X153209602Y-107134729D01*
X153202210Y-107122608D01*
X153197376Y-107108326D01*
X153194625Y-107090207D01*
X153193479Y-107066577D01*
X153193463Y-107035762D01*
X153194218Y-106967903D01*
X153171289Y-106986899D01*
X153154773Y-107001105D01*
X153125814Y-107027793D01*
X153092508Y-107060256D01*
X153055554Y-107097778D01*
X153015653Y-107139645D01*
X152973506Y-107185142D01*
X152929811Y-107233552D01*
X152908423Y-107257463D01*
X152885715Y-107282651D01*
X152865424Y-107304947D01*
X152848243Y-107323598D01*
X152834867Y-107337851D01*
X152825989Y-107346956D01*
X152822304Y-107350157D01*
X152815580Y-107346892D01*
X152806813Y-107335923D01*
X152797321Y-107318275D01*
X152787606Y-107295038D01*
X152778173Y-107267298D01*
X152769524Y-107236145D01*
X152765257Y-107219179D01*
X152760977Y-107202586D01*
X152757858Y-107190986D01*
X152756381Y-107186197D01*
X152754809Y-107186019D01*
X152750026Y-107189260D01*
X152741644Y-107196967D01*
X152729099Y-107209694D01*
X152711829Y-107227997D01*
X152689272Y-107252431D01*
X152654152Y-107291784D01*
X152586019Y-107374560D01*
X152522353Y-107460665D01*
X152463694Y-107549153D01*
X152410583Y-107639079D01*
X152363561Y-107729498D01*
X152323170Y-107819465D01*
X152289950Y-107908035D01*
X152264443Y-107994264D01*
X152251428Y-108053113D01*
X152240185Y-108129782D01*
X152235701Y-108204447D01*
X151726254Y-108204447D01*
X151725413Y-108168566D01*
X151722812Y-108128881D01*
X151718596Y-108094211D01*
X151714994Y-108073582D01*
X151704928Y-108025788D01*
X151692310Y-107975315D01*
X151678074Y-107925758D01*
X151663151Y-107880708D01*
X151646689Y-107837301D01*
X151607394Y-107747211D01*
X151561155Y-107656156D01*
X151508890Y-107565594D01*
X151451515Y-107476981D01*
X151389950Y-107391775D01*
X151325112Y-107311432D01*
X151257918Y-107237409D01*
X151206584Y-107184332D01*
X151194059Y-107232818D01*
X151189357Y-107250112D01*
X151178964Y-107282846D01*
X151168192Y-107310046D01*
X151157504Y-107330615D01*
X151147362Y-107343456D01*
X151140079Y-107349337D01*
X151135577Y-107349313D01*
X151130033Y-107343335D01*
X151128420Y-107341379D01*
X151115384Y-107326050D01*
X151097517Y-107305590D01*
X151075877Y-107281168D01*
X151051525Y-107253951D01*
X151025520Y-107225108D01*
X150998921Y-107195807D01*
X150972788Y-107167215D01*
X150948181Y-107140500D01*
X150926160Y-107116831D01*
X150907783Y-107097374D01*
X150894111Y-107083299D01*
X150875611Y-107065002D01*
X150853507Y-107043723D01*
X150831990Y-107023569D01*
X150812017Y-107005393D01*
X150794542Y-106990047D01*
X150780522Y-106978385D01*
X150770911Y-106971259D01*
X150766666Y-106969524D01*
X150766275Y-106972734D01*
X150766612Y-106983256D01*
X150767785Y-106999198D01*
X150769678Y-107018645D01*
X150770750Y-107029574D01*
X150772159Y-107061229D01*
X150770035Y-107087250D01*
X150764090Y-107109685D01*
X150754038Y-107130588D01*
X150749907Y-107136838D01*
X150739424Y-107149370D01*
X150727486Y-107160846D01*
X150716326Y-107169226D01*
X150708176Y-107172473D01*
X150707967Y-107172447D01*
X150703067Y-107168598D01*
X150694832Y-107159483D01*
X150684926Y-107146931D01*
X150678135Y-107138271D01*
X150659728Y-107117112D01*
X150636589Y-107092637D01*
X150610236Y-107066308D01*
X150582184Y-107039586D01*
X150553951Y-107013932D01*
X150527054Y-106990808D01*
X150503008Y-106971674D01*
X150484660Y-106958141D01*
X150462978Y-106942715D01*
X150441050Y-106927604D01*
X150420118Y-106913621D01*
X150401425Y-106901581D01*
X150386210Y-106892297D01*
X150375717Y-106886584D01*
X150371186Y-106885256D01*
X150371799Y-106888936D01*
X150375352Y-106898616D01*
X150381106Y-106911920D01*
X150384125Y-106918971D01*
X150392876Y-106948850D01*
X150395682Y-106978472D01*
X150392205Y-107005003D01*
X150390643Y-107009456D01*
X150384117Y-107022743D01*
X150374651Y-107038638D01*
X150363678Y-107055056D01*
X150352633Y-107069913D01*
X150342950Y-107081125D01*
X150336061Y-107086608D01*
X150334901Y-107086544D01*
X150327635Y-107082748D01*
X150315584Y-107074372D01*
X150300111Y-107062404D01*
X150282580Y-107047833D01*
X150267947Y-107035392D01*
X150205303Y-106985091D01*
X150144716Y-106941547D01*
X150084710Y-106903748D01*
X150023807Y-106870683D01*
X150009136Y-106863505D01*
X149988368Y-106853788D01*
X149966967Y-106844167D01*
X149946665Y-106835388D01*
X149929193Y-106828195D01*
X149916279Y-106823332D01*
X149909656Y-106821546D01*
X149910321Y-106823170D01*
X149915444Y-106830249D01*
X149924474Y-106841654D01*
X149936315Y-106855972D01*
X149956640Y-106881253D01*
X149972161Y-106903705D01*
X149982355Y-106923271D01*
X149987973Y-106941411D01*
X149989768Y-106959582D01*
X149989084Y-106974611D01*
X149985218Y-106989644D01*
X149976618Y-107005790D01*
X149970802Y-107014602D01*
X149962581Y-107025409D01*
X149956629Y-107031286D01*
X149956264Y-107031480D01*
X149950315Y-107031423D01*
X149939710Y-107027383D01*
X149923591Y-107018965D01*
X149901102Y-107005776D01*
X149900108Y-107005175D01*
X149836900Y-106969134D01*
X149775395Y-106938734D01*
X149712171Y-106912420D01*
X149643812Y-106888635D01*
X149635665Y-106886092D01*
X149613414Y-106879564D01*
X149588022Y-106872563D01*
X149560951Y-106865446D01*
X149533665Y-106858569D01*
X149507626Y-106852288D01*
X149484297Y-106846960D01*
X149465141Y-106842940D01*
X149451619Y-106840585D01*
X149445194Y-106840252D01*
X149445081Y-106840963D01*
X149449123Y-106846310D01*
X149458414Y-106855937D01*
X149471895Y-106868781D01*
X149488511Y-106883781D01*
X149520104Y-106912983D01*
X149544362Y-106938510D01*
X149561348Y-106960533D01*
X149571338Y-106979410D01*
X149574607Y-106995498D01*
X149572638Y-107011621D01*
X149565969Y-107029544D01*
X149555998Y-107042505D01*
X149555449Y-107042869D01*
X149550116Y-107043544D01*
X149540035Y-107041963D01*
X149524318Y-107037901D01*
X149502075Y-107031134D01*
X149472416Y-107021438D01*
X149464749Y-107018900D01*
X149389944Y-106996090D01*
X149310340Y-106974992D01*
X149229597Y-106956517D01*
X149151376Y-106941576D01*
X149128163Y-106937665D01*
X149105150Y-106933864D01*
X149086423Y-106930853D01*
X149073472Y-106928871D01*
X149067787Y-106928157D01*
X149067719Y-106929187D01*
X149072350Y-106934760D01*
X149081811Y-106944083D01*
X149094895Y-106955920D01*
X149105422Y-106965472D01*
X149127958Y-106988368D01*
X149147209Y-107011308D01*
X149161825Y-107032606D01*
X149170460Y-107050572D01*
X149173626Y-107067499D01*
X149170173Y-107089338D01*
X149158015Y-107109877D01*
X149145717Y-107124607D01*
X149101409Y-107111037D01*
X149043594Y-107094125D01*
X148964399Y-107073946D01*
X148890918Y-107059072D01*
X148822403Y-107049381D01*
X148758109Y-107044752D01*
X148697290Y-107045062D01*
X148682562Y-107045918D01*
X148656770Y-107048090D01*
X148630708Y-107050984D01*
X148606203Y-107054339D01*
X148585083Y-107057895D01*
X148569173Y-107061392D01*
X148560302Y-107064570D01*
X148560341Y-107065400D01*
X148564556Y-107071399D01*
X148573913Y-107082301D01*
X148587566Y-107097171D01*
X148604667Y-107115078D01*
X148624368Y-107135089D01*
X148644521Y-107155509D01*
X148664492Y-107176479D01*
X148678111Y-107191828D01*
X148685289Y-107201452D01*
X148685939Y-107205250D01*
X148680411Y-107206792D01*
X148672065Y-107208434D01*
X148661254Y-107209853D01*
X148647266Y-107211076D01*
X148629386Y-107212131D01*
X148606902Y-107213046D01*
X148579101Y-107213849D01*
X148545268Y-107214569D01*
X148504691Y-107215233D01*
X148456657Y-107215870D01*
X148400451Y-107216508D01*
X148156918Y-107219115D01*
X148182478Y-107254652D01*
X148193356Y-107269916D01*
X148233083Y-107328582D01*
X148266524Y-107383267D01*
X148294321Y-107435071D01*
X148317117Y-107485095D01*
X148324629Y-107503939D01*
X148333602Y-107528022D01*
X148342245Y-107552678D01*
X148349978Y-107576135D01*
X148356220Y-107596625D01*
X148360391Y-107612378D01*
X148361910Y-107621626D01*
X148361340Y-107624512D01*
X148353955Y-107631101D01*
X148338219Y-107635698D01*
X148314364Y-107638284D01*
X148282619Y-107638843D01*
X148243212Y-107637357D01*
X148196374Y-107633811D01*
X148193234Y-107633531D01*
X148172059Y-107631889D01*
X148154442Y-107630941D01*
X148142144Y-107630758D01*
X148136923Y-107631411D01*
X148136735Y-107632397D01*
X147843242Y-107632397D01*
X147843219Y-107632232D01*
X147842845Y-107610839D01*
X147845526Y-107579681D01*
X147852572Y-107548658D01*
X147864491Y-107516196D01*
X147881790Y-107480719D01*
X147904978Y-107440651D01*
X147927546Y-107403850D01*
X147911468Y-107366415D01*
X147902874Y-107345612D01*
X147890353Y-107310025D01*
X147882190Y-107276881D01*
X147877722Y-107243146D01*
X147876284Y-107205789D01*
X147876408Y-107183194D01*
X147877275Y-107164236D01*
X147879276Y-107148760D01*
X147882790Y-107133939D01*
X147888195Y-107116947D01*
X147893953Y-107101708D01*
X147913835Y-107062757D01*
X147939265Y-107027304D01*
X147968512Y-106997918D01*
X147992026Y-106980477D01*
X148034899Y-106956943D01*
X148083421Y-106938983D01*
X148136612Y-106926862D01*
X148193491Y-106920843D01*
X148253078Y-106921192D01*
X148301942Y-106924111D01*
X148321154Y-106899896D01*
X148332410Y-106886523D01*
X148370489Y-106850288D01*
X148415595Y-106818912D01*
X148467265Y-106792643D01*
X148525040Y-106771728D01*
X148588458Y-106756414D01*
X148601865Y-106754150D01*
X148620301Y-106751873D01*
X148641540Y-106750224D01*
X148667102Y-106749118D01*
X148698505Y-106748471D01*
X148737269Y-106748200D01*
X148843879Y-106747924D01*
X148873377Y-106718982D01*
X148889631Y-106704059D01*
X148920122Y-106681585D01*
X148953127Y-106664581D01*
X148990076Y-106652512D01*
X149032401Y-106644842D01*
X149081532Y-106641034D01*
X149107285Y-106640452D01*
X149134027Y-106640573D01*
X149158218Y-106641356D01*
X149176700Y-106642743D01*
X149211900Y-106646777D01*
X149241111Y-106624586D01*
X149244950Y-106621728D01*
X149276826Y-106601286D01*
X149313260Y-106582530D01*
X149350756Y-106567104D01*
X149385817Y-106556649D01*
X149410901Y-106552371D01*
X149447552Y-106549452D01*
X149487220Y-106549238D01*
X149526878Y-106551723D01*
X149563502Y-106556904D01*
X149580354Y-106560564D01*
X149605459Y-106566897D01*
X149632490Y-106574437D01*
X149657917Y-106582240D01*
X149712354Y-106599923D01*
X149746650Y-106577408D01*
X149749513Y-106575559D01*
X149771232Y-106562814D01*
X149795151Y-106550454D01*
X149816593Y-106540920D01*
X149828627Y-106536383D01*
X149844587Y-106531380D01*
X149860401Y-106528171D01*
X149879080Y-106526201D01*
X149903632Y-106524917D01*
X149910270Y-106524672D01*
X149934708Y-106524297D01*
X149954262Y-106525239D01*
X149972140Y-106527759D01*
X149991549Y-106532123D01*
X149998714Y-106533974D01*
X150010032Y-106537132D01*
X150021820Y-106540813D01*
X150035182Y-106545435D01*
X150051220Y-106551412D01*
X150071039Y-106559160D01*
X150095741Y-106569095D01*
X150126430Y-106581634D01*
X150164209Y-106597191D01*
X150214095Y-106617778D01*
X150259715Y-106605959D01*
X150271443Y-106603084D01*
X150313345Y-106595579D01*
X150359161Y-106591772D01*
X150371297Y-106591292D01*
X150394761Y-106590914D01*
X150415622Y-106591757D01*
X150435170Y-106594221D01*
X150454694Y-106598703D01*
X150475483Y-106605602D01*
X150498827Y-106615318D01*
X150526015Y-106628249D01*
X150558335Y-106644794D01*
X150597079Y-106665351D01*
X150648949Y-106693127D01*
X150699247Y-106685721D01*
X150728459Y-106682383D01*
X150768293Y-106680432D01*
X150807594Y-106681142D01*
X150843694Y-106684444D01*
X150873925Y-106690269D01*
X150875820Y-106690786D01*
X150906535Y-106701443D01*
X150939828Y-106716526D01*
X150972222Y-106734306D01*
X151000238Y-106753054D01*
X151009760Y-106760779D01*
X151026074Y-106775139D01*
X151045556Y-106793146D01*
X151066537Y-106813254D01*
X151087349Y-106833913D01*
X151145873Y-106893152D01*
X151224551Y-106892313D01*
X151303229Y-106891475D01*
X151337165Y-106912972D01*
X151375297Y-106938312D01*
X151451588Y-106996327D01*
X151525287Y-107062232D01*
X151596035Y-107135521D01*
X151663472Y-107215688D01*
X151727235Y-107302226D01*
X151786965Y-107394631D01*
X151842301Y-107492395D01*
X151892883Y-107595012D01*
X151938350Y-107701977D01*
X151978341Y-107812783D01*
X151997009Y-107869371D01*
X152018702Y-107804455D01*
X152056015Y-107701543D01*
X152102296Y-107592512D01*
X152153780Y-107488187D01*
X152210135Y-107389045D01*
X152271026Y-107295560D01*
X152336120Y-107208211D01*
X152405083Y-107127472D01*
X152477581Y-107053819D01*
X152553281Y-106987730D01*
X152631849Y-106929679D01*
X152688444Y-106891516D01*
X152766603Y-106892309D01*
X152844762Y-106893103D01*
X152912124Y-106827292D01*
X152916275Y-106823249D01*
X152955333Y-106786657D01*
X152990690Y-106756697D01*
X153023553Y-106732737D01*
X153055128Y-106714148D01*
X153086624Y-106700301D01*
X153119248Y-106690565D01*
X153154207Y-106684310D01*
X153192708Y-106680907D01*
X153211064Y-106680215D01*
X153250749Y-106681147D01*
X153292463Y-106685790D01*
X153343355Y-106693301D01*
X153376863Y-106676060D01*
X153391989Y-106668236D01*
X153414038Y-106656758D01*
X153438214Y-106644114D01*
X153461459Y-106631900D01*
X153471975Y-106626452D01*
X153505339Y-106610885D01*
X153535474Y-106600255D01*
X153565129Y-106593921D01*
X153597048Y-106591242D01*
X153633981Y-106591574D01*
X153657014Y-106592936D01*
X153694861Y-106597677D01*
X153732541Y-106606030D01*
X153779300Y-106618401D01*
X153872467Y-106579743D01*
X153881563Y-106575998D01*
X153910984Y-106564240D01*
X153939458Y-106553353D01*
X153965183Y-106543999D01*
X153986355Y-106536840D01*
X154001172Y-106532536D01*
X154024930Y-106528111D01*
X154055718Y-106524984D01*
X154087269Y-106524026D01*
X154116479Y-106525318D01*
X154140242Y-106528941D01*
X154143541Y-106529791D01*
X154164429Y-106536819D01*
X154189207Y-106547150D01*
X154214943Y-106559405D01*
X154238707Y-106572205D01*
X154257568Y-106584169D01*
X154279723Y-106600086D01*
X154328394Y-106584245D01*
X154359675Y-106574521D01*
X154403869Y-106562846D01*
X154444554Y-106555071D01*
X154484216Y-106550757D01*
X154525341Y-106549464D01*
X154557295Y-106550526D01*
X154609888Y-106557556D01*
X154658360Y-106571560D01*
X154704108Y-106592992D01*
X154748526Y-106622309D01*
X154780700Y-106646618D01*
X154815158Y-106642681D01*
X154830970Y-106641351D01*
X154858705Y-106640421D01*
X154889738Y-106640604D01*
X154921634Y-106641798D01*
X154951964Y-106643899D01*
X154978294Y-106646804D01*
X154998191Y-106650412D01*
X155003148Y-106651683D01*
X155044643Y-106666512D01*
X155082572Y-106688315D01*
X155118635Y-106718045D01*
X155152223Y-106750049D01*
X155229688Y-106747457D01*
X155267476Y-106746766D01*
X155338931Y-106749141D01*
X155403875Y-106756727D01*
X155462893Y-106769706D01*
X155516570Y-106788263D01*
X155565493Y-106812580D01*
X155610247Y-106842840D01*
X155651417Y-106879225D01*
X155693617Y-106921357D01*
X155769133Y-106921862D01*
X155798535Y-106922338D01*
X155832674Y-106924022D01*
X155861828Y-106927226D01*
X155888225Y-106932307D01*
X155914090Y-106939620D01*
X155941649Y-106949525D01*
X155965897Y-106960168D01*
X156007729Y-106985251D01*
X156043805Y-107016231D01*
X156073476Y-107052385D01*
X156096089Y-107092991D01*
X156110994Y-107137328D01*
X156117108Y-107178421D01*
X156117168Y-107225387D01*
X156110947Y-107274245D01*
X156098702Y-107323021D01*
X156080690Y-107369744D01*
X156064945Y-107403822D01*
X156084166Y-107433627D01*
X156098378Y-107456779D01*
X156117068Y-107491094D01*
X156132257Y-107523851D01*
X156142711Y-107552539D01*
X156145569Y-107564053D01*
X156149578Y-107593668D01*
X156150503Y-107626500D01*
X156150332Y-107629061D01*
X156148336Y-107659034D01*
X156143066Y-107687758D01*
X156138286Y-107703224D01*
X156125742Y-107734467D01*
X156109117Y-107768319D01*
X156089677Y-107802293D01*
X156068689Y-107833899D01*
X156041784Y-107871208D01*
X156053695Y-107902752D01*
X156062811Y-107935010D01*
X156067993Y-107974240D01*
X156068055Y-108014547D01*
X156062795Y-108052575D01*
X156053656Y-108084647D01*
X156034977Y-108129947D01*
X156009428Y-108177209D01*
X155977637Y-108225308D01*
X155940228Y-108273116D01*
X155912887Y-108305431D01*
X155918236Y-108347930D01*
X155918672Y-108351516D01*
X155921268Y-108406086D01*
X155915719Y-108457711D01*
X155901843Y-108507059D01*
X155879454Y-108554798D01*
X155848370Y-108601597D01*
X155834380Y-108618639D01*
X155807647Y-108646837D01*
X155777550Y-108674447D01*
X155746922Y-108698757D01*
X155729154Y-108711665D01*
X155730485Y-108739762D01*
X155730303Y-108757883D01*
X155728460Y-108780558D01*
X155725338Y-108801952D01*
X155712392Y-108850703D01*
X155692045Y-108898172D01*
X155664127Y-108944187D01*
X155628378Y-108989079D01*
X155584534Y-109033176D01*
X155532332Y-109076807D01*
X155471511Y-109120302D01*
X155422648Y-109152921D01*
X155414631Y-109186742D01*
X155398973Y-109238883D01*
X155376953Y-109286993D01*
X155348386Y-109330251D01*
X155312617Y-109369832D01*
X155293601Y-109387564D01*
X155273317Y-109404516D01*
X155252704Y-109419058D01*
X155229101Y-109433039D01*
X155199849Y-109448312D01*
X155199327Y-109448573D01*
X155182329Y-109456448D01*
X155161174Y-109465359D01*
X155137623Y-109474664D01*
X155113441Y-109483720D01*
X155090389Y-109491882D01*
X155070229Y-109498509D01*
X155054725Y-109502957D01*
X155045639Y-109504582D01*
X155044909Y-109504669D01*
X155039941Y-109509798D01*
X155036274Y-109521214D01*
X155030089Y-109544500D01*
X155016496Y-109577471D01*
X154998066Y-109610716D01*
X154976283Y-109641641D01*
X154952629Y-109667648D01*
X154941854Y-109677444D01*
X154914197Y-109699468D01*
X154883946Y-109718985D01*
X154849846Y-109736602D01*
X154810643Y-109752926D01*
X154765081Y-109768563D01*
X154711905Y-109784122D01*
X154651389Y-109800697D01*
X154716185Y-109839484D01*
X154741988Y-109855131D01*
X154789312Y-109884724D01*
X154837475Y-109915866D01*
X154884309Y-109947123D01*
X154927646Y-109977061D01*
X154965316Y-110004246D01*
X154966518Y-110005139D01*
X155064944Y-110082825D01*
X155155693Y-110163907D01*
X155238875Y-110248608D01*
X155314597Y-110337152D01*
X155382970Y-110429763D01*
X155444101Y-110526665D01*
X155498100Y-110628081D01*
X155545077Y-110734234D01*
X155585138Y-110845349D01*
X155618395Y-110961649D01*
X155644955Y-111083358D01*
X155664927Y-111210699D01*
X155678421Y-111343896D01*
X155683426Y-111441740D01*
X155685545Y-111483173D01*
X155688387Y-111584971D01*
G37*
G36*
X149011174Y-119483334D02*
G01*
X149058257Y-119498597D01*
X149101968Y-119521846D01*
X149115717Y-119531485D01*
X149148752Y-119559903D01*
X149180837Y-119594489D01*
X149210361Y-119633402D01*
X149235715Y-119674799D01*
X149241673Y-119685509D01*
X149246926Y-119693534D01*
X149249658Y-119694888D01*
X149250611Y-119690346D01*
X149250638Y-119689796D01*
X149251236Y-119681001D01*
X149252442Y-119665112D01*
X149254133Y-119643680D01*
X149256189Y-119618258D01*
X149258486Y-119590399D01*
X149265880Y-119501557D01*
X149621249Y-119501557D01*
X149622390Y-120201189D01*
X149622459Y-120245938D01*
X149622556Y-120322843D01*
X149622624Y-120397090D01*
X149622664Y-120468200D01*
X149622677Y-120535693D01*
X149622662Y-120599092D01*
X149622621Y-120657916D01*
X149622554Y-120711687D01*
X149622461Y-120759926D01*
X149622345Y-120802155D01*
X149622205Y-120837894D01*
X149622041Y-120866664D01*
X149621855Y-120887987D01*
X149621648Y-120901384D01*
X149621419Y-120906375D01*
X149620881Y-120906985D01*
X149616860Y-120908296D01*
X149608475Y-120909372D01*
X149595081Y-120910231D01*
X149576033Y-120910892D01*
X149550684Y-120911373D01*
X149518389Y-120911693D01*
X149478502Y-120911872D01*
X149430378Y-120911927D01*
X149241448Y-120911927D01*
X149241407Y-120435511D01*
X149241365Y-119959094D01*
X149227589Y-119935070D01*
X149216525Y-119917929D01*
X149189026Y-119887070D01*
X149155642Y-119861994D01*
X149117506Y-119843469D01*
X149075752Y-119832263D01*
X149065943Y-119830924D01*
X149039407Y-119829073D01*
X149004726Y-119828458D01*
X148962341Y-119829090D01*
X148936735Y-119829672D01*
X148911242Y-119829850D01*
X148893552Y-119829369D01*
X148883072Y-119828210D01*
X148879204Y-119826352D01*
X148878533Y-119822477D01*
X148876894Y-119810563D01*
X148874474Y-119791730D01*
X148871403Y-119767025D01*
X148867809Y-119737493D01*
X148863824Y-119704181D01*
X148859576Y-119668136D01*
X148856186Y-119639249D01*
X148852095Y-119604653D01*
X148848359Y-119573345D01*
X148845112Y-119546432D01*
X148842487Y-119525023D01*
X148840618Y-119510224D01*
X148839640Y-119503143D01*
X148839145Y-119499629D01*
X148840066Y-119493699D01*
X148845626Y-119489887D01*
X148857870Y-119486305D01*
X148909813Y-119477192D01*
X148961449Y-119476164D01*
X149011174Y-119483334D01*
G37*
G36*
X149917677Y-119478964D02*
G01*
X149965801Y-119489495D01*
X150010749Y-119508066D01*
X150052680Y-119534779D01*
X150091752Y-119569739D01*
X150128123Y-119613050D01*
X150161953Y-119664815D01*
X150181998Y-119699253D01*
X150187563Y-119627057D01*
X150188594Y-119613834D01*
X150190741Y-119587143D01*
X150192808Y-119562450D01*
X150194601Y-119542043D01*
X150195926Y-119528209D01*
X150198724Y-119501557D01*
X150554093Y-119501557D01*
X150555234Y-120201189D01*
X150555302Y-120245930D01*
X150555399Y-120322837D01*
X150555467Y-120397086D01*
X150555507Y-120468198D01*
X150555518Y-120535694D01*
X150555502Y-120599096D01*
X150555460Y-120657924D01*
X150555391Y-120711699D01*
X150555298Y-120759943D01*
X150555180Y-120802177D01*
X150555038Y-120837920D01*
X150554872Y-120866696D01*
X150554685Y-120888024D01*
X150554475Y-120901426D01*
X150554244Y-120906422D01*
X150553361Y-120907261D01*
X150548934Y-120908510D01*
X150540268Y-120909501D01*
X150526698Y-120910247D01*
X150507563Y-120910766D01*
X150482198Y-120911071D01*
X150449940Y-120911179D01*
X150410126Y-120911105D01*
X150362092Y-120910865D01*
X150172071Y-120909706D01*
X150167629Y-119950210D01*
X150155808Y-119930220D01*
X150145087Y-119914195D01*
X150118191Y-119885084D01*
X150085504Y-119861030D01*
X150048619Y-119843098D01*
X150009133Y-119832353D01*
X150001563Y-119831262D01*
X149974764Y-119829177D01*
X149939351Y-119828449D01*
X149895443Y-119829083D01*
X149870656Y-119829592D01*
X149847742Y-119829720D01*
X149829388Y-119829454D01*
X149817035Y-119828815D01*
X149812120Y-119827825D01*
X149811171Y-119823337D01*
X149809332Y-119811151D01*
X149806782Y-119792490D01*
X149803661Y-119768529D01*
X149800112Y-119740444D01*
X149796274Y-119709412D01*
X149792287Y-119676609D01*
X149788293Y-119643210D01*
X149784431Y-119610392D01*
X149780843Y-119579331D01*
X149777669Y-119551204D01*
X149775050Y-119527185D01*
X149773126Y-119508452D01*
X149772038Y-119496181D01*
X149771926Y-119491547D01*
X149778947Y-119488275D01*
X149792860Y-119484820D01*
X149811477Y-119481576D01*
X149832688Y-119478857D01*
X149854383Y-119476978D01*
X149874449Y-119476254D01*
X149917677Y-119478964D01*
G37*
G36*
X157841382Y-120559654D02*
G01*
X157834261Y-120613472D01*
X157821607Y-120664712D01*
X157803429Y-120711638D01*
X157802898Y-120712755D01*
X157774160Y-120763237D01*
X157739155Y-120807425D01*
X157697892Y-120845314D01*
X157650382Y-120876897D01*
X157596633Y-120902167D01*
X157536657Y-120921117D01*
X157470462Y-120933741D01*
X157456856Y-120935199D01*
X157428808Y-120936680D01*
X157396915Y-120936952D01*
X157363717Y-120936098D01*
X157331751Y-120934200D01*
X157303557Y-120931341D01*
X157281672Y-120927604D01*
X157249935Y-120918151D01*
X157213407Y-120903330D01*
X157177654Y-120885231D01*
X157146240Y-120865487D01*
X157129159Y-120852340D01*
X157101634Y-120828077D01*
X157073851Y-120800485D01*
X157048364Y-120772147D01*
X157027725Y-120745644D01*
X157023505Y-120739701D01*
X157013883Y-120726682D01*
X157006647Y-120717640D01*
X157003112Y-120714253D01*
X157002283Y-120715372D01*
X156999698Y-120723166D01*
X156996253Y-120736763D01*
X156992462Y-120754232D01*
X156990067Y-120765522D01*
X156981876Y-120799061D01*
X156972180Y-120833215D01*
X156961906Y-120864849D01*
X156951984Y-120890827D01*
X156942978Y-120911927D01*
X156752514Y-120911927D01*
X156727792Y-120911897D01*
X156689269Y-120911722D01*
X156654181Y-120911406D01*
X156623436Y-120910966D01*
X156597942Y-120910421D01*
X156578607Y-120909786D01*
X156566341Y-120909080D01*
X156562050Y-120908318D01*
X156562329Y-120906744D01*
X156564752Y-120898110D01*
X156569129Y-120884146D01*
X156574805Y-120866975D01*
X156588923Y-120820247D01*
X156603073Y-120760838D01*
X156614109Y-120698961D01*
X156615082Y-120691687D01*
X156616257Y-120680320D01*
X156617309Y-120666470D01*
X156618252Y-120649555D01*
X156619099Y-120628993D01*
X156619863Y-120604202D01*
X156620557Y-120574601D01*
X156621196Y-120539607D01*
X156621791Y-120498638D01*
X156621858Y-120492991D01*
X157006261Y-120492991D01*
X157023326Y-120519222D01*
X157024626Y-120521200D01*
X157054012Y-120557613D01*
X157090132Y-120589156D01*
X157131934Y-120615165D01*
X157178363Y-120634981D01*
X157228367Y-120647943D01*
X157243491Y-120650376D01*
X157289656Y-120653633D01*
X157331420Y-120649972D01*
X157368392Y-120639535D01*
X157400183Y-120622462D01*
X157426402Y-120598895D01*
X157446660Y-120568974D01*
X157447179Y-120567948D01*
X157453875Y-120548038D01*
X157457922Y-120522682D01*
X157459179Y-120494773D01*
X157457507Y-120467206D01*
X157452765Y-120442872D01*
X157452560Y-120442173D01*
X157436899Y-120403652D01*
X157414238Y-120370560D01*
X157384685Y-120342999D01*
X157348350Y-120321072D01*
X157305345Y-120304881D01*
X157302732Y-120304169D01*
X157292821Y-120302059D01*
X157280360Y-120300345D01*
X157264294Y-120298964D01*
X157243566Y-120297858D01*
X157217121Y-120296965D01*
X157183903Y-120296224D01*
X157142856Y-120295577D01*
X157006261Y-120293703D01*
X157006261Y-120492991D01*
X156621858Y-120492991D01*
X156622356Y-120451113D01*
X156622905Y-120396449D01*
X156623451Y-120334065D01*
X156624006Y-120263379D01*
X156626930Y-119874694D01*
X156638915Y-119830273D01*
X156639301Y-119828850D01*
X156659193Y-119769968D01*
X156685306Y-119717045D01*
X156718106Y-119669282D01*
X156758059Y-119625880D01*
X156777937Y-119608029D01*
X156830591Y-119569077D01*
X156888894Y-119536719D01*
X156952524Y-119511051D01*
X157021160Y-119492168D01*
X157094480Y-119480169D01*
X157172165Y-119475148D01*
X157253891Y-119477202D01*
X157282737Y-119479554D01*
X157360616Y-119490502D01*
X157432500Y-119507825D01*
X157498630Y-119531620D01*
X157559245Y-119561984D01*
X157614586Y-119599013D01*
X157664892Y-119642804D01*
X157685579Y-119664537D01*
X157719860Y-119708256D01*
X157746595Y-119753873D01*
X157765463Y-119800673D01*
X157776143Y-119847941D01*
X157778312Y-119894961D01*
X157776968Y-119923557D01*
X157408310Y-119923557D01*
X157405085Y-119897739D01*
X157398647Y-119866927D01*
X157384435Y-119834068D01*
X157363493Y-119806777D01*
X157336072Y-119785241D01*
X157302423Y-119769648D01*
X157262795Y-119760187D01*
X157217439Y-119757044D01*
X157206828Y-119757202D01*
X157160689Y-119761725D01*
X157120824Y-119772498D01*
X157087182Y-119789537D01*
X157059712Y-119812862D01*
X157047140Y-119827711D01*
X157034671Y-119846540D01*
X157025063Y-119867363D01*
X157017929Y-119891549D01*
X157012883Y-119920465D01*
X157009541Y-119955480D01*
X157007515Y-119997963D01*
X157004987Y-120076810D01*
X157146661Y-120076814D01*
X157158029Y-120076828D01*
X157195469Y-120077063D01*
X157232006Y-120077555D01*
X157266043Y-120078267D01*
X157295986Y-120079161D01*
X157320236Y-120080198D01*
X157337199Y-120081342D01*
X157373178Y-120085207D01*
X157451983Y-120097907D01*
X157523607Y-120115781D01*
X157588100Y-120138854D01*
X157645509Y-120167153D01*
X157695883Y-120200704D01*
X157739269Y-120239532D01*
X157775716Y-120283663D01*
X157805271Y-120333124D01*
X157814371Y-120353276D01*
X157829465Y-120400068D01*
X157838993Y-120451218D01*
X157842208Y-120494773D01*
X157842962Y-120504991D01*
X157841382Y-120559654D01*
G37*
G36*
X144687172Y-118878503D02*
G01*
X144877073Y-118879661D01*
X144878248Y-119019546D01*
X144878376Y-119036798D01*
X144878526Y-119070140D01*
X144878533Y-119100183D01*
X144878404Y-119125810D01*
X144878146Y-119145904D01*
X144877768Y-119159348D01*
X144877277Y-119165026D01*
X144876622Y-119165722D01*
X144872459Y-119167026D01*
X144863994Y-119168095D01*
X144850571Y-119168946D01*
X144831538Y-119169599D01*
X144806239Y-119170074D01*
X144774019Y-119170390D01*
X144734225Y-119170565D01*
X144686201Y-119170619D01*
X144497272Y-119170619D01*
X144497272Y-118877344D01*
X144687172Y-118878503D01*
G37*
G36*
X144687172Y-119500398D02*
G01*
X144877073Y-119501557D01*
X144878214Y-120201189D01*
X144878282Y-120245938D01*
X144878380Y-120322843D01*
X144878448Y-120397090D01*
X144878488Y-120468200D01*
X144878500Y-120535693D01*
X144878486Y-120599092D01*
X144878444Y-120657916D01*
X144878377Y-120711687D01*
X144878285Y-120759926D01*
X144878169Y-120802155D01*
X144878028Y-120837894D01*
X144877865Y-120866664D01*
X144877679Y-120887987D01*
X144877471Y-120901384D01*
X144877242Y-120906375D01*
X144876705Y-120906985D01*
X144872683Y-120908296D01*
X144864299Y-120909372D01*
X144850905Y-120910231D01*
X144831857Y-120910892D01*
X144806508Y-120911373D01*
X144774213Y-120911693D01*
X144734326Y-120911872D01*
X144686201Y-120911927D01*
X144497272Y-120911927D01*
X144497272Y-119499240D01*
X144687172Y-119500398D01*
G37*
G36*
X152007816Y-120169633D02*
G01*
X152008762Y-120237448D01*
X152006247Y-120303626D01*
X152000210Y-120366013D01*
X151990593Y-120422451D01*
X151983260Y-120453164D01*
X151959307Y-120527881D01*
X151927646Y-120598246D01*
X151888328Y-120664141D01*
X151878588Y-120677724D01*
X151856461Y-120705161D01*
X151830384Y-120734262D01*
X151802147Y-120763227D01*
X151773539Y-120790253D01*
X151746350Y-120813538D01*
X151722368Y-120831279D01*
X151712948Y-120837375D01*
X151648904Y-120872906D01*
X151580832Y-120900727D01*
X151508433Y-120920941D01*
X151431410Y-120933654D01*
X151382313Y-120937516D01*
X151311689Y-120938089D01*
X151238507Y-120933552D01*
X151165282Y-120924165D01*
X151094525Y-120910189D01*
X151028750Y-120891884D01*
X151027973Y-120891630D01*
X150995590Y-120879843D01*
X150960075Y-120864970D01*
X150923757Y-120848139D01*
X150888963Y-120830478D01*
X150858023Y-120813114D01*
X150833264Y-120797177D01*
X150801487Y-120774592D01*
X150852582Y-120657802D01*
X150855446Y-120651259D01*
X150868397Y-120621753D01*
X150880109Y-120595201D01*
X150890119Y-120572641D01*
X150897966Y-120555112D01*
X150903188Y-120543651D01*
X150905323Y-120539296D01*
X150905445Y-120539244D01*
X150910607Y-120540829D01*
X150921975Y-120545624D01*
X150937987Y-120552939D01*
X150957078Y-120562087D01*
X150985833Y-120575856D01*
X151019739Y-120590995D01*
X151050109Y-120602988D01*
X151079242Y-120612727D01*
X151109441Y-120621102D01*
X151109646Y-120621154D01*
X151151839Y-120629944D01*
X151197912Y-120636264D01*
X151245423Y-120639991D01*
X151291930Y-120641000D01*
X151334990Y-120639170D01*
X151372161Y-120634376D01*
X151375812Y-120633648D01*
X151409441Y-120623935D01*
X151443853Y-120609314D01*
X151475827Y-120591340D01*
X151502140Y-120571571D01*
X151531732Y-120540490D01*
X151560550Y-120499042D01*
X151583754Y-120452149D01*
X151600783Y-120400971D01*
X151611075Y-120346668D01*
X151614176Y-120321126D01*
X150769535Y-120321126D01*
X150769581Y-120204521D01*
X150769668Y-120182218D01*
X150770089Y-120146845D01*
X150770811Y-120112412D01*
X150771778Y-120080905D01*
X150772344Y-120067926D01*
X151145808Y-120067926D01*
X151376711Y-120067926D01*
X151393313Y-120067920D01*
X151436856Y-120067845D01*
X151477368Y-120067693D01*
X151514011Y-120067470D01*
X151545949Y-120067185D01*
X151572348Y-120066847D01*
X151592370Y-120066464D01*
X151605181Y-120066045D01*
X151609943Y-120065597D01*
X151610455Y-120063822D01*
X151610172Y-120054793D01*
X151608415Y-120040189D01*
X151605529Y-120022073D01*
X151601857Y-120002507D01*
X151597743Y-119983551D01*
X151593532Y-119967269D01*
X151582772Y-119935920D01*
X151566502Y-119899967D01*
X151547437Y-119866910D01*
X151526744Y-119838736D01*
X151505587Y-119817432D01*
X151495696Y-119809904D01*
X151462342Y-119791127D01*
X151425451Y-119778693D01*
X151386490Y-119772524D01*
X151346926Y-119772542D01*
X151308225Y-119778670D01*
X151271853Y-119790832D01*
X151239278Y-119808948D01*
X151211966Y-119832942D01*
X151197837Y-119850289D01*
X151177725Y-119883544D01*
X151163017Y-119921535D01*
X151153364Y-119965263D01*
X151148417Y-120015731D01*
X151145808Y-120067926D01*
X150772344Y-120067926D01*
X150772938Y-120054308D01*
X150774235Y-120034610D01*
X150777659Y-120001496D01*
X150790382Y-119925102D01*
X150809413Y-119854705D01*
X150834892Y-119789983D01*
X150866957Y-119730617D01*
X150905748Y-119676286D01*
X150951403Y-119626670D01*
X150997542Y-119586672D01*
X151048237Y-119552141D01*
X151102556Y-119524375D01*
X151161156Y-119503139D01*
X151224695Y-119488195D01*
X151293831Y-119479307D01*
X151369220Y-119476239D01*
X151427070Y-119477747D01*
X151490261Y-119484128D01*
X151548498Y-119495770D01*
X151603179Y-119512964D01*
X151655701Y-119536001D01*
X151686495Y-119552762D01*
X151743450Y-119591183D01*
X151796166Y-119636762D01*
X151844108Y-119688817D01*
X151886742Y-119746661D01*
X151923533Y-119809612D01*
X151953948Y-119876984D01*
X151977452Y-119948094D01*
X151984807Y-119977930D01*
X151995779Y-120037718D01*
X151998886Y-120063822D01*
X152003469Y-120102337D01*
X152007816Y-120169633D01*
G37*
%TD*%
%LPC*%
D11*
%TO.C,SW22*%
X139960000Y-80420000D03*
D12*
X142500000Y-85500000D03*
D11*
X146310000Y-82960000D03*
%TD*%
%TO.C,SW30*%
X184310000Y-101960000D03*
X177960000Y-99420000D03*
D12*
X180500000Y-104500000D03*
%TD*%
D11*
%TO.C,SW5*%
X70310000Y-63960000D03*
D12*
X66500000Y-66500000D03*
D11*
X63960000Y-61420000D03*
%TD*%
%TO.C,SW43*%
X241310000Y-120960000D03*
X234960000Y-118420000D03*
D12*
X237500000Y-123500000D03*
%TD*%
%TO.C,SW3*%
X47500000Y-104500000D03*
D11*
X44960000Y-99420000D03*
X51310000Y-101960000D03*
%TD*%
%TO.C,SW37*%
X215960000Y-80420000D03*
D12*
X218500000Y-85500000D03*
D11*
X222310000Y-82960000D03*
%TD*%
%TO.C,SW32*%
X196960000Y-61420000D03*
D12*
X199500000Y-66500000D03*
D11*
X203310000Y-63960000D03*
%TD*%
%TO.C,SW14*%
X108310000Y-82960000D03*
X101960000Y-80420000D03*
D12*
X104500000Y-85500000D03*
%TD*%
D11*
%TO.C,SW33*%
X196960000Y-80420000D03*
X203310000Y-82960000D03*
D12*
X199500000Y-85500000D03*
%TD*%
%TO.C,SW2*%
X47500000Y-85500000D03*
D11*
X51310000Y-82960000D03*
X44960000Y-80420000D03*
%TD*%
D12*
%TO.C,SW13*%
X104500000Y-66500000D03*
D11*
X108310000Y-63960000D03*
X101960000Y-61420000D03*
%TD*%
D12*
%TO.C,SW31*%
X180500000Y-123500000D03*
D11*
X184310000Y-120960000D03*
X177960000Y-118420000D03*
%TD*%
%TO.C,SW11*%
X89310000Y-101960000D03*
X82960000Y-99420000D03*
D12*
X85500000Y-104500000D03*
%TD*%
D11*
%TO.C,SW35*%
X203310000Y-120960000D03*
D12*
X199500000Y-123500000D03*
D11*
X196960000Y-118420000D03*
%TD*%
%TO.C,SW39*%
X215960000Y-118420000D03*
X222310000Y-120960000D03*
D12*
X218500000Y-123500000D03*
%TD*%
%TO.C,SW42*%
X237500000Y-104500000D03*
D11*
X241310000Y-101960000D03*
X234960000Y-99420000D03*
%TD*%
D12*
%TO.C,SW46*%
X256500000Y-104500000D03*
D11*
X260310000Y-101960000D03*
X253960000Y-99420000D03*
%TD*%
D12*
%TO.C,SW28*%
X180500000Y-66500000D03*
D11*
X184310000Y-63960000D03*
X177960000Y-61420000D03*
%TD*%
D13*
%TO.C,J1*%
X149110000Y-60049000D03*
X154890000Y-60049000D03*
D14*
X156300000Y-56400000D03*
X147700000Y-56400000D03*
D15*
X147700000Y-60600000D03*
X156300000Y-60600000D03*
%TD*%
D11*
%TO.C,SW1*%
X51310000Y-63960000D03*
X44960000Y-61420000D03*
D12*
X47500000Y-66500000D03*
%TD*%
D11*
%TO.C,SW9*%
X82960000Y-61420000D03*
D12*
X85500000Y-66500000D03*
D11*
X89310000Y-63960000D03*
%TD*%
D12*
%TO.C,SW10*%
X85500000Y-85500000D03*
D11*
X82960000Y-80420000D03*
X89310000Y-82960000D03*
%TD*%
%TO.C,SW23*%
X145040000Y-109580000D03*
X138690000Y-107040000D03*
D12*
X142500000Y-104500000D03*
%TD*%
D11*
%TO.C,SW20*%
X120960000Y-118420000D03*
X127310000Y-120960000D03*
D12*
X123500000Y-123500000D03*
%TD*%
D11*
%TO.C,SW19*%
X120960000Y-99420000D03*
X127310000Y-101960000D03*
D12*
X123500000Y-104500000D03*
%TD*%
D11*
%TO.C,SW6*%
X70310000Y-82960000D03*
X63960000Y-80420000D03*
D12*
X66500000Y-85500000D03*
%TD*%
D11*
%TO.C,SW25*%
X157690000Y-69040000D03*
D12*
X161500000Y-66500000D03*
D11*
X164040000Y-71580000D03*
%TD*%
%TO.C,SW34*%
X203310000Y-101960000D03*
D12*
X199500000Y-104500000D03*
D11*
X196960000Y-99420000D03*
%TD*%
%TO.C,SW17*%
X127310000Y-63960000D03*
X120960000Y-61420000D03*
D12*
X123500000Y-66500000D03*
%TD*%
%TO.C,SW44*%
X256500000Y-66500000D03*
D11*
X260310000Y-63960000D03*
X253960000Y-61420000D03*
%TD*%
D12*
%TO.C,SW29*%
X180500000Y-85500000D03*
D11*
X177960000Y-80420000D03*
X184310000Y-82960000D03*
%TD*%
%TO.C,SW12*%
X89310000Y-120960000D03*
D12*
X85500000Y-123500000D03*
D11*
X82960000Y-118420000D03*
%TD*%
D12*
%TO.C,SW7*%
X66500000Y-104500000D03*
D11*
X63960000Y-99420000D03*
X70310000Y-101960000D03*
%TD*%
D12*
%TO.C,SW8*%
X66500000Y-123500000D03*
D11*
X70310000Y-120960000D03*
X63960000Y-118420000D03*
%TD*%
%TO.C,SW41*%
X241310000Y-82960000D03*
D12*
X237500000Y-85500000D03*
D11*
X234960000Y-80420000D03*
%TD*%
%TO.C,SW45*%
X260310000Y-82960000D03*
X253960000Y-80420000D03*
D12*
X256500000Y-85500000D03*
%TD*%
D11*
%TO.C,SW38*%
X222310000Y-101960000D03*
X215960000Y-99420000D03*
D12*
X218500000Y-104500000D03*
%TD*%
D11*
%TO.C,SW15*%
X101960000Y-99420000D03*
X108310000Y-101960000D03*
D12*
X104500000Y-104500000D03*
%TD*%
D16*
%TO.C,H1*%
X114000000Y-76000000D03*
X114000000Y-114000000D03*
X57000000Y-114000000D03*
X57000000Y-76000000D03*
X190000000Y-76000000D03*
X247000000Y-76000000D03*
X247000000Y-114000000D03*
X190000000Y-114000000D03*
%TD*%
D11*
%TO.C,SW47*%
X253960000Y-118420000D03*
D12*
X256500000Y-123500000D03*
D11*
X260310000Y-120960000D03*
%TD*%
%TO.C,SW16*%
X101960000Y-118420000D03*
X108310000Y-120960000D03*
D12*
X104500000Y-123500000D03*
%TD*%
D11*
%TO.C,SW36*%
X222310000Y-63960000D03*
D12*
X218500000Y-66500000D03*
D11*
X215960000Y-61420000D03*
%TD*%
D12*
%TO.C,SW26*%
X161500000Y-85500000D03*
D11*
X165310000Y-82960000D03*
X158960000Y-80420000D03*
%TD*%
%TO.C,SW27*%
X157690000Y-107040000D03*
D12*
X161500000Y-104500000D03*
D11*
X164040000Y-109580000D03*
%TD*%
D12*
%TO.C,SW24*%
X152000000Y-123500000D03*
D11*
X140062000Y-130485000D03*
D12*
X140062000Y-115245000D03*
D11*
X148190000Y-126040000D03*
X154540000Y-128580000D03*
D12*
X163938000Y-115245000D03*
D11*
X163938000Y-130485000D03*
%TD*%
%TO.C,SW21*%
X145040000Y-71580000D03*
X138690000Y-69040000D03*
D12*
X142500000Y-66500000D03*
%TD*%
D11*
%TO.C,SW18*%
X127310000Y-82960000D03*
D12*
X123500000Y-85500000D03*
D11*
X120960000Y-80420000D03*
%TD*%
%TO.C,SW40*%
X241310000Y-63960000D03*
X234960000Y-61420000D03*
D12*
X237500000Y-66500000D03*
%TD*%
D17*
%TO.C,J2*%
X183200000Y-129950000D03*
D18*
X180660000Y-129950000D03*
X178120000Y-129950000D03*
%TD*%
D11*
%TO.C,SW4*%
X44960000Y-118420000D03*
X51310000Y-120960000D03*
D12*
X47500000Y-123500000D03*
%TD*%
D19*
X148510000Y-99680000D03*
X205229657Y-88959472D03*
X157973294Y-91544874D03*
X156000000Y-98000000D03*
X141317780Y-93546813D03*
X163000000Y-81000000D03*
X137000000Y-95000000D03*
X243000000Y-89000000D03*
X158950000Y-96400000D03*
X247000000Y-106000000D03*
X110000000Y-89000000D03*
X164000000Y-63000000D03*
X91000000Y-89000000D03*
X149450000Y-101730000D03*
X224000000Y-89000000D03*
X72000000Y-89000000D03*
X140250859Y-88648133D03*
X150720000Y-86090000D03*
X156843675Y-89110000D03*
X154425000Y-100750000D03*
X149790000Y-89360000D03*
X170370000Y-94810000D03*
X169820500Y-95430000D03*
X139120000Y-104590000D03*
X139120000Y-95100000D03*
X141280000Y-74290000D03*
X174850000Y-74290000D03*
X141280000Y-75160000D03*
X155490000Y-75160000D03*
X160348814Y-77049228D03*
X174404000Y-89825000D03*
X119660000Y-107500000D03*
X115704000Y-126325000D03*
X167596000Y-69534000D03*
X171550000Y-69534000D03*
X54866000Y-84844000D03*
X54866000Y-103844000D03*
X54866000Y-122844000D03*
X54866000Y-65844000D03*
X54866000Y-88954000D03*
X73866000Y-65844000D03*
X73866000Y-88954000D03*
X73866000Y-103844000D03*
X73866000Y-122844000D03*
X73866000Y-84844000D03*
X92836000Y-84844000D03*
X92836000Y-65844000D03*
X92836000Y-88954000D03*
X92836000Y-122844000D03*
X92836000Y-103844000D03*
X111836000Y-84844000D03*
X111836000Y-88954000D03*
X111836000Y-65844000D03*
X111836000Y-122844000D03*
X111836000Y-103844000D03*
X130836000Y-84844000D03*
X130836000Y-65844000D03*
X130836000Y-122844000D03*
X130836000Y-103844000D03*
X147370000Y-85460000D03*
X158096000Y-130484000D03*
X145090000Y-92580000D03*
X148596000Y-111884000D03*
X168866000Y-89284000D03*
X168866000Y-84984000D03*
X167596000Y-111884000D03*
X187866000Y-84844000D03*
X187866000Y-103844000D03*
X187866000Y-122844000D03*
X187866000Y-65844000D03*
X187866000Y-88954000D03*
X206866000Y-65844000D03*
X206866000Y-122844000D03*
X206866000Y-103844000D03*
X206866000Y-88954000D03*
X206866000Y-84844000D03*
X225866000Y-88954000D03*
X225866000Y-84844000D03*
X225866000Y-103844000D03*
X225866000Y-122844000D03*
X225866000Y-65844000D03*
X244866000Y-65844000D03*
X244866000Y-122844000D03*
X244866000Y-88954000D03*
X244866000Y-103844000D03*
X244866000Y-84844000D03*
X228740000Y-80870000D03*
X229525000Y-91585000D03*
X228975000Y-110005000D03*
X228980000Y-105990000D03*
X57010000Y-105310000D03*
X57010000Y-110070000D03*
X76000000Y-95010000D03*
X80225000Y-73485000D03*
X228000000Y-81150000D03*
X179450000Y-70410000D03*
X80220000Y-74390000D03*
X228000000Y-91550000D03*
X58110000Y-105310000D03*
X77180000Y-95560000D03*
X228000000Y-109710000D03*
X169750000Y-66700000D03*
X58110000Y-110070000D03*
M02*
