%TF.GenerationSoftware,KiCad,Pcbnew,(6.0.6)*%
%TF.CreationDate,2022-08-30T20:37:50+01:00*%
%TF.ProjectId,RP2040_keyboard,52503230-3430-45f6-9b65-79626f617264,REV1*%
%TF.SameCoordinates,Original*%
%TF.FileFunction,Soldermask,Top*%
%TF.FilePolarity,Negative*%
%FSLAX46Y46*%
G04 Gerber Fmt 4.6, Leading zero omitted, Abs format (unit mm)*
G04 Created by KiCad (PCBNEW (6.0.6)) date 2022-08-30 20:37:50*
%MOMM*%
%LPD*%
G01*
G04 APERTURE LIST*
G04 Aperture macros list*
%AMRoundRect*
0 Rectangle with rounded corners*
0 $1 Rounding radius*
0 $2 $3 $4 $5 $6 $7 $8 $9 X,Y pos of 4 corners*
0 Add a 4 corners polygon primitive as box body*
4,1,4,$2,$3,$4,$5,$6,$7,$8,$9,$2,$3,0*
0 Add four circle primitives for the rounded corners*
1,1,$1+$1,$2,$3*
1,1,$1+$1,$4,$5*
1,1,$1+$1,$6,$7*
1,1,$1+$1,$8,$9*
0 Add four rect primitives between the rounded corners*
20,1,$1+$1,$2,$3,$4,$5,0*
20,1,$1+$1,$4,$5,$6,$7,0*
20,1,$1+$1,$6,$7,$8,$9,0*
20,1,$1+$1,$8,$9,$2,$3,0*%
G04 Aperture macros list end*
%ADD10C,3.048000*%
%ADD11C,3.987800*%
%ADD12RoundRect,0.254000X-1.016000X-1.016000X1.016000X-1.016000X1.016000X1.016000X-1.016000X1.016000X0*%
%ADD13RoundRect,0.140000X0.170000X-0.140000X0.170000X0.140000X-0.170000X0.140000X-0.170000X-0.140000X0*%
%ADD14RoundRect,0.250000X0.350000X-0.250000X0.350000X0.250000X-0.350000X0.250000X-0.350000X-0.250000X0*%
%ADD15RoundRect,0.140000X-0.170000X0.140000X-0.170000X-0.140000X0.170000X-0.140000X0.170000X0.140000X0*%
%ADD16R,1.000000X0.750000*%
%ADD17RoundRect,0.050000X-0.387500X-0.050000X0.387500X-0.050000X0.387500X0.050000X-0.387500X0.050000X0*%
%ADD18RoundRect,0.050000X-0.050000X-0.387500X0.050000X-0.387500X0.050000X0.387500X-0.050000X0.387500X0*%
%ADD19RoundRect,0.144000X-1.456000X-1.456000X1.456000X-1.456000X1.456000X1.456000X-1.456000X1.456000X0*%
%ADD20RoundRect,0.150000X0.650000X0.150000X-0.650000X0.150000X-0.650000X-0.150000X0.650000X-0.150000X0*%
%ADD21RoundRect,0.140000X-0.140000X-0.170000X0.140000X-0.170000X0.140000X0.170000X-0.140000X0.170000X0*%
%ADD22R,1.500000X1.000000*%
%ADD23RoundRect,0.140000X0.140000X0.170000X-0.140000X0.170000X-0.140000X-0.170000X0.140000X-0.170000X0*%
%ADD24RoundRect,0.250000X-0.350000X0.250000X-0.350000X-0.250000X0.350000X-0.250000X0.350000X0.250000X0*%
%ADD25RoundRect,0.150000X-0.587500X-0.150000X0.587500X-0.150000X0.587500X0.150000X-0.587500X0.150000X0*%
%ADD26C,0.650000*%
%ADD27RoundRect,0.150000X0.150000X0.575000X-0.150000X0.575000X-0.150000X-0.575000X0.150000X-0.575000X0*%
%ADD28RoundRect,0.075000X0.075000X0.650000X-0.075000X0.650000X-0.075000X-0.650000X0.075000X-0.650000X0*%
%ADD29O,1.300000X1.900000*%
%ADD30O,1.100000X2.200000*%
%ADD31RoundRect,0.150000X-0.512500X-0.150000X0.512500X-0.150000X0.512500X0.150000X-0.512500X0.150000X0*%
%ADD32RoundRect,0.225000X-0.250000X0.225000X-0.250000X-0.225000X0.250000X-0.225000X0.250000X0.225000X0*%
%ADD33RoundRect,0.254000X1.016000X1.016000X-1.016000X1.016000X-1.016000X-1.016000X1.016000X-1.016000X0*%
%ADD34RoundRect,0.250000X0.250000X0.350000X-0.250000X0.350000X-0.250000X-0.350000X0.250000X-0.350000X0*%
%ADD35R,1.400000X1.200000*%
%ADD36RoundRect,0.135000X0.135000X0.185000X-0.135000X0.185000X-0.135000X-0.185000X0.135000X-0.185000X0*%
%ADD37C,4.250000*%
%ADD38RoundRect,0.250000X-0.375000X-0.625000X0.375000X-0.625000X0.375000X0.625000X-0.375000X0.625000X0*%
%ADD39R,1.700000X1.700000*%
%ADD40O,1.700000X1.700000*%
%ADD41C,0.600000*%
G04 APERTURE END LIST*
D10*
%TO.C,SW22*%
X139960000Y-80420000D03*
D11*
X142500000Y-85500000D03*
D10*
X146310000Y-82960000D03*
D12*
X136404000Y-80420000D03*
X149866000Y-82960000D03*
%TD*%
D13*
%TO.C,C17*%
X159816250Y-90380001D03*
X159816250Y-89420001D03*
%TD*%
D10*
%TO.C,SW30*%
X184310000Y-101960000D03*
X177960000Y-99420000D03*
D11*
X180500000Y-104500000D03*
D12*
X174404000Y-99420000D03*
X187866000Y-101960000D03*
%TD*%
D10*
%TO.C,SW5*%
X70310000Y-63960000D03*
D11*
X66500000Y-66500000D03*
D10*
X63960000Y-61420000D03*
D12*
X60404000Y-61420000D03*
X73866000Y-63960000D03*
%TD*%
D10*
%TO.C,SW43*%
X241310000Y-120960000D03*
X234960000Y-118420000D03*
D11*
X237500000Y-123500000D03*
D12*
X231404000Y-118420000D03*
X244866000Y-120960000D03*
%TD*%
D14*
%TO.C,D46*%
X250404000Y-107325000D03*
X250404000Y-104025000D03*
%TD*%
D15*
%TO.C,R1*%
X139120000Y-93300000D03*
X139120000Y-94260000D03*
%TD*%
%TO.C,R5*%
X150575000Y-101170000D03*
X150575000Y-102130000D03*
%TD*%
D11*
%TO.C,SW3*%
X47500000Y-104500000D03*
D10*
X44960000Y-99420000D03*
X51310000Y-101960000D03*
D12*
X41404000Y-99420000D03*
X54866000Y-101960000D03*
%TD*%
D14*
%TO.C,D23*%
X128580000Y-108460000D03*
X128580000Y-105160000D03*
%TD*%
%TO.C,D11*%
X79404000Y-107325000D03*
X79404000Y-104025000D03*
%TD*%
%TO.C,D30*%
X174404000Y-107325000D03*
X174404000Y-104025000D03*
%TD*%
%TO.C,D19*%
X117404000Y-107325000D03*
X117404000Y-104025000D03*
%TD*%
%TO.C,D29*%
X174404000Y-88325000D03*
X174404000Y-85025000D03*
%TD*%
%TO.C,D43*%
X231404000Y-126325000D03*
X231404000Y-123025000D03*
%TD*%
%TO.C,D18*%
X117404000Y-88325000D03*
X117404000Y-85025000D03*
%TD*%
D16*
%TO.C,SW49*%
X179500000Y-92125000D03*
X185500000Y-92125000D03*
X179500000Y-95875000D03*
X185500000Y-95875000D03*
%TD*%
D17*
%TO.C,U3*%
X147362500Y-92400000D03*
X147362500Y-92800000D03*
X147362500Y-93200000D03*
X147362500Y-93600000D03*
X147362500Y-94000000D03*
X147362500Y-94400000D03*
X147362500Y-94800000D03*
X147362500Y-95200000D03*
X147362500Y-95600000D03*
X147362500Y-96000000D03*
X147362500Y-96400000D03*
X147362500Y-96800000D03*
X147362500Y-97200000D03*
X147362500Y-97600000D03*
D18*
X148200000Y-98437500D03*
X148600000Y-98437500D03*
X149000000Y-98437500D03*
X149400000Y-98437500D03*
X149800000Y-98437500D03*
X150200000Y-98437500D03*
X150600000Y-98437500D03*
X151000000Y-98437500D03*
X151400000Y-98437500D03*
X151800000Y-98437500D03*
X152200000Y-98437500D03*
X152600000Y-98437500D03*
X153000000Y-98437500D03*
X153400000Y-98437500D03*
D17*
X154237500Y-97600000D03*
X154237500Y-97200000D03*
X154237500Y-96800000D03*
X154237500Y-96400000D03*
X154237500Y-96000000D03*
X154237500Y-95600000D03*
X154237500Y-95200000D03*
X154237500Y-94800000D03*
X154237500Y-94400000D03*
X154237500Y-94000000D03*
X154237500Y-93600000D03*
X154237500Y-93200000D03*
X154237500Y-92800000D03*
X154237500Y-92400000D03*
D18*
X153400000Y-91562500D03*
X153000000Y-91562500D03*
X152600000Y-91562500D03*
X152200000Y-91562500D03*
X151800000Y-91562500D03*
X151400000Y-91562500D03*
X151000000Y-91562500D03*
X150600000Y-91562500D03*
X150200000Y-91562500D03*
X149800000Y-91562500D03*
X149400000Y-91562500D03*
X149000000Y-91562500D03*
X148600000Y-91562500D03*
X148200000Y-91562500D03*
D19*
X150800000Y-95000000D03*
%TD*%
D20*
%TO.C,U2*%
X138627401Y-91820929D03*
X138627401Y-90550929D03*
X138627401Y-89280929D03*
X138627401Y-88010929D03*
X131427401Y-88010929D03*
X131427401Y-89280929D03*
X131427401Y-90550929D03*
X131427401Y-91820929D03*
%TD*%
D14*
%TO.C,D47*%
X250404000Y-126325000D03*
X250404000Y-123025000D03*
%TD*%
%TO.C,D4*%
X41404000Y-126325000D03*
X41404000Y-123025000D03*
%TD*%
D10*
%TO.C,SW37*%
X215960000Y-80420000D03*
D11*
X218500000Y-85500000D03*
D10*
X222310000Y-82960000D03*
D12*
X212404000Y-80420000D03*
X225866000Y-82960000D03*
%TD*%
D10*
%TO.C,SW32*%
X196960000Y-61420000D03*
D11*
X199500000Y-66500000D03*
D10*
X203310000Y-63960000D03*
D12*
X193404000Y-61420000D03*
X206866000Y-63960000D03*
%TD*%
D21*
%TO.C,C12*%
X157010000Y-96400000D03*
X157970000Y-96400000D03*
%TD*%
%TO.C,C5*%
X130980000Y-93340000D03*
X131940000Y-93340000D03*
%TD*%
D14*
%TO.C,D20*%
X117404000Y-126325000D03*
X117404000Y-123025000D03*
%TD*%
D10*
%TO.C,SW14*%
X108310000Y-82960000D03*
X101960000Y-80420000D03*
D11*
X104500000Y-85500000D03*
D12*
X98404000Y-80420000D03*
X111866000Y-82960000D03*
%TD*%
D15*
%TO.C,C3*%
X152450000Y-103945000D03*
X152450000Y-104905000D03*
%TD*%
D22*
%TO.C,LED6*%
X92550000Y-74400000D03*
X92550000Y-77600000D03*
X97450000Y-77600000D03*
X97450000Y-74400000D03*
%TD*%
D23*
%TO.C,C16*%
X145830000Y-91675000D03*
X144870000Y-91675000D03*
%TD*%
D13*
%TO.C,C7*%
X148590000Y-87930000D03*
X148590000Y-86970000D03*
%TD*%
%TO.C,C11*%
X155517461Y-91765933D03*
X155517461Y-90805933D03*
%TD*%
D14*
%TO.C,D27*%
X152910000Y-113200000D03*
X152910000Y-109900000D03*
%TD*%
%TO.C,D31*%
X174404000Y-126325000D03*
X174404000Y-123025000D03*
%TD*%
D15*
%TO.C,C1*%
X167150000Y-88160000D03*
X167150000Y-89120000D03*
%TD*%
D14*
%TO.C,D37*%
X212404000Y-88325000D03*
X212404000Y-85025000D03*
%TD*%
D13*
%TO.C,C2*%
X146875000Y-105780000D03*
X146875000Y-104820000D03*
%TD*%
D10*
%TO.C,SW33*%
X196960000Y-80420000D03*
X203310000Y-82960000D03*
D11*
X199500000Y-85500000D03*
D12*
X193404000Y-80420000D03*
X206866000Y-82960000D03*
%TD*%
D14*
%TO.C,D17*%
X117404000Y-69325000D03*
X117404000Y-66025000D03*
%TD*%
D11*
%TO.C,SW2*%
X47500000Y-85500000D03*
D10*
X51310000Y-82960000D03*
X44960000Y-80420000D03*
D12*
X41404000Y-80420000D03*
X54866000Y-82960000D03*
%TD*%
D11*
%TO.C,SW13*%
X104500000Y-66500000D03*
D10*
X108310000Y-63960000D03*
X101960000Y-61420000D03*
D12*
X98404000Y-61420000D03*
X111866000Y-63960000D03*
%TD*%
D24*
%TO.C,D24*%
X141670000Y-122740000D03*
X141670000Y-126040000D03*
%TD*%
D11*
%TO.C,SW31*%
X180500000Y-123500000D03*
D10*
X184310000Y-120960000D03*
X177960000Y-118420000D03*
D12*
X174404000Y-118420000D03*
X187866000Y-120960000D03*
%TD*%
D10*
%TO.C,SW11*%
X89310000Y-101960000D03*
X82960000Y-99420000D03*
D11*
X85500000Y-104500000D03*
D12*
X79404000Y-99420000D03*
X92866000Y-101960000D03*
%TD*%
D15*
%TO.C,C13*%
X153300000Y-101670000D03*
X153300000Y-102630000D03*
%TD*%
D10*
%TO.C,SW35*%
X203310000Y-120960000D03*
D11*
X199500000Y-123500000D03*
D10*
X196960000Y-118420000D03*
D12*
X193404000Y-118420000D03*
X206866000Y-120960000D03*
%TD*%
D14*
%TO.C,D42*%
X231404000Y-107325000D03*
X231404000Y-104025000D03*
%TD*%
D10*
%TO.C,SW39*%
X215960000Y-118420000D03*
X222310000Y-120960000D03*
D11*
X218500000Y-123500000D03*
D12*
X212404000Y-118420000D03*
X225866000Y-120960000D03*
%TD*%
D13*
%TO.C,R2*%
X138130000Y-94250000D03*
X138130000Y-93290000D03*
%TD*%
D11*
%TO.C,SW42*%
X237500000Y-104500000D03*
D10*
X241310000Y-101960000D03*
X234960000Y-99420000D03*
D12*
X231404000Y-99420000D03*
X244866000Y-101960000D03*
%TD*%
D11*
%TO.C,SW46*%
X256500000Y-104500000D03*
D10*
X260310000Y-101960000D03*
X253960000Y-99420000D03*
D12*
X250404000Y-99420000D03*
X263866000Y-101960000D03*
%TD*%
D14*
%TO.C,D33*%
X193404000Y-88325000D03*
X193404000Y-85025000D03*
%TD*%
D25*
%TO.C,U1*%
X163350000Y-88475000D03*
X163350000Y-90375000D03*
X165225000Y-89425000D03*
%TD*%
D14*
%TO.C,D12*%
X79404000Y-126325000D03*
X79404000Y-123025000D03*
%TD*%
D11*
%TO.C,SW28*%
X180500000Y-66500000D03*
D10*
X184310000Y-63960000D03*
X177960000Y-61420000D03*
D12*
X174404000Y-61420000D03*
X187866000Y-63960000D03*
%TD*%
D26*
%TO.C,J1*%
X149110000Y-60049000D03*
X154890000Y-60049000D03*
D27*
X155250000Y-61375000D03*
X154450000Y-61375000D03*
D28*
X153250000Y-61375000D03*
X152254000Y-61375000D03*
X151750000Y-61375000D03*
X150750000Y-61375000D03*
D27*
X148750000Y-61375000D03*
X149550000Y-61375000D03*
D28*
X150250000Y-61375000D03*
X151250000Y-61375000D03*
X152750000Y-61375000D03*
X153750000Y-61375000D03*
D29*
X156300000Y-56400000D03*
X147700000Y-56400000D03*
D30*
X147700000Y-60600000D03*
X156300000Y-60600000D03*
%TD*%
D14*
%TO.C,D32*%
X193404000Y-69325000D03*
X193404000Y-66025000D03*
%TD*%
D31*
%TO.C,U4*%
X150862500Y-64550000D03*
X150862500Y-65500000D03*
X150862500Y-66450000D03*
X153137500Y-66450000D03*
X153137500Y-65500000D03*
X153137500Y-64550000D03*
%TD*%
D10*
%TO.C,SW1*%
X51310000Y-63960000D03*
X44960000Y-61420000D03*
D11*
X47500000Y-66500000D03*
D12*
X41404000Y-61420000D03*
X54866000Y-63960000D03*
%TD*%
D22*
%TO.C,LED5*%
X59450000Y-96600000D03*
X59450000Y-93400000D03*
X54550000Y-93400000D03*
X54550000Y-96600000D03*
%TD*%
D14*
%TO.C,D41*%
X231404000Y-88325000D03*
X231404000Y-85025000D03*
%TD*%
%TO.C,D40*%
X231404000Y-69325000D03*
X231404000Y-66025000D03*
%TD*%
%TO.C,D38*%
X212404000Y-107325000D03*
X212404000Y-104025000D03*
%TD*%
D32*
%TO.C,R3*%
X151250000Y-87285000D03*
X151250000Y-88835000D03*
%TD*%
D10*
%TO.C,SW9*%
X82960000Y-61420000D03*
D11*
X85500000Y-66500000D03*
D10*
X89310000Y-63960000D03*
D12*
X79404000Y-61420000D03*
X92866000Y-63960000D03*
%TD*%
D14*
%TO.C,D35*%
X193404000Y-126325000D03*
X193404000Y-123025000D03*
%TD*%
%TO.C,D3*%
X41404000Y-107325000D03*
X41404000Y-104025000D03*
%TD*%
D24*
%TO.C,D22*%
X133000000Y-76890000D03*
X133000000Y-80190000D03*
%TD*%
D14*
%TO.C,D1*%
X41404000Y-69325000D03*
X41404000Y-66025000D03*
%TD*%
%TO.C,D7*%
X60404000Y-107325000D03*
X60404000Y-104025000D03*
%TD*%
D11*
%TO.C,SW10*%
X85500000Y-85500000D03*
D10*
X82960000Y-80420000D03*
X89310000Y-82960000D03*
D12*
X79404000Y-80420000D03*
X92866000Y-82960000D03*
%TD*%
D10*
%TO.C,SW23*%
X145040000Y-109580000D03*
X138690000Y-107040000D03*
D11*
X142500000Y-104500000D03*
D33*
X148596000Y-109580000D03*
X135134000Y-107040000D03*
%TD*%
D14*
%TO.C,D44*%
X250404000Y-69325000D03*
X250404000Y-66025000D03*
%TD*%
D10*
%TO.C,SW20*%
X120960000Y-118420000D03*
X127310000Y-120960000D03*
D11*
X123500000Y-123500000D03*
D12*
X117404000Y-118420000D03*
X130866000Y-120960000D03*
%TD*%
D14*
%TO.C,D16*%
X98404000Y-126325000D03*
X98404000Y-123025000D03*
%TD*%
D10*
%TO.C,SW19*%
X120960000Y-99420000D03*
X127310000Y-101960000D03*
D11*
X123500000Y-104500000D03*
D12*
X117404000Y-99420000D03*
X130866000Y-101960000D03*
%TD*%
D13*
%TO.C,C4*%
X161300000Y-90380001D03*
X161300000Y-89420001D03*
%TD*%
D14*
%TO.C,D21*%
X132500000Y-71650000D03*
X132500000Y-68350000D03*
%TD*%
D15*
%TO.C,C6*%
X154425000Y-101665000D03*
X154425000Y-102625000D03*
%TD*%
D10*
%TO.C,SW6*%
X70310000Y-82960000D03*
X63960000Y-80420000D03*
D11*
X66500000Y-85500000D03*
D12*
X60404000Y-80420000D03*
X73866000Y-82960000D03*
%TD*%
D16*
%TO.C,SW48*%
X187000000Y-92125000D03*
X193000000Y-92125000D03*
X187000000Y-95875000D03*
X193000000Y-95875000D03*
%TD*%
D22*
%TO.C,LED1*%
X211450000Y-77600000D03*
X211450000Y-74400000D03*
X206550000Y-74400000D03*
X206550000Y-77600000D03*
%TD*%
D10*
%TO.C,SW25*%
X157690000Y-69040000D03*
D11*
X161500000Y-66500000D03*
D10*
X164040000Y-71580000D03*
D33*
X167596000Y-71580000D03*
X154134000Y-69040000D03*
%TD*%
D10*
%TO.C,SW34*%
X203310000Y-101960000D03*
D11*
X199500000Y-104500000D03*
D10*
X196960000Y-99420000D03*
D12*
X193404000Y-99420000D03*
X206866000Y-101960000D03*
%TD*%
D10*
%TO.C,SW17*%
X127310000Y-63960000D03*
X120960000Y-61420000D03*
D11*
X123500000Y-66500000D03*
D12*
X117404000Y-61420000D03*
X130866000Y-63960000D03*
%TD*%
D11*
%TO.C,SW44*%
X256500000Y-66500000D03*
D10*
X260310000Y-63960000D03*
X253960000Y-61420000D03*
D12*
X250404000Y-61420000D03*
X263866000Y-63960000D03*
%TD*%
D14*
%TO.C,D10*%
X79404000Y-88325000D03*
X79404000Y-85025000D03*
%TD*%
D34*
%TO.C,D26*%
X158848814Y-77049228D03*
X155548814Y-77049228D03*
%TD*%
D11*
%TO.C,SW29*%
X180500000Y-85500000D03*
D10*
X177960000Y-80420000D03*
X184310000Y-82960000D03*
D12*
X174404000Y-80420000D03*
X187866000Y-82960000D03*
%TD*%
D10*
%TO.C,SW12*%
X89310000Y-120960000D03*
D11*
X85500000Y-123500000D03*
D10*
X82960000Y-118420000D03*
D12*
X79404000Y-118420000D03*
X92866000Y-120960000D03*
%TD*%
D34*
%TO.C,D25*%
X174850000Y-71580000D03*
X171550000Y-71580000D03*
%TD*%
D14*
%TO.C,D13*%
X98404000Y-69325000D03*
X98404000Y-66025000D03*
%TD*%
%TO.C,D15*%
X98404000Y-107325000D03*
X98404000Y-104025000D03*
%TD*%
D11*
%TO.C,SW7*%
X66500000Y-104500000D03*
D10*
X63960000Y-99420000D03*
X70310000Y-101960000D03*
D12*
X60404000Y-99420000D03*
X73866000Y-101960000D03*
%TD*%
D11*
%TO.C,SW8*%
X66500000Y-123500000D03*
D10*
X70310000Y-120960000D03*
X63960000Y-118420000D03*
D12*
X60404000Y-118420000D03*
X73866000Y-120960000D03*
%TD*%
D13*
%TO.C,C15*%
X149615000Y-87944974D03*
X149615000Y-86984974D03*
%TD*%
D14*
%TO.C,D34*%
X193404000Y-107325000D03*
X193404000Y-104025000D03*
%TD*%
D22*
%TO.C,LED4*%
X92550000Y-112400000D03*
X92550000Y-115600000D03*
X97450000Y-115600000D03*
X97450000Y-112400000D03*
%TD*%
D35*
%TO.C,Y1*%
X150600000Y-103650000D03*
X148400000Y-103650000D03*
X148400000Y-105350000D03*
X150600000Y-105350000D03*
%TD*%
D14*
%TO.C,D36*%
X212404000Y-69325000D03*
X212404000Y-66025000D03*
%TD*%
%TO.C,D8*%
X60404000Y-126325000D03*
X60404000Y-123025000D03*
%TD*%
D10*
%TO.C,SW41*%
X241310000Y-82960000D03*
D11*
X237500000Y-85500000D03*
D10*
X234960000Y-80420000D03*
D12*
X231404000Y-80420000D03*
X244866000Y-82960000D03*
%TD*%
D10*
%TO.C,SW45*%
X260310000Y-82960000D03*
X253960000Y-80420000D03*
D11*
X256500000Y-85500000D03*
D12*
X250404000Y-80420000D03*
X263866000Y-82960000D03*
%TD*%
D14*
%TO.C,D5*%
X60404000Y-69325000D03*
X60404000Y-66025000D03*
%TD*%
D10*
%TO.C,SW38*%
X222310000Y-101960000D03*
X215960000Y-99420000D03*
D11*
X218500000Y-104500000D03*
D12*
X212404000Y-99420000D03*
X225866000Y-101960000D03*
%TD*%
D36*
%TO.C,R7*%
X149732688Y-62855349D03*
X148712688Y-62855349D03*
%TD*%
D14*
%TO.C,D14*%
X98404000Y-88325000D03*
X98404000Y-85025000D03*
%TD*%
D10*
%TO.C,SW15*%
X101960000Y-99420000D03*
X108310000Y-101960000D03*
D11*
X104500000Y-104500000D03*
D12*
X98404000Y-99420000D03*
X111866000Y-101960000D03*
%TD*%
D13*
%TO.C,C10*%
X154970000Y-89110000D03*
X154970000Y-88150000D03*
%TD*%
D37*
%TO.C,H1*%
X114000000Y-76000000D03*
X114000000Y-114000000D03*
X57000000Y-114000000D03*
X57000000Y-76000000D03*
X190000000Y-76000000D03*
X247000000Y-76000000D03*
X247000000Y-114000000D03*
X190000000Y-114000000D03*
%TD*%
D10*
%TO.C,SW47*%
X253960000Y-118420000D03*
D11*
X256500000Y-123500000D03*
D10*
X260310000Y-120960000D03*
D12*
X250404000Y-118420000D03*
X263866000Y-120960000D03*
%TD*%
D22*
%TO.C,LED3*%
X206550000Y-112400000D03*
X206550000Y-115600000D03*
X211450000Y-115600000D03*
X211450000Y-112400000D03*
%TD*%
D14*
%TO.C,D2*%
X41404000Y-88325000D03*
X41404000Y-85025000D03*
%TD*%
D13*
%TO.C,C8*%
X154000000Y-89110000D03*
X154000000Y-88150000D03*
%TD*%
D14*
%TO.C,D39*%
X212404000Y-126325000D03*
X212404000Y-123025000D03*
%TD*%
D10*
%TO.C,SW16*%
X101960000Y-118420000D03*
X108310000Y-120960000D03*
D11*
X104500000Y-123500000D03*
D12*
X98404000Y-118420000D03*
X111866000Y-120960000D03*
%TD*%
D22*
%TO.C,LED2*%
X244550000Y-93400000D03*
X244550000Y-96600000D03*
X249450000Y-96600000D03*
X249450000Y-93400000D03*
%TD*%
D14*
%TO.C,D9*%
X79404000Y-69325000D03*
X79404000Y-66025000D03*
%TD*%
D13*
%TO.C,C9*%
X156517461Y-91765933D03*
X156517461Y-90805933D03*
%TD*%
D10*
%TO.C,SW36*%
X222310000Y-63960000D03*
D11*
X218500000Y-66500000D03*
D10*
X215960000Y-61420000D03*
D12*
X212404000Y-61420000D03*
X225866000Y-63960000D03*
%TD*%
D14*
%TO.C,D45*%
X250404000Y-88325000D03*
X250404000Y-85025000D03*
%TD*%
D38*
%TO.C,F1*%
X160100000Y-61500000D03*
X162900000Y-61500000D03*
%TD*%
D14*
%TO.C,D28*%
X174404000Y-69325000D03*
X174404000Y-66025000D03*
%TD*%
D11*
%TO.C,SW26*%
X161500000Y-85500000D03*
D10*
X165310000Y-82960000D03*
X158960000Y-80420000D03*
D12*
X155404000Y-80420000D03*
X168866000Y-82960000D03*
%TD*%
D23*
%TO.C,C14*%
X146080000Y-96000000D03*
X145120000Y-96000000D03*
%TD*%
D10*
%TO.C,SW27*%
X157690000Y-107040000D03*
D11*
X161500000Y-104500000D03*
D10*
X164040000Y-109580000D03*
D33*
X167596000Y-109580000D03*
X154134000Y-107040000D03*
%TD*%
D11*
%TO.C,SW24*%
X152000000Y-123500000D03*
D10*
X140062000Y-130485000D03*
D11*
X140062000Y-115245000D03*
D10*
X148190000Y-126040000D03*
X154540000Y-128580000D03*
D11*
X163938000Y-115245000D03*
D10*
X163938000Y-130485000D03*
D33*
X158096000Y-128580000D03*
X144634000Y-126040000D03*
%TD*%
D10*
%TO.C,SW21*%
X145040000Y-71580000D03*
X138690000Y-69040000D03*
D11*
X142500000Y-66500000D03*
D33*
X148596000Y-71580000D03*
X135134000Y-69040000D03*
%TD*%
D10*
%TO.C,SW18*%
X127310000Y-82960000D03*
D11*
X123500000Y-85500000D03*
D10*
X120960000Y-80420000D03*
D12*
X117404000Y-80420000D03*
X130866000Y-82960000D03*
%TD*%
D10*
%TO.C,SW40*%
X241310000Y-63960000D03*
X234960000Y-61420000D03*
D11*
X237500000Y-66500000D03*
D12*
X231404000Y-61420000D03*
X244866000Y-63960000D03*
%TD*%
D32*
%TO.C,R4*%
X152750000Y-87285000D03*
X152750000Y-88835000D03*
%TD*%
D14*
%TO.C,D6*%
X60404000Y-88325000D03*
X60404000Y-85025000D03*
%TD*%
D39*
%TO.C,J2*%
X183200000Y-129950000D03*
D40*
X180660000Y-129950000D03*
X178120000Y-129950000D03*
%TD*%
D36*
%TO.C,R6*%
X154361475Y-62940945D03*
X153341475Y-62940945D03*
%TD*%
D10*
%TO.C,SW4*%
X44960000Y-118420000D03*
X51310000Y-120960000D03*
D11*
X47500000Y-123500000D03*
D12*
X41404000Y-118420000D03*
X54866000Y-120960000D03*
%TD*%
D41*
X148510000Y-99680000D03*
X205229657Y-88959472D03*
X157973294Y-91544874D03*
X156000000Y-98000000D03*
X141317780Y-93546813D03*
X163000000Y-81000000D03*
X137000000Y-95000000D03*
X243000000Y-89000000D03*
X158950000Y-96400000D03*
X247000000Y-106000000D03*
X110000000Y-89000000D03*
X164000000Y-63000000D03*
X91000000Y-89000000D03*
X149450000Y-101730000D03*
X224000000Y-89000000D03*
X72000000Y-89000000D03*
X140250859Y-88648133D03*
X150720000Y-86090000D03*
X156843675Y-89110000D03*
X154425000Y-100750000D03*
X149790000Y-89360000D03*
X170370000Y-94810000D03*
X169820500Y-95430000D03*
X139120000Y-104590000D03*
X139120000Y-95100000D03*
X141280000Y-74290000D03*
X174850000Y-74290000D03*
X141280000Y-75160000D03*
X155490000Y-75160000D03*
X160348814Y-77049228D03*
X174404000Y-89825000D03*
X119660000Y-107500000D03*
X115704000Y-126325000D03*
X167596000Y-69534000D03*
X171550000Y-69534000D03*
X54866000Y-84844000D03*
X54866000Y-103844000D03*
X54866000Y-122844000D03*
X54866000Y-65844000D03*
X54866000Y-88954000D03*
X73866000Y-65844000D03*
X73866000Y-88954000D03*
X73866000Y-103844000D03*
X73866000Y-122844000D03*
X73866000Y-84844000D03*
X92836000Y-84844000D03*
X92836000Y-65844000D03*
X92836000Y-88954000D03*
X92836000Y-122844000D03*
X92836000Y-103844000D03*
X111836000Y-84844000D03*
X111836000Y-88954000D03*
X111836000Y-65844000D03*
X111836000Y-122844000D03*
X111836000Y-103844000D03*
X130836000Y-84844000D03*
X130836000Y-65844000D03*
X130836000Y-122844000D03*
X130836000Y-103844000D03*
X147370000Y-85460000D03*
X158096000Y-130484000D03*
X145090000Y-92580000D03*
X148596000Y-111884000D03*
X168866000Y-89284000D03*
X168866000Y-84984000D03*
X167596000Y-111884000D03*
X187866000Y-84844000D03*
X187866000Y-103844000D03*
X187866000Y-122844000D03*
X187866000Y-65844000D03*
X187866000Y-88954000D03*
X206866000Y-65844000D03*
X206866000Y-122844000D03*
X206866000Y-103844000D03*
X206866000Y-88954000D03*
X206866000Y-84844000D03*
X225866000Y-88954000D03*
X225866000Y-84844000D03*
X225866000Y-103844000D03*
X225866000Y-122844000D03*
X225866000Y-65844000D03*
X244866000Y-65844000D03*
X244866000Y-122844000D03*
X244866000Y-88954000D03*
X244866000Y-103844000D03*
X244866000Y-84844000D03*
X228740000Y-80870000D03*
X229525000Y-91585000D03*
X228975000Y-110005000D03*
X228980000Y-105990000D03*
X57010000Y-105310000D03*
X57010000Y-110070000D03*
X76000000Y-95010000D03*
X80225000Y-73485000D03*
X228000000Y-81150000D03*
X179450000Y-70410000D03*
X80220000Y-74390000D03*
X228000000Y-91550000D03*
X58110000Y-105310000D03*
X77180000Y-95560000D03*
X228000000Y-109710000D03*
X169750000Y-66700000D03*
X58110000Y-110070000D03*
M02*
