M48
; DRILL file {KiCad (6.0.6)} date Tue Aug 30 20:37:50 2022
; FORMAT={-:-/ absolute / inch / decimal}
; #@! TF.CreationDate,2022-08-30T20:37:50+01:00
; #@! TF.GenerationSoftware,Kicad,Pcbnew,(6.0.6)
; #@! TF.FileFunction,Plated,1,2,PTH
FMAT,2
INCH
; #@! TA.AperFunction,Plated,PTH,ViaDrill
T1C0.0138
; #@! TA.AperFunction,Plated,PTH,ComponentDrill
T2C0.0138
; #@! TA.AperFunction,Plated,PTH,ComponentDrill
T3C0.0236
; #@! TA.AperFunction,Plated,PTH,ComponentDrill
T4C0.0394
; #@! TA.AperFunction,Plated,PTH,ComponentDrill
T5C0.0882
%
G90
G05
T1
X2.1601Y-2.5923
X2.1601Y-3.3403
X2.1601Y-3.5021
X2.1601Y-4.0883
X2.1601Y-4.8364
X2.2445Y-4.1461
X2.2445Y-4.3335
X2.2878Y-4.1461
X2.2878Y-4.3335
X2.8346Y-3.5039
X2.9081Y-2.5923
X2.9081Y-3.3403
X2.9081Y-3.5021
X2.9081Y-4.0883
X2.9081Y-4.8364
X2.9921Y-3.7406
X3.0386Y-3.7622
X3.1583Y-2.9287
X3.1585Y-2.8931
X3.5827Y-3.5039
X3.655Y-2.5923
X3.655Y-3.3403
X3.655Y-3.5021
X3.655Y-4.0883
X3.655Y-4.8364
X4.3307Y-3.5039
X4.403Y-2.5923
X4.403Y-3.3403
X4.403Y-3.5021
X4.403Y-4.0883
X4.403Y-4.8364
X4.5553Y-4.9734
X4.711Y-4.2323
X5.151Y-2.5923
X5.151Y-3.3403
X5.151Y-4.0883
X5.151Y-4.8364
X5.3937Y-3.7402
X5.4772Y-3.7441
X5.4772Y-4.1177
X5.5217Y-3.4901
X5.5622Y-2.9248
X5.5622Y-2.9591
X5.5637Y-3.6829
X5.7122Y-3.6449
X5.802Y-3.3646
X5.8469Y-3.9244
X5.8502Y-4.4049
X5.8839Y-4.0051
X5.8972Y-3.5181
X5.9339Y-3.3894
X6.0797Y-3.9665
X6.1217Y-2.9591
X6.1417Y-3.8583
X6.1749Y-3.5083
X6.2194Y-3.6041
X6.2243Y-5.1372
X6.2579Y-3.7953
X6.3129Y-3.0334
X6.4173Y-3.189
X6.4567Y-2.4803
X6.5983Y-2.7376
X6.5983Y-4.4049
X6.6483Y-3.3458
X6.6483Y-3.5151
X6.6831Y-2.626
X6.6858Y-3.7571
X6.7075Y-3.7327
X6.7539Y-2.7376
X6.8663Y-3.5364
X6.8839Y-2.9248
X7.065Y-2.772
X7.3963Y-2.5923
X7.3963Y-3.3403
X7.3963Y-3.5021
X7.3963Y-4.0883
X7.3963Y-4.8364
X8.0799Y-3.5023
X8.1443Y-2.5923
X8.1443Y-3.3403
X8.1443Y-3.5021
X8.1443Y-4.0883
X8.1443Y-4.8364
X8.8189Y-3.5039
X8.8924Y-2.5923
X8.8924Y-3.3403
X8.8924Y-3.5021
X8.8924Y-4.0883
X8.8924Y-4.8364
X8.9764Y-3.1949
X8.9764Y-3.6043
X8.9764Y-4.3193
X9.0055Y-3.1839
X9.0148Y-4.3309
X9.015Y-4.1728
X9.0364Y-3.6057
X9.5669Y-3.5039
X9.6404Y-2.5923
X9.6404Y-3.3403
X9.6404Y-3.5021
X9.6404Y-4.0883
X9.6404Y-4.8364
X9.7244Y-4.1732
T2
X5.8868Y-3.69
X5.8868Y-3.7402
X5.8868Y-3.7904
X5.937Y-3.69
X5.937Y-3.7402
X5.937Y-3.7904
X5.9872Y-3.69
X5.9872Y-3.7402
X5.9872Y-3.7904
T4
X7.0126Y-5.1161
X7.1126Y-5.1161
X7.2126Y-5.1161
T5
X2.2441Y-2.9921
X2.2441Y-4.4882
X4.4882Y-2.9921
X4.4882Y-4.4882
X7.4803Y-2.9921
X7.4803Y-4.4882
X9.7244Y-2.9921
X9.7244Y-4.4882
T3
G00X5.815Y-2.2323
M15
G01X5.815Y-2.2087
M16
G05
G00X5.815Y-2.4075
M15
G01X5.815Y-2.3642
M16
G05
G00X6.1535Y-2.2323
M15
G01X6.1535Y-2.2087
M16
G05
G00X6.1535Y-2.4075
M15
G01X6.1535Y-2.3642
M16
G05
T0
M30
