M48
; DRILL file {KiCad (6.0.6)} date Tue Aug 30 20:37:50 2022
; FORMAT={-:-/ absolute / inch / decimal}
; #@! TF.CreationDate,2022-08-30T20:37:50+01:00
; #@! TF.GenerationSoftware,Kicad,Pcbnew,(6.0.6)
; #@! TF.FileFunction,NonPlated,1,2,NPTH
FMAT,2
INCH
; #@! TA.AperFunction,NonPlated,NPTH,ComponentDrill
T1C0.0256
; #@! TA.AperFunction,NonPlated,NPTH,ComponentDrill
T2C0.1200
; #@! TA.AperFunction,NonPlated,NPTH,ComponentDrill
T3C0.1570
%
G90
G05
T1
X5.8705Y-2.3641
X6.098Y-2.3641
T2
X1.7701Y-2.4181
X1.7701Y-3.1661
X1.7701Y-3.9142
X1.7701Y-4.6622
X2.0201Y-2.5181
X2.0201Y-3.2661
X2.0201Y-4.0142
X2.0201Y-4.7622
X2.5181Y-2.4181
X2.5181Y-3.1661
X2.5181Y-3.9142
X2.5181Y-4.6622
X2.7681Y-2.5181
X2.7681Y-3.2661
X2.7681Y-4.0142
X2.7681Y-4.7622
X3.2661Y-2.4181
X3.2661Y-3.1661
X3.2661Y-3.9142
X3.2661Y-4.6622
X3.5161Y-2.5181
X3.5161Y-3.2661
X3.5161Y-4.0142
X3.5161Y-4.7622
X4.0142Y-2.4181
X4.0142Y-3.1661
X4.0142Y-3.9142
X4.0142Y-4.6622
X4.2642Y-2.5181
X4.2642Y-3.2661
X4.2642Y-4.0142
X4.2642Y-4.7622
X4.7622Y-2.4181
X4.7622Y-3.1661
X4.7622Y-3.9142
X4.7622Y-4.6622
X5.0122Y-2.5181
X5.0122Y-3.2661
X5.0122Y-4.0142
X5.0122Y-4.7622
X5.4602Y-2.7181
X5.4602Y-4.2142
X5.5102Y-3.1661
X5.5143Y-5.1372
X5.7102Y-2.8181
X5.7102Y-4.3142
X5.7602Y-3.2661
X5.8343Y-4.9622
X6.0843Y-5.0622
X6.2083Y-2.7181
X6.2083Y-4.2142
X6.2583Y-3.1661
X6.4543Y-5.1372
X6.4583Y-2.8181
X6.4583Y-4.3142
X6.5083Y-3.2661
X7.0063Y-2.4181
X7.0063Y-3.1661
X7.0063Y-3.9142
X7.0063Y-4.6622
X7.2563Y-2.5181
X7.2563Y-3.2661
X7.2563Y-4.0142
X7.2563Y-4.7622
X7.7543Y-2.4181
X7.7543Y-3.1661
X7.7543Y-3.9142
X7.7543Y-4.6622
X8.0043Y-2.5181
X8.0043Y-3.2661
X8.0043Y-4.0142
X8.0043Y-4.7622
X8.5024Y-2.4181
X8.5024Y-3.1661
X8.5024Y-3.9142
X8.5024Y-4.6622
X8.7524Y-2.5181
X8.7524Y-3.2661
X8.7524Y-4.0142
X8.7524Y-4.7622
X9.2504Y-2.4181
X9.2504Y-3.1661
X9.2504Y-3.9142
X9.2504Y-4.6622
X9.5004Y-2.5181
X9.5004Y-3.2661
X9.5004Y-4.0142
X9.5004Y-4.7622
X9.9984Y-2.4181
X9.9984Y-3.1661
X9.9984Y-3.9142
X9.9984Y-4.6622
X10.2484Y-2.5181
X10.2484Y-3.2661
X10.2484Y-4.0142
X10.2484Y-4.7622
T3
X1.8701Y-2.6181
X1.8701Y-3.3661
X1.8701Y-4.1142
X1.8701Y-4.8622
X2.6181Y-2.6181
X2.6181Y-3.3661
X2.6181Y-4.1142
X2.6181Y-4.8622
X3.3661Y-2.6181
X3.3661Y-3.3661
X3.3661Y-4.1142
X3.3661Y-4.8622
X4.1142Y-2.6181
X4.1142Y-3.3661
X4.1142Y-4.1142
X4.1142Y-4.8622
X4.8622Y-2.6181
X4.8622Y-3.3661
X4.8622Y-4.1142
X4.8622Y-4.8622
X5.5143Y-4.5372
X5.6102Y-2.6181
X5.6102Y-3.3661
X5.6102Y-4.1142
X5.9843Y-4.8622
X6.3583Y-2.6181
X6.3583Y-3.3661
X6.3583Y-4.1142
X6.4543Y-4.5372
X7.1063Y-2.6181
X7.1063Y-3.3661
X7.1063Y-4.1142
X7.1063Y-4.8622
X7.8543Y-2.6181
X7.8543Y-3.3661
X7.8543Y-4.1142
X7.8543Y-4.8622
X8.6024Y-2.6181
X8.6024Y-3.3661
X8.6024Y-4.1142
X8.6024Y-4.8622
X9.3504Y-2.6181
X9.3504Y-3.3661
X9.3504Y-4.1142
X9.3504Y-4.8622
X10.0984Y-2.6181
X10.0984Y-3.3661
X10.0984Y-4.1142
X10.0984Y-4.8622
T0
M30
